<svg width="128" height="56" viewBox="0 0 128 56" fill="none" xmlns="http://www.w3.org/2000/svg">
    <path d="M81.6211 35.2486L79.3865 28.496H69.2668L67.0261 35.2486H63.1719L72.5792 5.03564H76.0681L85.4754 35.2486H81.6211ZM78.2174 24.6539L74.3876 11.7943L70.4237 24.6539H78.2174Z" fill="white"/>
    <path d="M85.4746 5.03564H89.3228V18.6077L98.864 5.03564H103.656L94.0782 18.5407L105.811 35.2486H101.105L91.7583 21.8835L89.3228 25.2933V35.2486H85.4746V5.03564Z" fill="white"/>
    <path d="M109.094 8.15283H112.943L109.697 35.2483H105.812L109.094 8.15283Z" fill="white"/>
    <path d="M113.946 0L112.941 8.15298H116.997L118.007 0H113.946Z" fill="white"/>
    <path d="M122.874 30.3166C123.714 29.5859 124.019 28.563 124.049 27.2539V5.03564H127.867V27.2539C127.837 29.6712 126.99 31.5587 125.492 32.9287C124.001 34.3048 121.888 35.2486 118.989 35.2486C117.126 35.2486 115.47 34.6519 114.197 33.9821C112.925 33.3123 111.902 32.3503 111.135 31.096L114.484 29.3363C116.852 32.4355 121.382 31.51 122.874 30.3166Z" fill="white"/>
    <path d="M69.9428 49.4112C69.9428 52.0964 69.2913 53.3994 67.9578 53.3994C66.46 53.3994 65.6441 52.3156 65.6441 46.6103C65.6441 40.9964 66.4234 39.9674 67.9639 39.9674C68.4206 39.9369 68.7798 40.077 69.0721 40.351C69.7236 40.9781 69.8636 42.2202 69.8636 43.1579V43.6085H72.494V43.1336C72.494 41.7575 72.494 37.5684 67.9761 37.5684C64.408 37.5684 63.0137 40.1196 63.0137 46.6773C63.0137 53.235 64.4019 55.7862 67.9578 55.7862C70.8927 55.7862 72.5732 53.4846 72.5732 49.4721V48.9484H69.9428V49.4112Z" fill="white"/>
    <path d="M76.5073 47.6455H81.689V45.009H76.5073V40.552H82.0178V37.9155H73.877V55.4636H82.1761V52.8271H76.5073V47.6455Z" fill="white"/>
    <path d="M89.9576 50.1176L87.516 37.9155H83.6191V55.4636H86.1277V42.3604L88.7947 55.4636H90.9988L93.6658 42.3604V55.4636H96.1744V37.9155H92.3566L89.9576 50.1176Z" fill="white"/>
    <path d="M100.875 47.6455H106.062V45.009H100.875V40.552H106.385V37.9155H98.2441V55.4636H106.549V52.8271H100.875V47.6455Z" fill="white"/>
    <path d="M115.037 50.0263L111.079 37.9155H107.986V55.4575H110.495V43.0302L114.453 55.4575H117.546V37.9155H115.037V50.0263Z" fill="white"/>
    <path d="M118.545 37.9155V40.552H121.991V55.4636H124.616V40.552H128.001V37.9155H118.545Z" fill="white"/>
    <path d="M38.2737 16.2757L40.9223 17.7005L54.8658 12.9816C55.0911 12.9025 55.3286 12.8659 55.5599 12.8477V5.13916H38.2676V16.2757H38.2737Z" fill="#D20A11"/>
    <path d="M50.9385 37.5565C50.8228 38.5124 50.3601 39.4136 49.6111 40.0955C49.5441 40.1564 49.4772 40.2112 49.4041 40.266L47.8941 41.4046C47.0051 42.0744 45.9213 42.3606 44.874 42.2632C44.667 42.5128 44.4356 42.7381 44.1677 42.9329L42.5724 44.0837C41.7869 44.65 40.8614 44.9483 39.9298 44.9727C39.8263 45.1006 39.7106 45.2284 39.5889 45.3441L38.2676 46.5741V55.6404H55.5599V36.2656L50.9385 37.5565Z" fill="#D20A11"/>
    <path d="M8.54848 38.5062C8.60328 38.5062 8.65199 38.494 8.70679 38.488L8.50586 38.354C8.51804 38.4027 8.52413 38.4575 8.54848 38.5062Z" fill="#D20A11"/>
    <path d="M16.9149 47.1156C16.787 47.0365 16.6591 46.9634 16.5373 46.866L14.9481 45.6056C14.6254 45.3498 14.3514 45.0515 14.1322 44.7288C13.3955 44.6496 12.6953 44.3756 12.1047 43.9068L10.5337 42.6647C10.3024 42.482 10.1014 42.275 9.91875 42.0497C9.16982 42.0253 8.43916 41.8 7.80592 41.3677L6.14366 40.2352C5.26077 39.6385 4.66407 38.7313 4.46313 37.6779C4.44487 37.5805 4.43269 37.4891 4.42051 37.3978L0 35.9121V55.6339H16.9088V47.1156H16.9149Z" fill="#D20A11"/>
    <path d="M13.1519 17.4874L16.9149 15.7886V5.13916H0V12.732C0.273999 12.7502 0.53582 12.7929 0.797641 12.8903L13.1519 17.4874Z" fill="#D20A11"/>
    <path d="M35.779 47.8159C35.3527 47.8829 34.9204 47.8951 34.4881 47.8342C34.409 47.9133 34.3237 47.9925 34.2324 48.0656C34.202 48.0899 34.1715 48.1143 34.1411 48.1386L32.905 49.0885C32.016 49.7704 30.9566 50.1114 29.891 50.1114C28.9473 50.1114 27.9974 49.8435 27.1693 49.2955L26.5665 48.9119C25.9211 49.6426 25.0443 50.1053 24.064 50.2149C23.9118 50.2332 23.7535 50.2393 23.6012 50.2393C22.7123 50.2393 21.8537 49.9409 21.1474 49.3808L19.607 48.1569C19.54 48.1021 19.473 48.0412 19.4121 47.9803V55.6157H35.779V47.8159Z" fill="white"/>
    <path d="M19.4121 14.6621L22.5966 13.2252C23.3881 12.8659 24.2588 12.6954 25.1295 12.7441L26.9379 12.8355C27.352 12.8537 27.7356 12.9694 28.0887 13.146C29.6414 12.5676 31.3706 12.6345 32.8624 13.3591C32.8989 13.3774 32.9355 13.3957 32.9781 13.4139L35.779 14.924V5.13916H19.4121V14.6621Z" fill="white"/>
    <path d="M7.03263 35.2364C7.03263 35.2364 7.61107 34.5483 8.60965 34.5727C9.53515 34.597 10.1745 35.1694 10.9782 35.7357C11.0452 35.7844 11.1122 35.8331 11.1852 35.8757C12.0864 36.4846 12.2569 37.0569 12.2569 37.0569C12.2569 37.0569 12.811 36.1741 13.5903 35.7174C13.8643 35.5591 14.1566 35.4495 14.4671 35.4495C15.5753 35.4434 16.1233 36.0827 16.9149 36.7221C16.9392 36.7403 16.9575 36.7586 16.9818 36.7708C17.0305 36.8073 17.0732 36.8438 17.1219 36.8804C18.0352 37.5684 18.1813 38.1712 18.1813 38.1712C18.5528 37.812 18.9424 37.6537 19.3017 37.6049C19.3382 37.5989 19.3748 37.5928 19.4052 37.5928C19.5818 37.5806 19.7523 37.5928 19.9045 37.6171C20.4829 37.7206 20.9031 38.019 20.9031 38.019C20.9031 38.019 21.4632 38.3904 22.541 39.3829C22.614 39.4499 22.681 39.5229 22.748 39.5899C23.57 40.5154 23.2412 41.4287 23.2412 41.4287C23.7344 41.4287 24.3493 41.6723 24.9826 42.0924C25.4393 42.3969 25.9081 42.7866 26.3526 43.2676C27.4181 44.4123 26.7788 45.6301 26.7788 45.6301L28.3193 46.6104L28.7455 46.8844C29.4762 47.3776 30.4443 47.3471 31.1445 46.8052L32.3806 45.8553C32.6789 45.6057 32.6667 45.143 32.3562 44.9116L29.5066 42.7866C29.5066 42.7866 29.0743 42.4639 29.4092 42.062C29.7136 41.6967 30.1886 42.0011 30.1886 42.0011L34.1889 44.7106C34.6761 45.0334 35.2789 45.0638 35.7842 44.8324C35.8269 44.8142 35.8634 44.7898 35.8999 44.7715C36.0095 44.7106 36.1191 44.6376 36.2165 44.5462L37.6292 43.225C37.891 42.9814 37.8666 42.5491 37.5744 42.3421L35.8999 41.1243L35.7842 41.0391L32.1735 38.4026C32.1735 38.4026 31.8021 38.086 32.0944 37.6902C32.3745 37.3188 32.9286 37.7085 32.9286 37.7085L35.7842 39.6812L35.8999 39.7604L38.2807 41.4105L38.7799 41.7575C39.4193 42.1959 40.2595 42.1899 40.8867 41.7332L42.482 40.5824C42.9447 40.2475 42.9447 39.5595 42.4759 39.2246L38.2746 36.1984L35.8938 34.4814L35.7781 34.3961L34.6091 33.5559C33.9637 33.1844 34.4873 32.1798 35.3945 32.7947L35.7842 33.0687L35.8999 33.1479L38.2807 34.8102L44.4365 39.1089C44.9601 39.4742 45.6543 39.456 46.1657 39.0784L47.5296 38.0555L47.6758 37.9459C48.2603 37.4101 48.2238 36.6185 47.5844 36.1436L38.2746 29.2632L35.8938 27.5035L35.7781 27.4183L30.1399 23.2474C29.8293 23.0221 29.4457 22.9369 29.0682 23.0039L27.5886 23.2839C27.3207 23.3327 26.9676 23.5579 26.8032 23.7832L24.2945 27.2539C23.6248 28.0393 22.6018 28.3316 21.7372 27.7836L19.4052 26.1701L19.3017 26.097L19.1677 26.0057C18.4553 25.3481 18.4188 24.2216 18.9059 23.4544L19.3017 22.876L19.4052 22.7177L22.34 18.4189C22.7114 17.8892 23.2046 17.463 23.7831 17.1707L26.791 15.7094L24.9826 15.6242C24.5685 15.6059 24.1545 15.685 23.777 15.8494L21.104 17.055L19.4052 17.8222L19.3017 17.871L16.9088 18.9487L14.2053 20.1664C13.5964 20.4404 12.8962 20.4648 12.2691 20.2334L0 15.679V32.8617L5.15118 34.6031L7.03263 35.2364Z" fill="white"/>
    <path d="M39.7296 20.3369L38.2682 19.5514L35.8875 18.2666L35.7718 18.2058L31.6009 15.959C30.9981 15.6667 30.3223 15.5754 29.6708 15.685C29.4394 15.7276 29.2141 15.7885 28.9888 15.8798L24.5805 17.9805C23.9655 18.2423 23.4419 18.6685 23.0644 19.2165L19.8068 24.0084C19.545 24.4225 19.6059 24.9644 19.9469 25.3054L21.8709 26.6084C22.6199 27.1807 23.2896 26.8337 23.728 26.2004L25.5791 23.3874C26.0053 22.8637 26.5654 22.4741 27.2048 22.2609L28.4652 21.9748C29.3602 21.786 30.2918 21.9809 31.0286 22.5228L35.7657 26.0787L35.8814 26.1639L38.2621 27.954L47.8095 35.1145C48.0043 35.2546 48.2479 35.3033 48.4793 35.2424L50.1963 34.7614L55.5484 33.2635V15.7946L41.6536 20.4952C41.0265 20.7083 40.3263 20.6535 39.7296 20.3369Z" fill="white"/>
    <path d="M21.8409 40.1743L21.5669 39.9551L20.2517 38.9139C20.203 38.8713 20.1482 38.8409 20.0934 38.8104C19.8803 38.6947 19.6368 38.6582 19.4054 38.7008C19.3689 38.7069 19.3323 38.713 19.3019 38.7252C19.0888 38.786 18.8939 38.9017 18.7478 39.0905L17.2925 40.9232L16.909 41.4043L16.568 41.8366C16.2026 42.2993 16.2818 42.9752 16.7385 43.3405L16.909 43.4745L17.2317 43.7302L18.1572 44.4609L18.3337 44.6009C18.6138 44.8262 18.9792 44.881 19.308 44.7836C19.3445 44.7714 19.381 44.7592 19.4115 44.741C19.5759 44.674 19.722 44.5705 19.8377 44.4243L20.885 43.1031L22.0175 41.6783C22.3828 41.2216 22.3037 40.5396 21.8409 40.1743Z" fill="white"/>
    <path d="M25.5001 43.9071L24.5198 43.1338L23.9535 42.6832C23.4908 42.3179 22.8149 42.3971 22.4496 42.8598L21.658 43.8523L21.2257 44.4003C20.8604 44.863 20.9395 45.5389 21.4023 45.9042L21.9746 46.3609L22.9428 47.1281C23.3446 47.4508 23.917 47.4265 24.3006 47.1098C24.3554 47.0611 24.4041 47.0124 24.4528 46.9576L25.6767 45.4171C26.042 44.9544 25.9628 44.2724 25.5001 43.9071Z" fill="white"/>
    <path d="M16.9753 39.4986C17.3101 39.0785 17.2675 38.4757 16.9083 38.0982C16.8718 38.0616 16.8413 38.0251 16.7987 37.9946L16.2629 37.5745L15.2278 36.7525C14.8685 36.4724 14.3814 36.4542 14.01 36.6734C13.9004 36.7403 13.803 36.8195 13.7177 36.923L12.1468 38.9019C11.9093 39.2002 11.8606 39.596 11.9824 39.9309C12.0494 40.1136 12.159 40.278 12.3173 40.4058L12.8957 40.8625L13.5838 41.4105L13.8821 41.648C14.3449 42.0133 15.0207 41.9402 15.3861 41.4775L16.269 40.3632L16.9144 39.5778L16.9753 39.4986Z" fill="white"/>
    <path d="M10.8266 36.9411L10.3091 36.5879L10.102 36.4479L9.89502 36.3079L9.16435 35.8147C8.65898 35.4737 7.97094 35.6015 7.62387 36.1069L7.47774 36.32C7.13676 36.8254 7.26463 37.5134 7.77 37.8605L7.94049 37.9762L8.49458 38.3537L8.69551 38.4877L9.11564 38.7738L9.43226 38.9869C9.688 39.1574 9.98635 39.2122 10.2664 39.1574C10.5465 39.1026 10.8023 38.9443 10.9727 38.6947L11.1189 38.4755C11.4659 37.9762 11.332 37.2821 10.8266 36.9411Z" fill="white"/>
</svg>
