<svg width="142" height="120" viewBox="0 0 142 120" fill="none" xmlns="http://www.w3.org/2000/svg">
    <path d="M63.7008 36.4068C63.6175 35.9546 63.32 33.8127 63.6711 32.2895C63.8793 32.0337 63.4866 30.7783 62.5228 31.7481C62.2491 32.0337 60.4522 35.1871 63.7008 36.4068Z" fill="white"/>
    <path d="M86.0051 31.9619C87.8614 31.8429 90.8185 31.4562 93.5256 30.5043V29.5166V28.9335C89.3727 30.5043 84.2618 30.5875 83.4824 30.528C82.6257 32.4558 81.3108 32.8009 81.0728 32.8723C80.6741 35.4961 78.8416 35.389 78.6572 35.3592C78.3121 35.2938 78.3121 35.4425 78.2407 35.5853C77.5862 38.0366 75.7715 37.644 75.1052 37.5309C74.3733 38.9589 73.2191 39.0362 72.4873 38.9827C70.6369 41.315 68.9948 39.6431 68.4057 39.292C65.2583 39.7145 64.3302 37.9117 64.1695 37.5012C60.9448 37.1858 60.8317 34.7464 60.8972 33.9849C58.5648 33.2471 58.2138 31.5752 58.1722 31.129C56.9168 30.7958 52.3176 29.939 51.1098 29.5047C50.5029 29.3976 49.194 28.9514 48.5098 28.7134V29.3619V30.2782C49.2118 30.5043 50.1519 30.8315 50.7231 30.9564C51.5382 31.2123 53.2934 31.599 54.989 31.956C55.5126 32.069 56.0303 32.1821 56.3753 32.2654V51.5366C56.5419 51.4533 56.7085 51.3641 56.9168 51.2808L57.5117 51.0488V32.7295C57.9104 33.4196 58.5767 34.1396 59.7072 34.6631C59.7786 35.1629 59.9095 35.7698 60.2605 36.3529C60.6949 37.1382 61.6052 38.108 63.4079 38.465C63.64 38.8042 63.9732 39.2028 64.4908 39.5479C64.9489 39.887 65.4904 40.1131 66.0794 40.2559V48.9604L66.9897 48.883V40.3987C67.3586 40.4344 67.7156 40.4344 68.1023 40.3987C68.5426 40.714 69.2268 41.1484 70.1133 41.2436C70.863 41.315 71.9518 41.1543 73.0525 40.0298C74.0223 39.9644 74.8255 39.6133 75.4324 38.9707V48.9068L76.0393 48.9782C76.1523 48.9901 76.2475 49.0139 76.3606 49.0377L76.3487 38.6614C76.551 38.6376 76.8365 38.59 77.1162 38.4888C77.8004 38.2627 78.6631 37.6975 79.2045 36.4005C79.6329 36.3469 80.1446 36.1922 80.6325 35.8471C81.1501 35.4842 81.7867 34.8178 82.1199 33.61C82.9588 33.1935 83.6728 32.5093 84.2202 31.5931C84.4165 31.5931 84.6486 31.5812 84.8925 31.5812V51.1856L85.1959 51.2986C85.4815 51.4117 85.7493 51.5485 86.023 51.6794V31.9619H86.0051Z" fill="white"/>
    <path d="M67.2276 38.1857C66.115 35.9546 66.2875 33.9376 66.1566 33.3605C65.996 32.117 64.931 32.4204 64.8298 33.2474C64.7168 33.6223 64.5026 34.842 64.8893 36.2937C65.1154 37.5729 66.7159 38.5011 67.2276 38.1857Z" fill="white"/>
    <path d="M60.9459 32.2299C61.0768 31.9324 61.1244 31.6111 60.5175 31.1113C60.1784 30.7365 59.2205 30.5639 59.4822 31.504C59.6488 31.861 60.2676 32.7832 60.9459 32.2299Z" fill="white"/>
    <path d="M68.3525 18.7595C71.369 17.9622 74.8318 18.9737 76.0753 19.2057C76.7773 19.3128 78.1041 19.4437 78.1696 19.4437C79.2524 19.533 79.4964 19.8543 79.6154 19.9673C80.2579 20.3778 80.371 20.2172 80.5673 20.1399C82.9056 19.3664 90.4737 15.5169 93.5259 13.845V12.1612C90.9972 13.5594 82.7925 17.6707 80.3115 18.5096C79.9664 18.2359 79.4131 17.9087 78.2886 17.7897H78.2588H78.235C78.0744 17.7897 76.8844 17.6767 76.2894 17.5815C76.1169 17.5517 75.8789 17.5041 75.5874 17.4387C73.9333 17.1055 70.8633 16.457 68.049 17.1769C66.9781 17.4208 66.0737 17.9325 65.443 18.6643C58.0475 16.8794 48.8135 10.9594 48.7123 10.8999L48.4922 10.7393V10.8285V12.4349C50.4973 13.7201 59.1065 19.0332 65.9845 20.4552C66.6568 19.1344 68.0669 18.8309 68.3525 18.7595Z" fill="white"/>
    <path d="M79.6277 21.0622C78.9316 20.616 78.4021 20.5446 77.7714 20.5803C77.111 20.6457 76.629 20.5029 76.3732 20.3839C70.5484 19.0036 69.2395 19.6045 68.6623 19.7057C67.0142 20.0329 67.0142 20.5446 66.9547 20.7171C66.7108 21.913 66.3538 22.1748 65.9552 22.6746C65.1936 23.3469 65.4792 23.5195 65.622 23.6325C67.877 24.5726 69.5786 22.514 70.1617 21.9666C73.2555 21.7762 75.4688 24.2989 75.8794 25.0664C76.4208 26.3991 78.2474 28.0591 78.8662 28.5113C80.3655 29.6894 80.5797 30.6949 80.8593 31.5814C82.1623 31.2006 82.6978 29.85 82.7989 29.4335C87.2196 29.85 91.319 28.5529 93.5204 27.7735V14.8447C90.1826 16.701 82.7751 20.4672 81.7637 20.9551C80.3238 21.7702 80.0561 21.2823 79.6277 21.0622Z" fill="white"/>
    <path d="M61.7601 30.6711C63.9616 29.6775 64.7886 31.1589 64.8421 31.7063C66.6568 30.9924 67.1268 32.4441 67.0971 32.8011C67.1566 33.8244 67.347 35.1631 67.3827 35.294C67.6207 36.6208 68.1204 37.2575 68.1502 37.3229C68.7095 38.3046 69.8399 38.6973 69.9768 38.7449C71.1489 39.2863 71.1905 38.4057 70.9644 38.0071C70.0363 36.4245 69.3818 35.3654 69.233 34.9549C68.7809 33.9018 69.953 33.9553 70.2742 34.6455C70.8573 35.8593 71.5296 36.7398 71.6129 36.9124C72.1127 37.781 72.7136 37.7572 72.7969 37.781C73.4574 37.8405 74.0702 37.0968 73.6537 36.5375C73.1956 35.8712 72.7017 35.0858 72.5232 34.9311C71.8271 34.0148 71.7081 33.8482 71.6248 33.6162C71.1786 32.5928 72.1544 32.3489 72.5351 33.045C72.7553 33.2711 72.9873 33.6697 73.0409 33.753C73.5704 34.6693 74.3141 35.4547 74.57 35.8593C75.3791 36.954 76.1586 36.4245 76.3549 36.2995C76.7416 36.0853 76.8785 35.5618 76.8666 35.4725C76.5988 34.3718 76.0277 33.7292 75.9563 33.6162C75.5755 32.9915 74.9805 32.1347 74.9151 32.0217C74.1713 30.9745 74.4569 30.1951 74.5283 30.0225C74.8318 29.3205 75.397 29.5228 75.4743 30.0344C75.5041 30.3617 75.5398 30.7365 75.6885 31.0519C76.1645 32.1704 77.0867 33.1938 77.4556 33.753C77.6162 33.9018 77.6698 34.0624 77.9732 34.1576C79.2167 34.2171 79.8236 32.9915 79.8712 32.5631C79.9545 31.504 79.4726 30.9924 79.068 30.3081C78.1398 28.9932 76.7595 27.9818 76.575 27.7378C75.9741 27.2262 75.7718 26.8335 75.7421 26.7383C75.1828 25.822 74.6592 25.0128 74.4569 24.8403C73.1004 23.4838 71.7617 23.341 71.6308 23.3112C71.1191 23.1744 70.5182 23.1149 70.3456 23.1744C68.9891 24.5666 66.8353 24.8284 66.7103 24.8403C64.7826 25.1199 64.4375 24.0252 64.3721 23.8883C64.1698 23.3231 64.741 22.7638 64.9314 22.5616C65.4847 22.0499 65.7405 21.6572 65.8 21.4132C58.9459 20.1281 50.4854 15.2315 48.4922 14.0415L48.5041 27.4225C49.6345 27.9401 53.0675 29.3383 58.9816 30.0225C60.9034 29.1301 61.4865 30.2903 61.7601 30.6711Z" fill="white"/>
    <path d="M58.1668 31.1294C58.2084 31.5756 58.5594 33.2475 60.8917 33.9852C60.8323 34.7468 60.9393 37.1862 64.1701 37.5016C64.3248 37.9121 65.2529 39.7149 68.4063 39.2924C68.9953 39.6435 70.6315 41.3153 72.4878 38.9771C73.2137 39.0247 74.3739 38.9473 75.0998 37.5254C75.7661 37.6384 77.5749 38.037 78.2353 35.5798C78.3007 35.437 78.3007 35.2942 78.6458 35.3537C78.8303 35.3834 80.6568 35.4905 81.0614 32.8667C81.2994 32.7953 82.6143 32.4502 83.4711 30.5225C84.2564 30.582 89.3673 30.4987 93.5143 28.928V27.7558C91.3188 28.5412 87.2194 29.8323 82.7928 29.4158C82.6917 29.8323 82.1562 31.1829 80.8532 31.5637C80.5735 30.6772 80.3534 29.6657 78.86 28.4936C78.2472 28.0415 76.4147 26.3874 75.8792 25.0487C75.4567 24.2812 73.2494 21.7585 70.1496 21.9489C69.5665 22.4963 67.8649 24.5549 65.6099 23.6148C65.4731 23.5018 65.1815 23.3292 65.9431 22.6629C66.3358 22.169 66.6928 21.9073 66.9426 20.7054C67.0021 20.5388 67.0021 20.0212 68.6562 19.6939C69.2214 19.5928 70.5363 18.9919 76.3611 20.3722C76.6169 20.4852 77.0989 20.6281 77.7593 20.5686C78.384 20.5388 78.9136 20.6102 79.6156 21.0505C80.044 21.2706 80.3117 21.7585 81.7575 20.9315C82.769 20.4436 90.1764 16.6774 93.5143 14.8211V13.8334C90.468 15.5053 82.8999 19.3489 80.5616 20.1283C80.3534 20.2056 80.2463 20.3663 79.6037 19.9557C79.4847 19.8427 79.2467 19.5273 78.1579 19.4321C78.0865 19.4321 76.7597 19.3013 76.0636 19.1942C74.8201 18.9621 71.3574 17.9507 68.3408 18.7479C68.0553 18.8193 66.6452 19.1228 65.9728 20.4436C59.0949 19.0157 50.4856 13.7085 48.4746 12.4233V14.0298C50.4737 15.2197 58.9343 20.1223 65.7884 21.4075C65.7289 21.6455 65.4731 22.0441 64.9197 22.5558C64.7293 22.7521 64.1582 23.3173 64.3605 23.8826C64.4319 24.0135 64.7769 25.1142 66.6987 24.8345C66.8296 24.8226 68.9894 24.5608 70.34 23.1686C70.5125 23.1091 71.1134 23.1686 71.6251 23.3054C71.756 23.3352 73.0947 23.4839 74.4453 24.8345C74.6476 25.0071 75.1831 25.8162 75.7364 26.7325C75.7602 26.8217 75.9625 27.2144 76.5634 27.7321C76.7478 27.976 78.1341 28.9874 79.0623 30.3023C79.455 30.9866 79.9429 31.4982 79.8596 32.5573C79.812 32.9857 79.1991 34.2113 77.9556 34.1518C77.6582 34.0566 77.6046 33.902 77.438 33.7473C77.0632 33.188 76.141 32.1587 75.6709 31.0461C75.5103 30.7307 75.4924 30.3559 75.4508 30.0287C75.3794 29.517 74.8142 29.3206 74.5107 30.0168C74.4393 30.1893 74.1597 30.9687 74.8975 32.0159C74.9689 32.123 75.5579 32.9857 75.9387 33.6164C76.016 33.7294 76.5872 34.372 76.8549 35.4667C76.8668 35.556 76.73 36.0855 76.3373 36.2938C76.141 36.4187 75.3675 36.9482 74.5524 35.8535C74.3025 35.4489 73.5528 34.6635 73.0292 33.7473C72.9757 33.6699 72.7437 33.2653 72.5354 33.0392C72.1487 32.3372 71.1729 32.5811 71.6192 33.6104C71.6965 33.8365 71.8214 34.009 72.5176 34.9194C72.6842 35.0741 73.1899 35.8654 73.6421 36.5258C74.0586 37.0851 73.4457 37.8288 72.7913 37.7693C72.702 37.7455 72.107 37.7693 71.6073 36.9006C71.518 36.7281 70.8516 35.8475 70.2626 34.6338C69.9354 33.9436 68.7633 33.8901 69.2214 34.9432C69.3642 35.3596 70.0187 36.4128 70.9528 37.9954C71.1729 38.394 71.1372 39.2805 69.9711 38.7332C69.8223 38.6856 68.6978 38.2929 68.1385 37.3171C68.1088 37.2457 67.609 36.6091 67.3651 35.2823C67.3353 35.1514 67.133 33.8187 67.0795 32.7894C67.1092 32.4324 66.6392 30.9747 64.8245 31.6946C64.771 31.1472 63.938 29.6657 61.7426 30.6593C61.4689 30.2726 60.8858 29.1183 58.964 30.0049C53.05 29.3266 49.617 27.9224 48.4865 27.4048V28.6959C49.1767 28.9339 50.4797 29.3742 51.0866 29.4872C52.3122 29.9394 56.9114 30.7902 58.1668 31.1294ZM64.8305 33.2475C64.9316 32.4205 66.0026 32.117 66.1573 33.3605C66.2882 33.9377 66.1156 35.9606 67.2282 38.1858C66.7106 38.5011 65.1161 37.5729 64.89 36.2938C64.5032 34.842 64.7174 33.6164 64.8305 33.2475ZM62.5279 31.7481C63.4858 30.7783 63.8845 32.0337 63.6762 32.2896C63.3192 33.8246 63.6167 35.9546 63.7 36.4068C60.4455 35.1871 62.2483 32.0337 62.5279 31.7481ZM60.5169 31.1056C61.1178 31.6113 61.0762 31.9326 60.9393 32.2241C60.2611 32.7834 59.6423 31.8552 59.4757 31.4983C59.2199 30.5582 60.1718 30.7367 60.5169 31.1056Z" fill="#2E3192"/>
    <path d="M54.9832 31.962C53.2816 31.5991 51.5264 31.2183 50.7172 30.9625C50.146 30.8375 49.206 30.5103 48.5039 30.2842V56.4869H48.5456C50.6577 54.5116 53.3113 52.8278 56.3635 51.5486V32.2774C56.0303 32.1881 55.5127 32.0751 54.9832 31.962Z" fill="#D71920"/>
    <path d="M73.0472 40.0419C71.9465 41.1664 70.8636 41.3211 70.108 41.2556C69.2274 41.1545 68.5373 40.7261 68.097 40.4108C67.7102 40.4465 67.3533 40.4465 66.9844 40.4108V48.8951C67.145 48.8654 67.2878 48.8654 67.4247 48.8654V41.1009C67.6091 41.1009 67.7816 41.1009 67.972 41.0771C68.4956 41.446 69.1798 41.8387 70.0723 41.9458C70.8696 42.0112 72.0536 41.8744 73.2495 40.6726C73.9099 40.6071 74.493 40.4108 75.0046 40.0716V48.8951H75.2188L75.433 48.9249V38.9888C74.8202 39.6254 74.017 39.9705 73.0472 40.0419Z" fill="white"/>
    <path d="M84.2093 31.5993C83.6619 32.5156 82.9599 33.1998 82.1091 33.6163C81.7759 34.8241 81.1393 35.4964 80.6216 35.8534C80.1397 36.1985 79.6221 36.3532 79.1937 36.4067C78.6523 37.7038 77.7955 38.269 77.1113 38.4951C76.8257 38.5962 76.5341 38.6438 76.3438 38.6676L76.3556 49.044C76.5044 49.0559 76.6412 49.0975 76.784 49.1094C76.7721 46.7414 76.7721 39.804 76.7721 39.2209C76.9149 39.1912 77.0815 39.1496 77.2541 39.0901C77.9442 38.8699 78.8783 38.263 79.4912 36.9243C79.8779 36.8351 80.3658 36.6745 80.8775 36.3234C81.3891 35.9486 82.0734 35.2227 82.4482 33.9495C83.2217 33.5211 83.9059 32.8666 84.4295 32.0277H84.4473V51.0312L84.8816 51.1919V31.5874C84.6377 31.5874 84.4057 31.5993 84.2093 31.5993Z" fill="white"/>
    <path d="M86.0059 51.6974C88.9034 52.9707 91.4439 54.583 93.4728 56.481H93.5263V30.5044C90.8192 31.4564 87.8622 31.8431 86.0059 31.9621V51.6974Z" fill="#D71920"/>
    <path d="M65.4431 18.6644C66.0679 17.9326 66.9782 17.4209 68.0551 17.1769C70.8634 16.457 73.9275 17.1055 75.5875 17.4387C75.879 17.5042 76.117 17.5577 76.2895 17.5815C76.8905 17.6827 78.0745 17.7898 78.2351 17.7898H78.2589H78.2887C79.4191 17.9088 79.9724 18.236 80.3175 18.5097C82.7986 17.6708 91.0033 13.5654 93.526 12.1613V0H48.4863V10.7334L48.7184 10.894C48.8136 10.9594 58.0476 16.8795 65.4431 18.6644Z" fill="#D71920"/>
    <path d="M64.4849 39.5539C63.9732 39.2088 63.6282 38.8101 63.4021 38.471C61.5993 38.114 60.689 37.1442 60.2546 36.3588C59.9036 35.7758 59.7787 35.1689 59.7013 34.6691C58.5768 34.1396 57.9045 33.4197 57.5059 32.7295V51.0547L57.7201 50.9655C57.7914 50.9417 57.8807 50.9417 57.9342 50.9119V33.9968C58.3388 34.4133 58.791 34.7405 59.3265 35.032C59.4217 35.6449 59.5942 36.216 59.862 36.698C60.332 37.525 61.278 38.5959 63.1581 39.0303C63.4318 39.4408 63.8126 39.8275 64.241 40.1191C64.6396 40.4225 65.1275 40.6367 65.6392 40.8092V49.0437C65.782 49.0199 65.9248 48.9842 66.0735 48.9664V40.2619C65.4845 40.1191 64.9371 39.893 64.4849 39.5539Z" fill="white"/>
    <path d="M64.2423 40.1194C63.8139 39.8278 63.4391 39.4411 63.1594 39.0306C61.2793 38.5962 60.3333 37.5253 59.8633 36.6982C59.5896 36.2163 59.417 35.6392 59.3159 35.0323C58.7923 34.7467 58.3342 34.4195 57.9355 33.9971V50.9122C60.3154 50.0376 62.9036 49.4129 65.6405 49.0499V40.8036C65.1347 40.637 64.6469 40.4228 64.2423 40.1194Z" fill="#2E3192"/>
    <path d="M84.4348 32.0337C83.9112 32.8726 83.227 33.5271 82.4535 33.9555C82.0787 35.2287 81.3944 35.9546 80.8828 36.3294C80.3651 36.6805 79.8832 36.8411 79.4965 36.9303C78.8896 38.269 77.9436 38.87 77.2594 39.096C77.0868 39.1555 76.9143 39.1972 76.7715 39.2269C76.7715 39.81 76.7715 46.7474 76.7834 49.1154C79.4905 49.5081 82.0787 50.1388 84.4288 51.0313L84.4407 51.0372V32.0337H84.4348Z" fill="#2E3192"/>
    <path d="M73.2486 40.6668C72.0468 41.8627 70.8628 41.9995 70.0655 41.94C69.1731 41.8329 68.4948 41.4343 67.9653 41.0713C67.7808 41.0951 67.6142 41.0951 67.4238 41.0951V48.8596C68.5959 48.7465 69.7859 48.6751 70.9937 48.6751C72.3621 48.6751 73.7008 48.7465 75.0038 48.8953V40.0718C74.4921 40.405 73.9031 40.6013 73.2486 40.6668Z" fill="#D71920"/>
    <path d="M130.918 85.6079H141.394V89.9529H138.021V102.094H134.287V89.9529H130.918V85.6079Z" fill="black"/>
    <path d="M116.359 102.094V85.6079H119.829L123.763 94.4336V85.6079H127.354V102.094H123.788L119.94 93.4831V102.094H116.359Z" fill="black"/>
    <path d="M103.271 102.094V85.6079H112.555V89.4884H106.888V91.8109H111.704V95.5592H106.888V98.1461H112.776V102.094H103.271Z" fill="black"/>
    <path d="M86.7383 102.094V85.6079H91.2762L93.2772 95.9093L95.2817 85.6079H99.8018V102.094H96.4037V92.8364L94.5742 102.094H91.9765L90.1256 92.8364V102.094H86.7383Z" fill="black"/>
    <path d="M73.6543 102.094V85.6079H82.9266V89.4884H77.2632V91.8109H82.0691V95.5592H77.2632V98.1461H83.1517V102.094H73.6543Z" fill="black"/>
    <path d="M70.0022 91.9255H66.4612C66.404 91.1001 66.1968 90.4569 65.8645 89.996C65.5214 89.5315 65.0855 89.3135 64.5531 89.3135C63.8814 89.3135 63.3454 89.6851 62.9309 90.4248C62.5128 91.1715 62.3092 92.3757 62.3092 94.0444C62.3092 95.1735 62.3914 96.0489 62.5843 96.6492C62.763 97.2459 63.0095 97.6961 63.3168 97.9856C63.6277 98.2786 64.0279 98.4358 64.4959 98.4358C65.0784 98.4358 65.5286 98.1928 65.8716 97.739C66.2146 97.2852 66.4219 96.5992 66.4898 95.7023H70.0701C70.0022 96.7207 69.8664 97.5746 69.6592 98.2821C69.4519 98.9789 69.1089 99.6792 68.6372 100.372C68.1477 101.062 67.5832 101.609 66.9257 101.991C66.2575 102.37 65.4929 102.566 64.6174 102.566C63.742 102.566 62.9452 102.377 62.202 102.002C61.4659 101.627 60.8549 101.105 60.3582 100.426C59.8508 99.7364 59.4578 98.9467 59.1684 98.0606C58.7825 96.8314 58.5859 95.4558 58.5859 93.9515C58.5859 92.6651 58.7289 91.4753 59.0147 90.3712C59.3041 89.2635 59.6972 88.3345 60.2046 87.5805C60.7012 86.8409 61.2658 86.2692 61.8732 85.8976C62.6522 85.4188 63.5205 85.1758 64.4602 85.1758C65.2928 85.1758 66.0681 85.3509 66.7863 85.7118C67.5153 86.0762 68.1048 86.5872 68.5765 87.2732C69.0374 87.9593 69.4019 88.7454 69.6377 89.6387C69.8235 90.2711 69.945 91.0429 70.0022 91.9255Z" fill="black"/>
    <path d="M38.9258 94.8946H42.2345V95.7558C42.2345 96.5955 42.2667 97.1779 42.3381 97.5102C42.3953 97.8354 42.5097 98.0819 42.6705 98.2463C42.817 98.3999 43.0171 98.4785 43.2207 98.4785C43.503 98.4785 43.7245 98.3356 43.9032 98.0533C44.0783 97.7603 44.1783 97.3172 44.1783 96.6955V85.5723H47.9051V95.9773C47.9051 98.1176 47.5157 99.7398 46.7403 100.844C45.9649 101.941 44.8537 102.509 43.4172 102.509C42.624 102.509 41.9808 102.37 41.4877 102.116C41.1268 101.934 40.7767 101.648 40.4158 101.273C40.062 100.894 39.7798 100.472 39.5404 99.9721C39.3188 99.4754 39.1652 98.8716 39.0723 98.1534C38.9794 97.4316 38.9258 96.3453 38.9258 94.8946Z" fill="black"/>
    <path d="M16.2656 102.062V85.5723H19.8995V91.0213L23.2762 85.5723H27.6819L23.5013 91.7788L28.0928 102.062H23.6299L20.8929 95.4985L19.8995 96.917V102.062H16.2656Z" fill="black"/>
    <path d="M35.3169 85.5723H31.5723V102.062H35.3169V85.5723Z" fill="black"/>
    <path d="M7.82534 96.5276H5.44562L6.61761 90.5282L7.82534 96.5276ZM4.32007 102.062L4.74885 99.9006H8.4828L8.91158 102.062H12.6348L8.55069 85.5723H4.74885L0.671875 102.062H4.32007Z" fill="black"/>
    <path d="M5.32042 115.044C5.32042 114.693 5.2168 114.386 4.99526 114.147C4.78087 113.897 4.49859 113.771 4.15557 113.771C3.79468 113.771 3.5124 113.9 3.30516 114.147C3.10506 114.39 2.99429 114.697 2.99429 115.054C2.99429 115.429 3.10149 115.74 3.29801 115.962C3.5124 116.201 3.8054 116.333 4.15914 116.333C4.52003 116.333 4.80588 116.201 5.02027 115.955C5.22752 115.722 5.32042 115.415 5.32042 115.044ZM0.69318 117.566C0.778935 116.891 0.821811 116.051 0.821811 114.154C0.821811 112.342 0.757494 110.766 0.618141 109.427L0.607422 109.359C0.607422 109.291 0.682459 109.248 0.814666 109.241C0.911141 109.241 1.27203 109.205 1.91877 109.148C2.36542 109.105 2.73703 109.083 3.0193 109.083C3.10506 109.083 3.14079 109.155 3.14079 109.287C3.14079 109.452 3.13007 109.662 3.10863 109.937C3.08719 110.273 3.06933 110.488 3.06576 110.591C3.03717 111.009 3.03002 111.581 3.03002 112.306C3.03002 112.432 3.06576 112.496 3.13007 112.496C3.16581 112.496 3.19082 112.478 3.22655 112.446C3.60173 112.049 4.10912 111.846 4.7237 111.846C5.66344 111.846 6.37808 112.164 6.9069 112.785C7.39285 113.378 7.63226 114.147 7.63226 115.097C7.63226 115.99 7.37499 116.737 6.87117 117.334C6.3209 117.97 5.60985 118.295 4.738 118.295H2.87995C2.81206 118.324 2.73345 118.295 1.53287 118.252" fill="#034EA2"/>
    <path d="M15.6653 115.101C15.6653 114.762 15.5617 114.469 15.358 114.208C15.1436 113.947 14.8757 113.818 14.5398 113.818C14.2075 113.818 13.9323 113.947 13.7108 114.215C13.5036 114.469 13.4071 114.762 13.4071 115.101C13.4071 115.448 13.5036 115.751 13.7108 115.994C13.9323 116.262 14.2075 116.398 14.5398 116.398C14.8792 116.398 15.1508 116.262 15.3652 115.994C15.5653 115.751 15.6653 115.448 15.6653 115.101ZM17.7413 115.097C17.7413 116.069 17.4483 116.855 16.8516 117.463C16.262 118.074 15.4867 118.37 14.5362 118.37C13.6036 118.37 12.8389 118.07 12.2387 117.477C11.6419 116.873 11.3418 116.116 11.3418 115.176C11.3418 114.19 11.6205 113.393 12.2065 112.778C12.7746 112.16 13.5536 111.853 14.5362 111.853C15.4867 111.853 16.262 112.15 16.8516 112.757C17.4483 113.354 17.7413 114.129 17.7413 115.097Z" fill="#034EA2"/>
    <path d="M28.0055 118.056C28.0055 118.167 27.9519 118.238 27.834 118.252C27.7125 118.27 27.4052 118.281 26.9121 118.281C26.3797 118.281 26.0474 118.274 25.9152 118.245C25.7973 118.22 25.7294 118.124 25.7294 117.981C25.7294 117.784 25.7294 117.488 25.7472 117.08C25.7615 116.676 25.7615 116.38 25.7615 116.166C25.7615 116.019 25.7615 115.78 25.7544 115.469C25.7472 115.151 25.7472 114.918 25.7472 114.765C25.7472 114.182 25.49 113.893 24.9826 113.893C24.8218 113.893 24.6288 113.961 24.4109 114.104C24.1679 114.268 24.05 114.422 24.05 114.579V118.024C24.05 118.163 23.9893 118.242 23.8642 118.256C23.7105 118.274 23.4175 118.284 22.9566 118.284C22.4599 118.284 22.1312 118.277 21.9954 118.249C21.8561 118.224 21.7882 118.156 21.7882 118.038C21.7882 117.709 21.7882 117.209 21.7989 116.537C21.8061 115.869 21.8061 115.372 21.8061 115.036C21.8061 113.982 21.7203 113.143 21.5488 112.539C21.5416 112.51 21.5273 112.471 21.5273 112.446C21.5273 112.378 21.5631 112.335 21.6345 112.299C21.8918 112.285 22.2527 112.235 22.6958 112.164C23.3639 112.035 23.7427 111.967 23.8285 111.967C23.8785 111.967 23.9106 112.114 23.95 112.392C23.975 112.678 24.0071 112.832 24.05 112.832C24.0143 112.832 24.2394 112.675 24.736 112.382C25.2434 112.092 25.6794 111.938 26.0581 111.938C26.5977 111.938 27.0372 112.067 27.3945 112.321C27.7982 112.614 28.0019 113.014 28.0019 113.546V115.58C28.0019 115.851 28.0091 116.266 28.0091 116.812V118.056H28.0055Z" fill="#034EA2"/>
    <path d="M36.6712 115.054C36.6712 114.722 36.5497 114.418 36.3175 114.165C36.0888 113.925 35.8065 113.789 35.4813 113.789C35.1383 113.789 34.856 113.929 34.6559 114.165C34.4559 114.422 34.3522 114.733 34.3522 115.079C34.3522 115.43 34.4559 115.726 34.6559 115.966C34.8668 116.219 35.1383 116.344 35.4813 116.344C35.8244 116.344 36.0959 116.219 36.3282 115.966C36.5533 115.705 36.6712 115.397 36.6712 115.054ZM38.1362 118.295L34.9489 118.31C34.0592 118.31 33.3482 118.002 32.8158 117.366C32.3048 116.777 32.0547 116.016 32.0547 115.101C32.0547 114.179 32.3048 113.418 32.8086 112.818C33.341 112.174 34.0628 111.867 34.9668 111.867C35.6028 111.867 36.0995 112.071 36.4568 112.485C36.5104 112.553 36.5497 112.585 36.5747 112.585C36.6212 112.585 36.6355 112.535 36.6355 112.425C36.6355 112.092 36.6283 111.606 36.6105 110.956C36.5926 110.302 36.5855 109.816 36.5855 109.495C36.5855 109.373 36.6212 109.298 36.6855 109.28C36.9571 109.273 37.3215 109.244 37.7932 109.212C38.64 109.109 39.0188 109.059 38.9187 109.059C39.0116 109.059 39.0617 109.109 39.0617 109.212C39.0617 109.126 39.0438 109.262 39.0116 109.641C38.958 110.106 38.9259 110.713 38.908 111.442C38.8723 112.282 38.8544 113.221 38.8544 114.283C38.8544 116.03 38.9187 116.773 39.0116 117.516" fill="#034EA2"/>
    <path d="M45.3902 110.581C45.3902 111.317 44.9757 111.695 44.1574 111.695C43.7965 111.695 43.5071 111.603 43.2784 111.402C43.0247 111.206 42.8997 110.924 42.8997 110.581C42.8997 110.245 43.0247 109.98 43.2856 109.766C43.5321 109.569 43.818 109.477 44.1574 109.477C44.4862 109.477 44.7756 109.569 45.015 109.777C45.2687 109.98 45.3902 110.252 45.3902 110.581ZM45.2401 115.312C45.2401 115.63 45.2437 116.083 45.2615 116.698C45.2794 117.312 45.2865 117.777 45.2865 118.081C45.2865 118.163 45.2294 118.22 45.1258 118.242C44.9793 118.267 44.6541 118.277 44.1574 118.277C43.6429 118.277 43.3177 118.27 43.1748 118.242C43.0783 118.224 43.0247 118.199 42.989 118.156V117.966C42.989 117.673 42.989 117.23 43.0104 116.648C43.0247 116.055 43.0247 115.615 43.0247 115.308C43.0247 114.104 42.9854 113.15 42.8854 112.435C42.8782 112.367 42.8711 112.324 42.8711 112.303C42.8711 112.224 42.9318 112.171 43.0426 112.171C43.1641 112.171 43.3427 112.189 43.5893 112.217C43.8323 112.239 44.0217 112.26 44.1396 112.26C44.2575 112.26 44.4504 112.239 44.6863 112.228C44.9364 112.199 45.115 112.189 45.2437 112.189C45.3473 112.189 45.3866 112.231 45.3866 112.31C45.3866 112.335 45.3866 112.374 45.3794 112.435C45.283 113.261 45.2401 114.232 45.2401 115.312Z" fill="#034EA2"/>
    <path d="M55.8102 118.056C55.8102 118.167 55.753 118.238 55.6387 118.252C55.5172 118.27 55.2099 118.281 54.7132 118.281C54.1808 118.281 53.8485 118.274 53.7199 118.245C53.5984 118.22 53.5305 118.124 53.5305 117.981C53.5305 117.784 53.5305 117.488 53.5484 117.08C53.5662 116.676 53.5662 116.38 53.5662 116.166C53.5662 116.019 53.5662 115.78 53.5555 115.469C53.5484 115.151 53.5484 114.918 53.5484 114.765C53.5484 114.182 53.2911 113.893 52.7944 113.893C52.6229 113.893 52.4371 113.961 52.2084 114.104C51.9726 114.268 51.8511 114.422 51.8511 114.579V118.024C51.8511 118.163 51.7904 118.242 51.6617 118.256C51.5081 118.274 51.2079 118.284 50.7506 118.284C50.2539 118.284 49.9395 118.277 49.7858 118.249C49.6572 118.224 49.5857 118.156 49.5857 118.038C49.5857 117.709 49.5857 117.209 49.5964 116.537C49.6036 115.869 49.6036 115.372 49.6036 115.036C49.6036 113.982 49.5178 113.143 49.3463 112.539C49.3356 112.51 49.332 112.471 49.332 112.446C49.332 112.378 49.3678 112.335 49.4249 112.299C49.6893 112.285 50.0538 112.235 50.4969 112.164C51.1651 112.035 51.551 111.967 51.6296 111.967C51.6796 111.967 51.7225 112.114 51.7403 112.392C51.7761 112.678 51.8082 112.832 51.8511 112.832C51.8082 112.832 52.0405 112.675 52.5372 112.382C53.0445 112.092 53.4769 111.938 53.8556 111.938C54.388 111.938 54.8418 112.067 55.1956 112.321C55.6065 112.614 55.803 113.014 55.803 113.546V115.58C55.803 115.851 55.803 116.266 55.8102 116.812V118.056Z" fill="#034EA2"/>
    <path d="M64.1774 114.822C64.1774 114.515 64.0702 114.25 63.8666 114.029C63.6593 113.786 63.4056 113.682 63.0948 113.682C62.7875 113.682 62.5231 113.804 62.3158 114.029C62.1086 114.257 62.0085 114.522 62.0085 114.829C62.0085 115.14 62.1157 115.404 62.3265 115.637C62.5302 115.858 62.7946 115.962 63.0948 115.962C63.4056 115.962 63.6593 115.858 63.8666 115.63C64.0702 115.397 64.1774 115.129 64.1774 114.822ZM66.3678 116.587C66.3678 117.795 66.1105 118.663 65.6139 119.185C65.085 119.728 64.2096 119.999 62.9911 119.999C62.641 119.999 62.1515 119.939 61.5404 119.824C60.7508 119.681 60.3577 119.51 60.3577 119.321C60.3577 119.246 60.4542 118.824 60.6221 118.07C60.6579 117.952 60.7079 117.891 60.7686 117.891C60.7829 117.902 60.8115 117.902 60.8365 117.916C61.4868 118.238 62.0871 118.399 62.6445 118.399C62.9483 118.399 63.2484 118.309 63.5557 118.163C63.9202 117.974 64.1024 117.752 64.1024 117.48V117.059C63.6772 117.459 63.1162 117.659 62.4409 117.659C61.6405 117.659 60.9795 117.384 60.4756 116.802C59.9683 116.255 59.7324 115.576 59.7324 114.761C59.7324 113.957 59.9718 113.286 60.4363 112.75C60.9402 112.192 61.5833 111.917 62.3873 111.917C63.0233 111.917 63.5128 112.149 63.8451 112.61C63.9094 112.703 63.9631 112.753 63.9952 112.753C64.0345 112.753 64.0559 112.667 64.0559 112.524C64.0559 112.171 64.0845 111.999 64.1774 111.999C64.2453 111.999 64.6169 112.038 65.2815 112.106C65.9461 112.174 66.2928 112.228 66.3178 112.231C66.3964 112.26 66.4285 112.31 66.4285 112.396C66.4285 112.685 66.4107 113.125 66.3928 113.707C66.3678 114.29 66.3606 114.729 66.3606 115.019C66.3606 115.19 66.3606 115.458 66.3678 115.805V116.587Z" fill="#034EA2"/>
    <path d="M84.0879 114.129C84.0879 114.233 84.0343 114.279 83.9235 114.279C83.459 114.279 83.1017 114.272 82.8373 114.25C82.8444 114.569 82.8587 115.012 82.8802 115.587C82.8802 115.826 82.8945 116.237 82.923 116.837C82.9588 117.384 82.9731 117.795 82.9731 118.102C82.9731 118.188 82.9159 118.242 82.798 118.256C82.6586 118.274 82.2978 118.281 81.7332 118.281C81.2544 118.281 80.9435 118.263 80.797 118.238C80.6505 118.213 80.5826 118.135 80.5826 117.974V114.476C80.5826 114.347 80.4969 114.29 80.3254 114.29C80.2932 114.29 80.2468 114.297 80.1753 114.297H80.0324C79.9145 114.297 79.8537 114.261 79.8537 114.197C79.8108 113.825 79.793 113.286 79.793 112.571C79.793 112.41 79.8716 112.317 80.0324 112.289C80.1753 112.275 80.3254 112.257 80.4719 112.257C80.4469 111.914 80.4361 111.646 80.4361 111.449C80.4361 110.731 80.5826 110.199 80.8649 109.863C81.4295 109.202 82.3263 108.876 83.5805 108.876C83.6627 108.876 83.7199 108.905 83.7342 108.948C83.7699 109.144 83.8199 109.423 83.8771 109.802C83.8878 109.838 83.9128 109.959 83.9736 110.163C84.0057 110.327 84.0236 110.445 84.0236 110.524C84.0236 110.634 83.8699 110.702 83.5769 110.731C83.2339 110.777 83.0195 110.831 82.9409 110.92C82.7944 111.074 82.7265 111.374 82.7265 111.81C82.7265 111.949 82.7444 112.085 82.7587 112.207C82.8802 112.207 83.0624 112.207 83.3161 112.185C83.5662 112.185 83.7449 112.178 83.8735 112.178C84.0021 112.178 84.0736 112.228 84.0736 112.325V113.214C84.0879 113.632 84.0879 113.936 84.0879 114.129Z" fill="#034EA2"/>
    <path d="M92.7483 115.101C92.7483 114.762 92.634 114.469 92.4303 114.208C92.223 113.947 91.9586 113.818 91.6156 113.818C91.2905 113.818 91.0046 113.947 90.7938 114.215C90.5865 114.469 90.4829 114.762 90.4829 115.101C90.4829 115.448 90.5865 115.751 90.7938 115.994C91.0046 116.262 91.2905 116.398 91.6156 116.398C91.9586 116.398 92.223 116.262 92.441 115.994C92.6411 115.751 92.7483 115.448 92.7483 115.101ZM94.8136 115.097C94.8136 116.069 94.517 116.855 93.931 117.463C93.3379 118.074 92.5696 118.37 91.612 118.37C90.6794 118.37 89.9219 118.07 89.3216 117.477C88.7213 116.873 88.4141 116.116 88.4141 115.176C88.4141 114.19 88.7071 113.393 89.2788 112.778C89.8505 112.16 90.6258 111.853 91.612 111.853C92.5661 111.853 93.3343 112.15 93.931 112.757C94.5134 113.354 94.8136 114.129 94.8136 115.097Z" fill="#034EA2"/>
    <path d="M102.771 114.258C102.771 114.419 102.689 114.508 102.503 114.508C102.425 114.508 102.31 114.494 102.15 114.494C101.996 114.479 101.885 114.472 101.807 114.472C101.456 114.472 101.213 114.526 101.085 114.637C100.96 114.747 100.899 114.976 100.899 115.312C100.899 115.501 100.899 115.776 100.906 116.144C100.906 116.512 100.913 116.788 100.913 116.973C100.913 117.091 100.92 117.281 100.938 117.524C100.949 117.774 100.96 117.952 100.96 118.07C100.96 118.174 100.892 118.235 100.756 118.242C100.556 118.26 100.238 118.267 99.8234 118.267C99.4268 118.267 99.1016 118.256 98.8622 118.235C98.7229 118.217 98.6514 118.149 98.6514 118.017C98.6514 117.674 98.6586 117.17 98.6586 116.491V114.965C98.6586 113.975 98.5764 113.154 98.387 112.5C98.3691 112.46 98.3691 112.428 98.3691 112.403C98.3691 112.335 98.4049 112.289 98.4656 112.275C98.7014 112.246 99.048 112.207 99.5018 112.135C100.174 112 100.513 111.932 100.542 111.932C100.61 111.932 100.66 112.064 100.677 112.339C100.695 112.614 100.738 112.75 100.777 112.75C100.727 112.75 100.899 112.632 101.303 112.41C101.71 112.185 102.107 112.064 102.475 112.064C102.714 112.064 102.836 112.117 102.836 112.225C102.836 112.339 102.828 112.521 102.803 112.746C102.771 112.996 102.768 113.164 102.761 113.268C102.761 113.389 102.761 113.55 102.768 113.758C102.771 114.008 102.771 114.183 102.771 114.258Z" fill="#034EA2"/>
    <path d="M110.704 114.368C110.704 114.108 110.611 113.882 110.418 113.682C110.233 113.486 110.011 113.389 109.75 113.389C109.486 113.389 109.272 113.493 109.089 113.711C108.932 113.922 108.853 114.158 108.853 114.436C108.853 114.554 108.911 114.604 109.032 114.604C109.343 114.604 109.829 114.565 110.49 114.465C110.633 114.454 110.704 114.418 110.704 114.368ZM112.905 114.761C112.905 115.19 112.77 115.43 112.494 115.501C112.452 115.501 112.016 115.555 111.19 115.619C110.694 115.669 109.947 115.74 108.964 115.805C109.032 116.101 109.204 116.312 109.493 116.459C109.74 116.584 110.025 116.652 110.336 116.652C110.704 116.652 111.076 116.544 111.465 116.344C111.623 116.237 111.783 116.137 111.944 116.03C112.034 116.083 112.18 116.298 112.387 116.68C112.598 117.08 112.698 117.327 112.698 117.438C112.698 117.463 112.666 117.506 112.616 117.588C112.101 118.142 111.294 118.417 110.204 118.417C109.204 118.417 108.393 118.124 107.781 117.534C107.138 116.927 106.82 116.137 106.82 115.133C106.82 114.158 107.11 113.35 107.674 112.728C108.257 112.082 109.032 111.767 109.99 111.767C110.808 111.767 111.49 112.06 112.059 112.65C112.63 113.236 112.905 113.943 112.905 114.761Z" fill="#034EA2"/>
    <path d="M123.12 113.815C123.12 114.54 123.105 114.965 123.052 115.097C122.959 115.398 122.655 115.912 122.176 116.634C121.758 117.249 121.397 117.738 121.101 118.092C120.987 118.22 120.654 118.285 120.097 118.285C119.618 118.285 119.3 118.267 119.154 118.235C119.068 118.217 118.993 118.163 118.939 118.102C118.685 117.827 118.321 117.349 117.849 116.663C117.346 115.923 117.045 115.426 116.949 115.151C116.845 114.862 116.799 114.415 116.799 113.836V113.082C116.799 112.753 116.806 112.5 116.806 112.328C116.806 112.218 116.885 112.167 117.031 112.167C117.242 112.167 117.571 112.175 118.007 112.175C118.435 112.192 118.753 112.196 118.975 112.196C119.079 112.196 119.114 112.271 119.114 112.396C119.114 112.525 119.114 112.7 119.096 112.936C119.079 113.175 119.071 113.354 119.071 113.486C119.071 113.922 119.086 114.279 119.107 114.565C119.114 114.712 119.243 114.983 119.482 115.376C119.722 115.801 119.893 116.012 120.004 116.012C120.104 116.012 120.279 115.805 120.508 115.394C120.722 115.001 120.851 114.744 120.869 114.604C120.894 114.297 120.919 113.94 120.919 113.507C120.919 113.39 120.904 113.2 120.876 112.95C120.851 112.7 120.844 112.521 120.844 112.403C120.844 112.275 120.887 112.207 120.972 112.207C121.072 112.207 121.226 112.207 121.422 112.214C121.626 112.214 121.783 112.225 121.887 112.225C121.98 112.225 122.144 112.207 122.348 112.185C122.544 112.167 122.698 112.167 122.798 112.167C122.909 112.167 122.98 112.221 123.016 112.332C123.088 112.575 123.12 113.068 123.12 113.815Z" fill="#034EA2"/>
    <path d="M131.024 114.368C131.024 114.108 130.924 113.882 130.741 113.682C130.559 113.486 130.338 113.389 130.084 113.389C129.816 113.389 129.598 113.493 129.419 113.711C129.259 113.922 129.176 114.158 129.176 114.436C129.176 114.554 129.234 114.604 129.355 114.604C129.673 114.604 130.163 114.565 130.824 114.465C130.952 114.454 131.024 114.418 131.024 114.368ZM133.232 114.761C133.232 115.19 133.096 115.43 132.825 115.501C132.771 115.501 132.335 115.555 131.513 115.619C131.017 115.669 130.277 115.74 129.291 115.805C129.341 116.101 129.527 116.312 129.823 116.459C130.063 116.584 130.345 116.652 130.652 116.652C131.024 116.652 131.406 116.544 131.785 116.344C131.938 116.237 132.103 116.137 132.256 116.03C132.353 116.083 132.51 116.298 132.71 116.68C132.928 117.08 133.032 117.327 133.032 117.438C133.032 117.463 132.996 117.506 132.935 117.588C132.414 118.142 131.624 118.417 130.538 118.417C129.527 118.417 128.723 118.124 128.104 117.534C127.468 116.927 127.15 116.137 127.15 115.133C127.15 114.158 127.429 113.35 127.99 112.728C128.583 112.082 129.351 111.767 130.32 111.767C131.124 111.767 131.81 112.06 132.385 112.65C132.942 113.236 133.232 113.943 133.232 114.761Z" fill="#034EA2"/>
    <path d="M141.262 114.258C141.262 114.419 141.169 114.508 140.99 114.508C140.915 114.508 140.793 114.494 140.64 114.494C140.486 114.479 140.372 114.472 140.297 114.472C139.947 114.472 139.704 114.526 139.575 114.637C139.45 114.747 139.386 114.976 139.386 115.312C139.386 115.501 139.386 115.776 139.393 116.144V116.973C139.393 117.091 139.411 117.281 139.418 117.524C139.436 117.774 139.453 117.952 139.453 118.07C139.453 118.174 139.386 118.235 139.239 118.242C139.043 118.26 138.725 118.267 138.307 118.267C137.903 118.267 137.595 118.256 137.345 118.235C137.213 118.217 137.142 118.149 137.142 118.017V116.491C137.142 115.816 137.16 115.312 137.16 114.965C137.16 113.975 137.056 113.154 136.877 112.5C136.87 112.46 136.859 112.428 136.859 112.403C136.859 112.335 136.899 112.289 136.959 112.275C137.199 112.246 137.542 112.207 137.985 112.135C138.657 112 139.007 111.932 139.032 111.932C139.1 111.932 139.15 112.064 139.168 112.339C139.182 112.614 139.218 112.75 139.271 112.75C139.221 112.75 139.389 112.632 139.793 112.41C140.2 112.185 140.597 112.064 140.969 112.064C141.208 112.064 141.329 112.117 141.329 112.225C141.329 112.339 141.315 112.521 141.297 112.746C141.269 112.996 141.262 113.164 141.254 113.268C141.254 113.389 141.254 113.55 141.262 113.758C141.254 114.008 141.262 114.183 141.262 114.258Z" fill="#034EA2"/>
    <path d="M39.2328 68.6391C39.2328 68.7677 39.2257 68.8785 39.2185 68.9749C39.2007 69.0678 39.1828 69.1357 39.1649 69.1858C39.1399 69.2465 39.1078 69.2858 39.0792 69.3144C39.0435 69.343 39.0113 69.3537 38.9756 69.3537H36.1313V71.687H38.7933C38.8398 71.687 38.8719 71.6941 38.9005 71.7191C38.9327 71.737 38.9613 71.7799 38.9827 71.8299C39.0113 71.8942 39.0256 71.9585 39.0435 72.0407C39.0542 72.1372 39.0613 72.248 39.0613 72.3873C39.0613 72.5124 39.0506 72.6231 39.0435 72.7125C39.0256 72.8054 39.0113 72.884 38.9827 72.934C38.9577 72.9912 38.9327 73.0376 38.9005 73.0591C38.8719 73.0841 38.8398 73.0948 38.7933 73.0948H36.1313V76.3249C36.1313 76.3714 36.1206 76.4178 36.0956 76.4607C36.0634 76.4964 36.0206 76.5215 35.942 76.5465C35.8705 76.5715 35.7847 76.5893 35.674 76.6072C35.5632 76.6179 35.4203 76.6251 35.238 76.6251C35.0737 76.6251 34.9272 76.6179 34.8164 76.6072C34.7056 76.5893 34.6127 76.5715 34.5413 76.5465C34.4841 76.5215 34.4305 76.4929 34.3983 76.4607C34.3733 76.4178 34.3555 76.375 34.3555 76.3249V68.4533C34.3555 68.2603 34.4091 68.1138 34.5091 68.0245C34.6092 67.9387 34.7306 67.8994 34.8771 67.8994H38.972C39.0077 67.8994 39.0399 67.9066 39.0756 67.9387C39.1042 67.9566 39.1364 67.9995 39.1614 68.0566C39.1792 68.1102 39.1971 68.1888 39.215 68.2817C39.2257 68.3889 39.2328 68.5033 39.2328 68.6391Z" fill="#6D6E71"/>
    <path d="M45.4398 75.8569C45.4398 75.9927 45.4326 76.0999 45.4219 76.2C45.4147 76.2857 45.3897 76.3643 45.3719 76.4215C45.354 76.493 45.3218 76.5251 45.2897 76.5609C45.2539 76.5859 45.2182 76.5966 45.1682 76.5966H41.1913C41.0448 76.5966 40.9233 76.5537 40.8197 76.468C40.716 76.3822 40.666 76.2393 40.666 76.0427V68.1532C40.666 68.1103 40.6839 68.0746 40.7125 68.0425C40.7446 67.9996 40.7982 67.9746 40.8554 67.9531C40.9269 67.9245 41.0198 67.9067 41.1305 67.8995C41.2413 67.8816 41.3878 67.8745 41.5593 67.8745C41.7308 67.8745 41.8773 67.8816 41.9845 67.8995C42.0953 67.9067 42.1846 67.9245 42.2489 67.9531C42.3204 67.9746 42.3704 68.0031 42.3918 68.0425C42.4204 68.0746 42.4383 68.1103 42.4383 68.1532V75.1387H45.161C45.2111 75.1387 45.2468 75.1566 45.2825 75.1816C45.3147 75.2102 45.3469 75.2424 45.3647 75.3031C45.3826 75.3638 45.4112 75.4317 45.4147 75.5175C45.429 75.614 45.4398 75.714 45.4398 75.8569Z" fill="#6D6E71"/>
    <path d="M48.781 73.2989V76.3504C48.781 76.4075 48.7667 76.4361 48.7381 76.4719C48.7131 76.5076 48.6631 76.5397 48.5916 76.5576C48.5237 76.5826 48.4416 76.6005 48.3165 76.6184C48.2057 76.6291 48.0592 76.6362 47.8949 76.6362C47.7198 76.6362 47.5769 76.6291 47.4661 76.6184C47.3553 76.6005 47.2588 76.5826 47.191 76.5576C47.1231 76.5397 47.0695 76.504 47.048 76.4719C47.0194 76.4361 47.0123 76.4075 47.0123 76.3504V73.2989L44.629 68.5716C44.5432 68.4072 44.4896 68.2822 44.4646 68.1857C44.4432 68.0892 44.4575 68.0213 44.5111 67.9677C44.5611 67.9248 44.654 67.8998 44.7898 67.882C44.9291 67.8748 45.1257 67.8677 45.3615 67.8677C45.5687 67.8677 45.7402 67.8748 45.8617 67.882C45.9832 67.8927 46.0868 67.9106 46.1512 67.932C46.2226 67.9499 46.2762 67.9892 46.3084 68.0356C46.3441 68.0678 46.3763 68.1214 46.4084 68.1928L47.3696 70.3189C47.4625 70.5261 47.5554 70.7441 47.6483 70.9692C47.7341 71.2014 47.8305 71.4301 47.9306 71.6874H47.9413C48.0271 71.4444 48.1093 71.205 48.2057 70.9835C48.2915 70.7548 48.3808 70.5404 48.463 70.3332L49.4099 68.2107C49.4385 68.1428 49.4635 68.0928 49.4956 68.0356C49.5314 68.0035 49.5814 67.9677 49.6386 67.932C49.7065 67.9106 49.7994 67.8927 49.9244 67.882C50.0352 67.8748 50.1888 67.8677 50.3854 67.8677C50.6391 67.8677 50.8392 67.8748 50.9785 67.882C51.1143 67.8998 51.2179 67.9248 51.2715 67.9677C51.3251 68.0213 51.3287 68.0892 51.3072 68.1928C51.2822 68.2822 51.2215 68.4072 51.1429 68.5716L48.781 73.2989Z" fill="#6D6E71"/>
    <path d="M58.6464 69.561H58.6357L57.4101 73.2557H59.872L58.6464 69.561ZM62.6304 75.9391C62.684 76.0928 62.7162 76.2214 62.7341 76.3179C62.7519 76.4179 62.7341 76.4894 62.684 76.5287C62.6304 76.5752 62.5447 76.6145 62.4196 76.618C62.2874 76.6288 62.1159 76.6359 61.9051 76.6359C61.6728 76.6359 61.5013 76.6359 61.362 76.6288C61.2405 76.618 61.1404 76.6145 61.0725 76.5859C61.0118 76.5644 60.9618 76.5359 60.9403 76.5073C60.9118 76.4608 60.8868 76.4215 60.8689 76.3643L60.2865 74.6206H57.0313L56.4846 76.3215C56.4596 76.3786 56.4346 76.4322 56.406 76.4715C56.381 76.518 56.3274 76.5501 56.2702 76.5787C56.2023 76.5966 56.1166 76.6145 55.9951 76.6323C55.8736 76.6323 55.7128 76.6395 55.527 76.6395C55.3198 76.6395 55.1661 76.6323 55.0446 76.6216C54.9267 76.6037 54.8517 76.5787 54.8088 76.5251C54.7552 76.4644 54.7409 76.3929 54.7552 76.3C54.7766 76.2107 54.8088 76.0821 54.8588 75.9248L57.5315 68.2211C57.5637 68.1461 57.5959 68.0853 57.628 68.0389C57.6602 67.9924 57.7209 67.9531 57.7995 67.9317C57.8781 67.9067 57.9889 67.8888 58.1247 67.8888C58.2712 67.8817 58.4498 67.8745 58.6714 67.8745C58.9394 67.8745 59.1538 67.8817 59.3074 67.8888C59.4611 67.8888 59.5897 67.9067 59.6754 67.9317C59.7612 67.9567 59.8219 67.9924 59.8648 68.0389C59.897 68.096 59.9327 68.1639 59.9577 68.2461L62.6304 75.9391Z" fill="#6D6E71"/>
    <path d="M68.9896 73.9847C68.9896 74.4492 68.911 74.8387 68.7395 75.196C68.5644 75.539 68.3357 75.8213 68.0463 76.0535C67.7533 76.2822 67.4139 76.4537 67.028 76.5752C66.6456 76.6931 66.224 76.7431 65.7881 76.7431C65.4772 76.7431 65.2021 76.7289 64.9448 76.6753C64.6875 76.6252 64.4589 76.5645 64.2623 76.493C64.073 76.4251 63.9015 76.3465 63.7728 76.2786C63.6442 76.2 63.5406 76.1321 63.487 76.075C63.4298 76.0249 63.3833 75.9392 63.3619 75.8249C63.3333 75.7105 63.3262 75.5604 63.3262 75.3532C63.3262 75.2174 63.3262 75.0959 63.3333 74.9995C63.3512 74.9101 63.3619 74.8315 63.3762 74.7708C63.4012 74.7207 63.4298 74.6671 63.462 74.6493C63.4977 74.6207 63.5298 74.6171 63.5834 74.6171C63.6442 74.6171 63.7264 74.6493 63.8479 74.7172C63.9586 74.7958 64.1051 74.8744 64.2874 74.9709C64.4624 75.053 64.6733 75.1388 64.9305 75.2174C65.1664 75.2853 65.4594 75.3175 65.7881 75.3175C66.0025 75.3175 66.1954 75.3032 66.3705 75.2496C66.5349 75.1995 66.6778 75.1209 66.7993 75.0245C66.9208 74.9316 67.003 74.8208 67.0744 74.6743C67.1352 74.5385 67.1602 74.3813 67.1602 74.2134C67.1602 74.0133 67.1102 73.8417 67.003 73.7095C66.8922 73.5666 66.7564 73.4416 66.5885 73.3272C66.4134 73.2272 66.2169 73.1235 65.9953 73.0163C65.7809 72.9234 65.5487 72.8198 65.32 72.7126C65.0877 72.609 64.8626 72.4875 64.6447 72.3553C64.4303 72.216 64.2338 72.0516 64.0622 71.8622C63.8872 71.6657 63.7514 71.4406 63.6406 71.1869C63.5298 70.9332 63.4762 70.6188 63.4762 70.2543C63.4762 69.8398 63.5549 69.4718 63.7121 69.1573C63.8622 68.8393 64.0694 68.5821 64.3374 68.3748C64.5946 68.1604 64.9019 68.0104 65.2628 67.9067C65.6201 67.8031 65.9918 67.7495 66.3919 67.7495C66.5992 67.7495 66.8029 67.7709 67.0065 67.7924C67.2173 67.8281 67.4032 67.8746 67.5854 67.9282C67.764 67.9818 67.9248 68.0389 68.0678 68.0997C68.2 68.1711 68.2964 68.2355 68.3393 68.2748C68.3822 68.3248 68.4179 68.3605 68.4322 68.3927C68.4501 68.4177 68.4572 68.4606 68.468 68.5142C68.4751 68.5678 68.4822 68.6357 68.493 68.7107C68.5001 68.7857 68.5001 68.8822 68.5001 69.0001C68.5001 69.1288 68.5001 69.2431 68.493 69.3324C68.4858 69.4253 68.468 69.4968 68.4572 69.5504C68.4429 69.6147 68.4179 69.6576 68.3893 69.679C68.3643 69.7076 68.3214 69.7147 68.2714 69.7147C68.2214 69.7147 68.1428 69.6862 68.0392 69.629C67.9284 69.5575 67.8033 69.4932 67.6497 69.4217C67.4818 69.3431 67.3031 69.2753 67.0994 69.2145C66.8958 69.1538 66.6707 69.1287 66.4241 69.1287C66.2347 69.1287 66.0632 69.1502 65.9203 69.2038C65.7845 69.2502 65.663 69.311 65.5594 69.3896C65.4629 69.4718 65.3879 69.5754 65.345 69.6933C65.3021 69.8112 65.2771 69.9291 65.2771 70.0542C65.2771 70.2543 65.3307 70.4151 65.4415 70.558C65.5451 70.7009 65.6809 70.826 65.8631 70.9332C66.0311 71.0511 66.2419 71.1547 66.4634 71.2405C66.6849 71.3441 66.9136 71.4442 67.1459 71.5442C67.3781 71.655 67.6032 71.78 67.8319 71.9158C68.0427 72.0552 68.2536 72.216 68.4251 72.4053C68.5966 72.5947 68.7431 72.8163 68.8539 73.0735C68.936 73.3344 68.9896 73.6452 68.9896 73.9847Z" fill="#6D6E71"/>
    <path d="M77.1152 76.35C77.1152 76.4036 77.1045 76.4358 77.0795 76.4679C77.0473 76.5037 76.9937 76.5358 76.933 76.5537C76.8651 76.5787 76.7686 76.5966 76.6686 76.6144C76.5507 76.6252 76.4113 76.6323 76.2398 76.6323C76.0683 76.6323 75.9254 76.6252 75.811 76.6144C75.6895 76.5966 75.6038 76.5787 75.5395 76.5537C75.4787 76.5358 75.4287 76.5037 75.4001 76.4679C75.3679 76.4322 75.3572 76.4 75.3572 76.35V72.8483H72.1056V76.35C72.1056 76.4036 72.0914 76.4358 72.0663 76.4679C72.0413 76.5037 71.9877 76.5358 71.9306 76.5537C71.8627 76.5787 71.7662 76.5966 71.6554 76.6144C71.5447 76.6252 71.4053 76.6323 71.2302 76.6323C71.0659 76.6323 70.9194 76.6252 70.7979 76.6144C70.6907 76.5966 70.6013 76.5787 70.5335 76.5537C70.4656 76.5358 70.4155 76.5037 70.387 76.4679C70.3619 76.4322 70.3477 76.4 70.3477 76.35V68.146C70.3477 68.1032 70.3655 68.0674 70.387 68.0353C70.4155 67.996 70.4656 67.9638 70.5335 67.9424C70.6013 67.9138 70.6907 67.8959 70.7979 67.8888C70.9194 67.8709 71.0659 67.8638 71.2302 67.8638C71.4089 67.8638 71.5482 67.8709 71.6554 67.8888C71.7662 67.8959 71.8627 67.9138 71.9306 67.9424C71.9913 67.9638 72.0413 67.9924 72.0663 68.0353C72.0914 68.0674 72.1056 68.1032 72.1056 68.146V71.3476H75.3572V68.146C75.3572 68.1032 75.3679 68.0674 75.4001 68.0353C75.4287 67.996 75.4787 67.9638 75.5395 67.9424C75.6073 67.9138 75.6895 67.8959 75.811 67.8888C75.9254 67.8709 76.0683 67.8638 76.2398 67.8638C76.4113 67.8638 76.5471 67.8709 76.6686 67.8888C76.7722 67.8959 76.8651 67.9138 76.933 67.9424C76.9937 67.9638 77.0473 67.9924 77.0795 68.0353C77.1045 68.0674 77.1152 68.1032 77.1152 68.146V76.35Z" fill="#6D6E71"/>
    <path d="M86.9929 68.6391C86.9929 68.7677 86.9929 68.8785 86.9715 68.9749C86.9608 69.0678 86.9465 69.1357 86.9179 69.1858C86.9036 69.2465 86.8643 69.2858 86.8357 69.3144C86.8 69.343 86.775 69.3537 86.7321 69.3537H83.895V71.687H86.5606C86.5927 71.687 86.6356 71.6941 86.6642 71.7191C86.6999 71.737 86.725 71.7799 86.75 71.8299C86.775 71.8942 86.7928 71.9585 86.8 72.0407C86.8178 72.1372 86.8179 72.248 86.8179 72.3873C86.8179 72.5124 86.8178 72.6231 86.8 72.7125C86.7928 72.8054 86.7785 72.884 86.75 72.934C86.725 72.9912 86.6999 73.0376 86.6642 73.0591C86.6356 73.0841 86.5927 73.0948 86.5606 73.0948H83.895V76.3249C83.895 76.3714 83.8771 76.4178 83.8521 76.4607C83.8235 76.4964 83.7735 76.5215 83.7056 76.5465C83.6377 76.5715 83.5413 76.5893 83.4305 76.6072C83.3269 76.6179 83.1804 76.6251 83.0017 76.6251C82.8373 76.6251 82.6944 76.6179 82.5837 76.6072C82.4622 76.5893 82.3764 76.5715 82.3085 76.5465C82.2406 76.5215 82.187 76.4929 82.162 76.4607C82.137 76.4178 82.1191 76.375 82.1191 76.3249V68.4533C82.1191 68.2603 82.1692 68.1138 82.2728 68.0245C82.3657 67.9387 82.4943 67.8994 82.6408 67.8994H86.7285C86.775 67.8994 86.7964 67.9066 86.8321 67.9387C86.8643 67.9566 86.9036 67.9995 86.9143 68.0566C86.9393 68.1102 86.9572 68.1888 86.9679 68.2817C86.9929 68.3889 86.9929 68.5033 86.9929 68.6391Z" fill="#6D6E71"/>
    <path d="M92.5921 70.4721C92.5921 70.1898 92.5349 69.9504 92.4063 69.7503C92.2669 69.5538 92.0633 69.4073 91.7631 69.3359C91.6774 69.3073 91.5737 69.2894 91.463 69.2823C91.3415 69.2751 91.1914 69.2572 90.9842 69.2572H90.1981V71.7263H91.0985C91.345 71.7263 91.5666 71.6941 91.7595 71.6334C91.9382 71.5691 92.099 71.4833 92.2205 71.3833C92.3491 71.2725 92.4456 71.1474 92.5028 70.9867C92.5671 70.8294 92.5921 70.6615 92.5921 70.4721ZM94.8718 76.3714C94.8718 76.4214 94.8575 76.4572 94.8396 76.4929C94.8217 76.5251 94.786 76.5608 94.7181 76.5786C94.6466 76.5965 94.543 76.6144 94.418 76.6322C94.2858 76.6322 94.1142 76.6394 93.8927 76.6394C93.7033 76.6394 93.5497 76.6322 93.4389 76.6322C93.3282 76.6179 93.2424 76.5965 93.1709 76.5786C93.1066 76.5536 93.0637 76.5179 93.0352 76.4715C93.0101 76.4357 92.9851 76.3928 92.9673 76.3357L92.1883 74.399C92.0918 74.1775 92.0097 73.9845 91.9132 73.8202C91.8274 73.6451 91.7274 73.5057 91.613 73.3878C91.513 73.2806 91.3808 73.1913 91.2379 73.1305C91.0914 73.0805 90.927 73.0484 90.7412 73.0484H90.1945V76.3535C90.1945 76.4071 90.1766 76.4393 90.1516 76.4715C90.1266 76.5072 90.073 76.5393 90.0051 76.5572C89.9336 76.5822 89.8479 76.6001 89.7371 76.618C89.6264 76.6287 89.4799 76.6358 89.3084 76.6358C89.1368 76.6358 88.9903 76.6287 88.8796 76.618C88.7688 76.6001 88.6723 76.5822 88.6044 76.5572C88.5365 76.5358 88.4937 76.5072 88.4687 76.4715C88.4436 76.4357 88.4258 76.4071 88.4258 76.3535V68.4711C88.4258 68.2746 88.4794 68.1245 88.5794 68.0352C88.6723 67.9566 88.8045 67.9102 88.9475 67.9102H91.195C91.4237 67.9102 91.613 67.9173 91.7595 67.9245C91.906 67.9316 92.0418 67.9459 92.1669 67.953C92.5135 68.0031 92.8315 68.0888 93.1066 68.2067C93.3889 68.3282 93.6212 68.4854 93.8177 68.6891C94.0142 68.8785 94.1607 69.1072 94.2643 69.3752C94.3679 69.6467 94.418 69.9469 94.418 70.2899C94.418 70.5829 94.3822 70.8437 94.3072 71.0867C94.2393 71.3297 94.125 71.5405 93.982 71.7263C93.8463 71.9193 93.664 72.0836 93.4496 72.2158C93.246 72.3552 93.0066 72.4624 92.7386 72.5445C92.8672 72.6089 92.9887 72.6875 93.0995 72.7768C93.2174 72.8626 93.3246 72.9769 93.4246 73.102C93.5282 73.2235 93.6247 73.3771 93.7069 73.5343C93.8034 73.7058 93.8856 73.8845 93.9713 74.0917L94.7002 75.8068C94.7681 75.9641 94.811 76.0927 94.836 76.1749C94.8575 76.2642 94.8718 76.3178 94.8718 76.3714Z" fill="#6D6E71"/>
    <path d="M101.317 75.9033C101.317 76.032 101.309 76.1427 101.292 76.232C101.284 76.3178 101.267 76.3857 101.249 76.4357C101.22 76.4893 101.195 76.5322 101.163 76.5572C101.127 76.5822 101.091 76.5929 101.049 76.5929H96.6857C96.5321 76.5929 96.4106 76.5465 96.3106 76.4643C96.2141 76.3785 96.1641 76.2356 96.1641 76.0355V68.4711C96.1641 68.2746 96.2141 68.1281 96.3106 68.0424C96.4106 67.9566 96.5321 67.9102 96.6857 67.9102H101.024C101.056 67.9102 101.102 67.9209 101.127 67.9495C101.163 67.9709 101.184 68.0066 101.209 68.0674C101.227 68.1245 101.245 68.1924 101.252 68.2782C101.27 68.3675 101.277 68.4747 101.277 68.6069C101.277 68.732 101.27 68.8463 101.252 68.9321C101.245 69.0178 101.227 69.0893 101.209 69.1358C101.184 69.1858 101.159 69.2394 101.127 69.2537C101.102 69.2787 101.056 69.2858 101.024 69.2858H97.9221V71.419H100.545C100.584 71.419 100.62 71.4262 100.652 71.444C100.688 71.4726 100.713 71.5155 100.738 71.5655C100.763 71.6191 100.77 71.687 100.788 71.7728C100.795 71.8585 100.795 71.9621 100.795 72.0943C100.795 72.223 100.795 72.3337 100.788 72.4088C100.766 72.4945 100.763 72.5624 100.738 72.616C100.709 72.6696 100.684 72.7089 100.652 72.7268C100.62 72.7554 100.584 72.7768 100.545 72.7768H97.9221V75.2137H101.049C101.091 75.2137 101.127 75.2209 101.163 75.2566C101.195 75.2744 101.22 75.3173 101.249 75.3674C101.263 75.4209 101.284 75.496 101.292 75.5853C101.309 75.6675 101.317 75.7675 101.317 75.9033Z" fill="#6D6E71"/>
    <path d="M108.019 75.9033C108.019 76.032 108.009 76.1427 107.998 76.232C107.98 76.3178 107.962 76.3857 107.948 76.4357C107.923 76.4893 107.898 76.5322 107.862 76.5572C107.83 76.5822 107.794 76.5929 107.755 76.5929H103.389C103.242 76.5929 103.117 76.5465 103.01 76.4643C102.92 76.3785 102.863 76.2356 102.863 76.0355V68.4711C102.863 68.2746 102.917 68.1281 103.01 68.0424C103.113 67.9566 103.242 67.9102 103.389 67.9102H107.726C107.759 67.9102 107.801 67.9209 107.83 67.9495C107.862 67.9709 107.898 68.0066 107.916 68.0674C107.93 68.1245 107.948 68.1924 107.966 68.2782C107.976 68.3675 107.984 68.4747 107.984 68.6069C107.984 68.732 107.976 68.8463 107.966 68.9321C107.948 69.0178 107.934 69.0893 107.916 69.1358C107.898 69.1858 107.862 69.2394 107.83 69.2537C107.801 69.2787 107.759 69.2858 107.726 69.2858H104.625V71.419H107.244C107.29 71.419 107.323 71.4262 107.362 71.444C107.394 71.4726 107.419 71.5155 107.444 71.5655C107.473 71.6191 107.487 71.687 107.494 71.7728C107.501 71.8585 107.508 71.9621 107.508 72.0943C107.508 72.223 107.501 72.3337 107.494 72.4088C107.487 72.4945 107.473 72.5624 107.444 72.616C107.419 72.6696 107.394 72.7089 107.362 72.7268C107.323 72.7554 107.29 72.7768 107.244 72.7768H104.625V75.2137H107.755C107.798 75.2137 107.834 75.2209 107.862 75.2566C107.898 75.2744 107.923 75.3173 107.948 75.3674C107.966 75.4209 107.984 75.496 107.998 75.5853C108.009 75.6675 108.019 75.7675 108.019 75.9033Z" fill="#6D6E71"/>
    <path d="M31.8048 71.5479H0.671875V72.6198H31.8048V71.5479Z" fill="#6D6E71"/>
    <path d="M141.394 71.5479H110.25V72.6198H141.394V71.5479Z" fill="#6D6E71"/>
</svg>
