<svg width="492" height="147" viewBox="0 0 492 147" fill="none" xmlns="http://www.w3.org/2000/svg">
<g clip-path="url(#clip0_3171_3700)">
<path d="M110.69 132.34C110.719 131.418 110.393 130.52 109.78 129.83C109.481 129.5 109.116 129.236 108.709 129.055C108.301 128.874 107.861 128.781 107.415 128.781C106.969 128.781 106.529 128.874 106.121 129.055C105.714 129.236 105.349 129.5 105.05 129.83C104.472 130.548 104.167 131.448 104.19 132.37C104.15 133.296 104.453 134.203 105.04 134.92C105.345 135.251 105.719 135.512 106.135 135.685C106.551 135.858 107 135.938 107.45 135.92C107.906 135.938 108.36 135.852 108.777 135.669C109.195 135.485 109.565 135.208 109.86 134.86C110.443 134.138 110.739 133.227 110.69 132.3M97.69 139.37C98.0076 136.197 98.1278 133.008 98.05 129.82C98.05 124.747 97.86 120.337 97.48 116.59V116.4C97.48 116.22 97.7 116.1 98.06 116.08C98.42 116.06 99.34 115.98 101.15 115.82C102.173 115.708 103.201 115.648 104.23 115.64C104.47 115.64 104.56 115.84 104.56 116.22C104.56 116.6 104.56 117.22 104.47 118.03C104.41 119.03 104.36 119.57 104.35 119.87C104.26 121.04 104.25 122.64 104.25 124.67C104.25 125.02 104.35 125.19 104.53 125.19C104.582 125.188 104.634 125.174 104.68 125.15C104.727 125.126 104.768 125.092 104.8 125.05C105.341 124.492 105.994 124.053 106.716 123.764C107.438 123.474 108.213 123.34 108.99 123.37C110.141 123.313 111.29 123.522 112.347 123.979C113.405 124.437 114.343 125.132 115.09 126.01C116.504 127.857 117.213 130.147 117.09 132.47C117.166 134.749 116.409 136.978 114.96 138.74C114.228 139.613 113.308 140.309 112.269 140.775C111.23 141.24 110.098 141.465 108.96 141.43H103.76C102.502 141.472 101.243 141.432 99.99 141.31" fill="#034EA2"/>
<path d="M139.64 132.51C139.654 131.603 139.354 130.72 138.79 130.01C138.518 129.661 138.169 129.381 137.769 129.192C137.37 129.003 136.932 128.909 136.49 128.92C136.045 128.913 135.605 129.01 135.204 129.203C134.803 129.395 134.453 129.679 134.18 130.03C133.609 130.728 133.308 131.608 133.33 132.51C133.3 133.419 133.602 134.308 134.18 135.01C134.452 135.364 134.802 135.65 135.202 135.846C135.603 136.042 136.044 136.143 136.49 136.14C136.938 136.147 137.381 136.047 137.783 135.849C138.184 135.651 138.533 135.36 138.8 135C139.367 134.292 139.665 133.407 139.64 132.5M145.45 132.5C145.502 133.715 145.308 134.928 144.878 136.066C144.448 137.204 143.792 138.243 142.95 139.12C142.109 139.973 141.099 140.641 139.985 141.08C138.871 141.519 137.677 141.72 136.48 141.67C135.292 141.718 134.108 141.519 133 141.086C131.893 140.653 130.888 139.996 130.048 139.155C129.208 138.314 128.551 137.308 128.12 136.2C127.688 135.093 127.491 133.908 127.54 132.72C127.488 131.493 127.679 130.268 128.101 129.115C128.523 127.962 129.168 126.903 130 126C130.838 125.124 131.855 124.439 132.982 123.992C134.109 123.545 135.319 123.347 136.53 123.41C137.725 123.359 138.918 123.557 140.032 123.993C141.146 124.428 142.157 125.092 143 125.94C143.842 126.803 144.498 127.83 144.928 128.956C145.358 130.083 145.553 131.285 145.5 132.49" fill="#034EA2"/>
<path d="M174.18 140.77C174.187 140.838 174.18 140.907 174.159 140.972C174.138 141.037 174.104 141.098 174.059 141.149C174.014 141.201 173.959 141.242 173.897 141.272C173.836 141.301 173.768 141.318 173.7 141.32C172.839 141.392 171.974 141.419 171.11 141.4C170.179 141.427 169.247 141.394 168.32 141.3C168.158 141.262 168.015 141.165 167.919 141.029C167.823 140.893 167.781 140.726 167.8 140.56C167.8 140.01 167.8 139.17 167.8 138.04C167.8 136.91 167.85 136.04 167.85 135.48C167.85 135.07 167.85 134.4 167.85 133.53C167.85 132.66 167.85 131.99 167.85 131.53C167.85 129.91 167.13 129.09 165.72 129.09C165.137 129.126 164.578 129.331 164.11 129.68C163.44 130.14 163.11 130.57 163.11 131V140.64C163.11 141.03 162.94 141.25 162.58 141.29C162.22 141.33 161.34 141.37 160.05 141.37C159.149 141.395 158.247 141.361 157.35 141.27C156.97 141.2 156.78 141.01 156.78 140.68C156.78 139.76 156.78 138.35 156.78 136.47C156.78 134.59 156.78 133.21 156.78 132.28C156.849 129.925 156.607 127.571 156.06 125.28C156.033 125.195 156.013 125.108 156 125.02C156.001 124.929 156.031 124.841 156.085 124.767C156.139 124.694 156.214 124.639 156.3 124.61C157.02 124.61 158.03 124.43 159.3 124.23C161.17 123.87 162.23 123.68 162.47 123.68C162.71 123.68 162.71 124.09 162.81 124.87C162.91 125.65 162.97 126.11 163.09 126.11C163.675 125.612 164.32 125.189 165.01 124.85C166.115 124.13 167.385 123.703 168.7 123.61C170.033 123.561 171.347 123.939 172.45 124.69C172.998 125.074 173.44 125.589 173.737 126.188C174.034 126.788 174.176 127.452 174.15 128.12V133.81C174.15 134.57 174.15 135.72 174.15 137.25L174.18 140.77Z" fill="#034EA2"/>
<path d="M198.43 132.37C198.426 131.443 198.068 130.552 197.43 129.88C197.13 129.561 196.768 129.307 196.365 129.135C195.962 128.963 195.528 128.876 195.09 128.88C194.655 128.863 194.221 128.944 193.821 129.117C193.421 129.29 193.066 129.551 192.78 129.88C192.212 130.612 191.909 131.514 191.92 132.44C191.898 133.343 192.203 134.224 192.78 134.92C193.055 135.269 193.409 135.549 193.811 135.736C194.214 135.924 194.656 136.014 195.1 136C195.549 136.012 195.995 135.923 196.406 135.74C196.816 135.556 197.18 135.283 197.47 134.94C198.105 134.241 198.461 133.334 198.47 132.39M202.57 141.47H193.65C192.514 141.52 191.382 141.308 190.342 140.851C189.301 140.393 188.38 139.701 187.65 138.83C186.183 137.052 185.424 134.794 185.52 132.49C185.432 130.177 186.177 127.91 187.62 126.1C188.349 125.226 189.269 124.531 190.309 124.07C191.35 123.608 192.483 123.393 193.62 123.44C194.402 123.398 195.183 123.531 195.906 123.831C196.63 124.13 197.277 124.588 197.8 125.17C197.95 125.36 198.06 125.45 198.13 125.45C198.2 125.45 198.3 125.31 198.3 125C198.3 124.07 198.3 122.72 198.24 120.89C198.18 119.06 198.17 117.7 198.17 116.8C198.17 116.45 198.26 116.25 198.44 116.19C199.2 116.19 200.22 116.1 201.54 116C202.597 115.916 203.649 115.773 204.69 115.57C204.747 115.565 204.804 115.573 204.858 115.593C204.911 115.613 204.959 115.645 204.999 115.686C205.038 115.728 205.067 115.777 205.085 115.832C205.103 115.886 205.108 115.943 205.1 116C205.1 115.76 205.04 116.14 204.95 117.2C204.8 118.49 204.71 120.2 204.66 122.2C204.57 124.55 204.52 127.2 204.52 130.2C204.458 133.206 204.602 136.213 204.95 139.2" fill="#034EA2"/>
<path d="M222.82 119.86C222.82 121.92 221.67 122.98 219.37 122.98C218.476 123.023 217.599 122.73 216.91 122.16C216.577 121.878 216.31 121.528 216.126 121.132C215.943 120.737 215.848 120.306 215.848 119.87C215.848 119.434 215.943 119.003 216.126 118.608C216.31 118.212 216.577 117.862 216.91 117.58C217.599 117.024 218.465 116.733 219.35 116.76C220.228 116.732 221.085 117.035 221.75 117.61C222.082 117.88 222.345 118.224 222.519 118.615C222.693 119.006 222.772 119.433 222.75 119.86M222.34 133.1C222.34 133.99 222.34 135.26 222.39 136.98C222.44 138.7 222.46 139.98 222.46 140.85C222.46 141.08 222.3 141.25 222.01 141.3C220.192 141.433 218.368 141.433 216.55 141.3C216.353 141.285 216.169 141.2 216.03 141.06V140.53C216.03 139.71 216.03 138.47 216.09 136.85C216.15 135.23 216.09 133.96 216.09 133.1C216.134 130.428 216.004 127.755 215.7 125.1C215.7 124.91 215.7 124.79 215.7 124.73C215.7 124.51 215.87 124.36 216.18 124.36C216.692 124.373 217.202 124.413 217.71 124.48C218.39 124.55 218.92 124.6 219.25 124.6C219.58 124.6 220.12 124.6 220.79 124.51C221.308 124.444 221.828 124.407 222.35 124.4C222.64 124.4 222.75 124.52 222.75 124.75C222.75 124.82 222.75 124.93 222.75 125.1C222.46 127.757 222.327 130.428 222.35 133.1" fill="#034EA2"/>
<path d="M252 140.77C252.007 140.838 252 140.907 251.979 140.972C251.958 141.037 251.924 141.098 251.879 141.149C251.834 141.201 251.779 141.242 251.717 141.272C251.656 141.301 251.588 141.318 251.52 141.32C250.659 141.392 249.794 141.419 248.93 141.4C248.002 141.427 247.074 141.394 246.15 141.3C245.986 141.264 245.841 141.168 245.743 141.032C245.645 140.895 245.601 140.727 245.62 140.56C245.62 140.01 245.62 139.17 245.62 138.04C245.62 136.91 245.67 136.04 245.67 135.48C245.67 135.07 245.67 134.4 245.67 133.53C245.67 132.66 245.67 131.99 245.67 131.53C245.67 129.91 244.95 129.09 243.56 129.09C242.967 129.12 242.396 129.325 241.92 129.68C241.25 130.14 240.92 130.57 240.92 131V140.64C240.92 141.03 240.75 141.25 240.39 141.29C240.03 141.33 239.12 141.37 237.84 141.37C236.939 141.393 236.037 141.36 235.14 141.27C234.78 141.2 234.58 141.01 234.58 140.68C234.58 139.76 234.58 138.35 234.58 136.47C234.58 134.59 234.58 133.21 234.58 132.28C234.654 129.925 234.412 127.571 233.86 125.28C233.852 125.194 233.852 125.106 233.86 125.02C233.861 124.934 233.886 124.85 233.932 124.778C233.977 124.705 234.043 124.647 234.12 124.61C234.86 124.61 235.88 124.43 237.12 124.23C238.99 123.87 240.07 123.68 240.29 123.68C240.51 123.68 240.55 124.09 240.6 124.87C240.65 125.65 240.78 126.11 240.91 126.11C240.78 126.11 241.44 125.67 242.83 124.85C243.935 124.13 245.205 123.703 246.52 123.61C247.853 123.561 249.167 123.939 250.27 124.69C250.823 125.069 251.27 125.583 251.567 126.183C251.865 126.784 252.004 127.451 251.97 128.12V133.81C251.97 134.57 251.97 135.72 251.97 137.25L252 140.77Z" fill="#034EA2"/>
<path d="M275.41 131.73C275.419 130.903 275.103 130.106 274.53 129.51C274.273 129.186 273.944 128.927 273.569 128.754C273.194 128.58 272.783 128.497 272.37 128.51C271.956 128.51 271.547 128.6 271.171 128.772C270.795 128.945 270.46 129.196 270.19 129.51C269.625 130.117 269.316 130.92 269.33 131.75C269.328 132.589 269.646 133.398 270.22 134.01C270.493 134.306 270.826 134.54 271.197 134.697C271.568 134.854 271.968 134.93 272.37 134.92C272.776 134.935 273.181 134.859 273.555 134.699C273.928 134.538 274.262 134.296 274.53 133.99C275.099 133.375 275.413 132.568 275.41 131.73M281.54 136.67C281.54 140.05 280.82 142.48 279.43 143.94C278.04 145.4 275.49 146.22 272.09 146.22C270.725 146.174 269.367 146.01 268.03 145.73C265.83 145.33 264.73 144.85 264.73 144.32C264.73 144.11 264.99 142.93 265.47 140.82C265.56 140.49 265.71 140.32 265.88 140.32C265.945 140.335 266.008 140.355 266.07 140.38C267.63 141.216 269.361 141.682 271.13 141.74C272.019 141.716 272.891 141.491 273.68 141.08C274.68 140.56 275.21 139.93 275.21 139.17V138C273.94 139.147 272.27 139.75 270.56 139.68C269.522 139.718 268.488 139.523 267.536 139.107C266.584 138.692 265.738 138.067 265.06 137.28C263.648 135.721 262.902 133.672 262.98 131.57C262.929 129.511 263.642 127.506 264.98 125.94C265.665 125.174 266.51 124.568 267.455 124.165C268.401 123.763 269.423 123.573 270.45 123.61C271.238 123.567 272.024 123.723 272.737 124.061C273.449 124.4 274.066 124.912 274.53 125.55C274.71 125.82 274.86 125.95 274.94 125.95C275.02 125.95 275.11 125.72 275.11 125.31C275.11 124.31 275.19 123.85 275.45 123.85C275.71 123.85 276.67 123.95 278.54 124.14C280.41 124.33 281.36 124.48 281.43 124.49C281.528 124.518 281.614 124.579 281.673 124.662C281.731 124.746 281.758 124.848 281.75 124.95C281.75 125.77 281.75 126.95 281.65 128.62C281.55 130.29 281.56 131.48 281.56 132.29C281.56 132.77 281.56 133.52 281.56 134.49L281.54 136.67Z" fill="#034EA2"/>
<path d="M331.12 129.79C331.12 130.08 330.97 130.21 330.66 130.21C329.36 130.21 328.36 130.21 327.66 130.13C327.66 131.02 327.72 132.26 327.78 133.87C327.78 134.54 327.78 135.69 327.89 137.37C327.99 138.9 328.03 140.05 328.03 140.91C328.03 141.16 327.88 141.3 327.54 141.35C327.2 141.4 326.14 141.42 324.54 141.42C323.665 141.441 322.789 141.401 321.92 141.3C321.832 141.293 321.746 141.267 321.668 141.226C321.589 141.184 321.52 141.127 321.465 141.057C321.41 140.988 321.369 140.908 321.346 140.823C321.323 140.737 321.317 140.648 321.33 140.56V130.77C321.33 130.41 321.08 130.25 320.61 130.25H319.79C319.46 130.25 319.29 130.16 319.29 129.98C319.154 128.467 319.097 126.949 319.12 125.43C319.11 125.334 319.12 125.237 319.149 125.144C319.178 125.052 319.225 124.967 319.287 124.893C319.35 124.819 319.427 124.759 319.513 124.715C319.599 124.672 319.694 124.646 319.79 124.64C320.19 124.64 320.61 124.55 321.02 124.55C320.95 123.55 320.92 122.85 320.92 122.29C320.795 120.719 321.219 119.153 322.12 117.86C323.7 116.01 326.21 115.1 329.72 115.1C329.96 115.1 330.11 115.17 330.15 115.29C330.25 115.85 330.39 116.62 330.56 117.69C330.56 117.79 330.66 118.12 330.83 118.69C330.904 119.019 330.951 119.353 330.97 119.69C330.97 119.99 330.54 120.18 329.72 120.26C329.089 120.27 328.473 120.453 327.94 120.79C327.461 121.526 327.252 122.407 327.35 123.28C327.355 123.651 327.382 124.022 327.43 124.39C327.77 124.39 328.28 124.39 329 124.33H330.56C330.92 124.33 331.11 124.47 331.11 124.74V127.23C331.11 128.39 331.11 129.23 331.11 129.78" fill="#034EA2"/>
<path d="M355.37 132.51C355.366 131.6 355.053 130.718 354.48 130.01C354.214 129.66 353.869 129.378 353.472 129.189C353.076 128.999 352.639 128.907 352.2 128.92C351.756 128.911 351.317 129.007 350.917 129.2C350.518 129.393 350.169 129.677 349.9 130.03C349.323 130.726 349.015 131.606 349.03 132.51C349.006 133.421 349.316 134.31 349.9 135.01C350.173 135.361 350.523 135.645 350.922 135.84C351.322 136.036 351.76 136.137 352.205 136.137C352.65 136.137 353.089 136.036 353.488 135.84C353.887 135.645 354.237 135.361 354.51 135.01C355.083 134.304 355.387 133.419 355.37 132.51M361.14 132.51C361.189 133.722 360.995 134.932 360.571 136.069C360.147 137.205 359.501 138.246 358.67 139.13C356.916 140.756 354.612 141.659 352.22 141.659C349.828 141.659 347.524 140.756 345.77 139.13C344.929 138.287 344.27 137.281 343.833 136.173C343.396 135.066 343.191 133.88 343.23 132.69C343.132 130.224 344.001 127.816 345.65 125.98C346.489 125.106 347.507 124.422 348.633 123.975C349.76 123.528 350.97 123.329 352.18 123.39C353.378 123.341 354.573 123.54 355.69 123.975C356.807 124.411 357.822 125.073 358.67 125.92C359.498 126.791 360.144 127.82 360.568 128.945C360.992 130.07 361.187 131.269 361.14 132.47" fill="#034EA2"/>
<path d="M383.42 130.15C383.42 130.6 383.19 130.85 382.67 130.85C382.45 130.85 382.13 130.85 381.67 130.85C381.21 130.85 380.92 130.79 380.67 130.79C379.97 130.723 379.267 130.888 378.67 131.26C378.462 131.525 378.309 131.828 378.22 132.153C378.13 132.477 378.107 132.816 378.15 133.15C378.15 133.68 378.15 134.45 378.15 135.48C378.15 136.51 378.15 137.27 378.15 137.8C378.15 138.13 378.15 138.66 378.22 139.34C378.29 140.02 378.22 140.54 378.22 140.87C378.22 141.2 378.04 141.33 377.65 141.35C377.09 141.35 376.21 141.42 375.04 141.42C373.87 141.42 373.04 141.42 372.35 141.33C371.97 141.28 371.76 141.09 371.76 140.72C371.76 139.72 371.76 138.35 371.76 136.45V132.18C371.824 129.856 371.568 127.534 371 125.28C370.979 125.195 370.979 125.105 371 125.02C370.993 124.939 371.015 124.858 371.063 124.792C371.111 124.726 371.181 124.679 371.26 124.66C371.93 124.58 372.9 124.47 374.16 124.27C376.04 123.89 376.99 123.7 377.07 123.7C377.15 123.7 377.4 124.08 377.45 124.84C377.5 125.6 377.62 125.99 377.73 125.99C377.6 125.99 378.07 125.66 379.21 124.99C380.201 124.385 381.33 124.041 382.49 123.99C383.16 123.99 383.49 124.13 383.49 124.43C383.49 124.73 383.49 125.26 383.41 125.89C383.33 126.52 383.31 127.06 383.29 127.35C383.27 127.64 383.29 128.14 383.29 128.72C383.29 129.3 383.29 129.9 383.29 130.11" fill="#034EA2"/>
<path d="M405.61 130.46C405.613 130.103 405.544 129.748 405.406 129.418C405.269 129.088 405.066 128.79 404.81 128.54C404.575 128.281 404.288 128.074 403.967 127.934C403.647 127.795 403.3 127.725 402.95 127.73C402.593 127.724 402.239 127.802 401.917 127.958C401.596 128.115 401.316 128.345 401.1 128.63C400.66 129.203 400.427 129.908 400.44 130.63C400.44 130.95 400.6 131.1 400.94 131.1C402.307 131.066 403.671 130.935 405.02 130.71C405.42 130.71 405.61 130.57 405.61 130.43M411.77 131.53C411.77 132.73 411.39 133.4 410.62 133.6C410.5 133.6 409.28 133.75 406.98 133.93C405.59 134.07 403.5 134.26 400.75 134.45C400.836 134.85 401.015 135.223 401.272 135.541C401.529 135.859 401.857 136.112 402.23 136.28C402.962 136.646 403.771 136.831 404.59 136.82C405.698 136.791 406.783 136.492 407.75 135.95L409.09 135.07C409.607 135.599 410.026 136.215 410.33 136.89C410.74 137.541 411.035 138.258 411.2 139.01C411.2 139.08 411.11 139.2 410.97 139.43C409.53 140.98 407.27 141.75 404.21 141.75C402.974 141.807 401.739 141.618 400.577 141.194C399.415 140.77 398.349 140.12 397.44 139.28C396.537 138.417 395.83 137.371 395.366 136.212C394.902 135.053 394.692 133.807 394.75 132.56C394.66 130.094 395.515 127.687 397.14 125.83C397.958 124.935 398.962 124.23 400.081 123.766C401.201 123.301 402.409 123.087 403.62 123.14C404.705 123.119 405.782 123.329 406.78 123.755C407.778 124.18 408.674 124.813 409.41 125.61C410.179 126.389 410.785 127.314 411.19 128.331C411.596 129.348 411.793 130.436 411.77 131.53" fill="#034EA2"/>
<path d="M440.36 128.91C440.432 130.106 440.372 131.307 440.18 132.49C439.526 134.012 438.701 135.455 437.72 136.79C436.553 138.523 435.553 139.887 434.72 140.88C434.4 141.23 433.47 141.42 431.91 141.42C431.028 141.448 430.144 141.401 429.27 141.28C429.037 141.221 428.828 141.092 428.67 140.91C427.584 139.643 426.582 138.307 425.67 136.91C424.685 135.595 423.84 134.181 423.15 132.69C422.813 131.49 422.668 130.245 422.72 129V126.9C422.72 125.97 422.72 125.26 422.72 124.78C422.72 124.47 422.94 124.33 423.34 124.33H426.08C427.28 124.33 428.17 124.39 428.79 124.39C429.08 124.39 429.17 124.6 429.17 124.95C429.17 125.3 429.17 125.8 429.12 126.46C429.07 127.12 429 127.62 429 128C429 129.22 429 130.22 429.09 131C429.294 131.818 429.654 132.588 430.15 133.27C430.81 134.46 431.3 135.05 431.61 135.05C431.92 135.05 432.38 134.46 433.02 133.31C433.456 132.628 433.792 131.887 434.02 131.11C434.09 130.25 434.16 129.25 434.16 128.04C434.146 127.518 434.106 126.998 434.04 126.48C433.98 125.813 433.95 125.303 433.95 124.95C433.95 124.59 434.07 124.4 434.31 124.4C434.55 124.4 435.02 124.4 435.58 124.4C436.14 124.4 436.58 124.4 436.88 124.4C437.18 124.4 437.6 124.4 438.17 124.29C438.74 124.18 439.17 124.29 439.44 124.29C439.579 124.28 439.717 124.321 439.827 124.406C439.938 124.491 440.013 124.613 440.04 124.75C440.286 126.112 440.38 127.497 440.32 128.88" fill="#034EA2"/>
<path d="M462.48 130.46C462.481 129.741 462.197 129.05 461.69 128.54C461.459 128.281 461.176 128.075 460.858 127.935C460.541 127.795 460.197 127.725 459.85 127.73C459.489 127.721 459.132 127.798 458.807 127.955C458.482 128.111 458.198 128.343 457.98 128.63C457.534 129.201 457.295 129.906 457.3 130.63C457.3 130.95 457.46 131.1 457.8 131.1C459.177 131.067 460.551 130.937 461.91 130.71C462.29 130.71 462.48 130.57 462.48 130.43M468.66 131.53C468.66 132.73 468.28 133.4 467.52 133.6C467.37 133.6 466.15 133.75 463.85 133.93C462.46 134.07 460.39 134.26 457.63 134.45C457.708 134.856 457.886 135.236 458.148 135.555C458.41 135.875 458.747 136.124 459.13 136.28C459.846 136.65 460.644 136.836 461.45 136.82C462.559 136.797 463.645 136.498 464.61 135.95C465.04 135.66 465.51 135.37 465.93 135.07C466.477 135.581 466.909 136.201 467.2 136.89C467.623 137.538 467.928 138.256 468.1 139.01C468.1 139.08 468 139.2 467.83 139.43C466.37 140.98 464.16 141.75 461.11 141.75C459.868 141.806 458.627 141.617 457.459 141.193C456.29 140.77 455.217 140.119 454.3 139.28C453.407 138.412 452.708 137.364 452.249 136.205C451.791 135.047 451.583 133.805 451.64 132.56C451.542 130.1 452.382 127.694 453.99 125.83C454.817 124.934 455.83 124.229 456.958 123.764C458.086 123.3 459.301 123.087 460.52 123.14C461.603 123.125 462.676 123.336 463.672 123.762C464.668 124.187 465.563 124.817 466.3 125.61C467.838 127.194 468.687 129.322 468.66 131.53" fill="#034EA2"/>
<path d="M25.57 110.64C25.1802 108.35 25.1802 106.01 25.57 103.72C25.92 103.29 25.25 101.17 23.64 102.81C23.17 103.29 20.14 108.59 25.64 110.64" fill="white"/>
<path d="M63.06 103.17C67.3615 102.903 71.6103 102.08 75.7 100.72V98.08C70.2688 99.9355 64.5588 100.842 58.82 100.76C57.38 104 55.17 104.58 54.82 104.7C54.15 109.11 51.07 108.92 50.76 108.88C50.18 108.77 50.18 109.01 50.06 109.25C48.96 113.37 45.91 112.71 44.79 112.52C44.4183 113.347 43.7889 114.032 42.9958 114.472C42.2027 114.912 41.2885 115.083 40.39 114.96C37.28 118.88 34.52 116.07 33.53 115.48C28.24 116.19 26.68 113.16 26.41 112.48C20.99 111.95 20.8 107.85 20.9 106.57C16.99 105.33 16.39 102.57 16.32 101.77C14.21 101.21 6.48 99.77 4.45 99.04C2.94273 98.6811 1.45701 98.2371 0 97.71L0 100.34C1.19 100.72 2.77 101.27 3.73 101.48C5.09 101.92 8.04 102.56 10.9 103.17C11.78 103.35 12.65 103.55 13.23 103.69V136.07C13.525 135.913 13.8289 135.772 14.14 135.65L15.14 135.26V104.46C16.0014 105.904 17.2912 107.043 18.83 107.72C19.0083 109.325 19.7168 110.825 20.8433 111.983C21.9699 113.14 23.4502 113.889 25.05 114.11C25.5349 114.827 26.1527 115.445 26.87 115.93C27.6737 116.497 28.5808 116.902 29.54 117.12V131.75L31.07 131.62V117.36C31.6923 117.41 32.3177 117.41 32.94 117.36C33.926 118.116 35.09 118.605 36.32 118.78C37.2418 118.85 38.1673 118.706 39.0242 118.359C39.8812 118.012 40.6463 117.471 41.26 116.78C42.7739 116.72 44.2065 116.079 45.26 114.99V131.69L46.26 131.81C46.4417 131.834 46.6219 131.867 46.8 131.91V114.47C47.2403 114.427 47.6736 114.329 48.09 114.18C48.8983 113.891 49.6325 113.426 50.2395 112.819C50.8465 112.213 51.3111 111.478 51.6 110.67C52.4625 110.561 53.2859 110.246 54 109.75C55.2538 108.836 56.1431 107.508 56.51 106C57.982 105.216 59.1944 104.021 60 102.56H61.13V135.56L61.63 135.76C62.11 135.95 62.57 136.18 63.02 136.4L63.06 103.17Z" fill="white"/>
<path d="M31.5 113.62C29.62 109.88 29.92 106.48 29.7 105.51C29.43 103.43 27.64 103.93 27.47 105.32C27.0705 107.008 27.1049 108.769 27.57 110.44C27.95 112.59 30.63 114.16 31.5 113.62" fill="white"/>
<path d="M20.94 103.61C21.16 103.12 21.24 102.61 20.22 101.73C19.65 101.1 18.04 100.81 18.48 102.39C18.76 103 19.79 104.55 20.94 103.61" fill="white"/>
<path d="M33.39 81C38.46 79.66 44.28 81.36 46.39 81.75C47.57 81.94 49.8 82.15 49.91 82.15C51.74 82.31 52.14 82.84 52.34 83.03C53.42 83.73 53.61 83.45 53.94 83.32C57.85 82 70.57 75.54 75.7 72.73V69.9C71.45 72.25 57.7 79.16 53.49 80.57C52.5038 79.8346 51.3191 79.413 50.09 79.36H50C49.73 79.36 47.74 79.18 46.74 79.01C46.45 78.96 46.04 78.88 45.56 78.77C42.78 78.2 37.62 77.11 32.89 78.32C31.1999 78.6627 29.6645 79.539 28.51 80.82C16.07 77.81 0.55 67.87 0.38 67.76L0 67.5V70.35C3.38 72.51 17.85 81.44 29.4 83.83C29.8208 83.0938 30.3964 82.4578 31.087 81.9657C31.7776 81.4737 32.5668 81.1374 33.4 80.98" fill="white"/>
<path d="M52.34 84.85C51.4303 84.2128 50.3272 83.9123 49.22 84C48.4222 84.0946 47.6135 83.9845 46.87 83.68C37.08 81.35 34.87 82.37 33.87 82.53C31.1 83.09 31.1 83.95 31 84.23C30.8074 85.4764 30.2224 86.6288 29.33 87.52C28.05 88.65 28.53 88.94 28.77 89.13C32.55 90.71 35.42 87.25 36.4 86.33C41.6 86 45.32 90.25 46.01 91.54C46.92 93.78 50.01 96.54 51.01 97.32C52.7226 98.5745 53.9148 100.414 54.36 102.49C55.1547 102.197 55.8665 101.715 56.4343 101.086C57.002 100.457 57.4089 99.7004 57.62 98.88C65.06 99.58 71.94 97.4 75.62 96.08V74.38C70.01 77.5 57.56 83.83 55.86 84.65C53.43 86.03 52.98 85.22 52.26 84.85" fill="white"/>
<path d="M22.31 101C26 99.33 27.4 101.82 27.49 102.74C30.54 101.54 31.33 103.98 31.28 104.58C31.38 106.31 31.71 108.58 31.76 108.77C31.9515 109.986 32.3906 111.15 33.05 112.19C33.7795 113.306 34.8596 114.146 36.12 114.58C38.12 115.49 38.12 114 37.78 113.33C36.728 111.67 35.7601 109.958 34.88 108.2C34.12 106.43 36.08 106.52 36.63 107.68C37.2989 108.996 38.0504 110.269 38.88 111.49C39.0587 111.885 39.3369 112.228 39.6874 112.484C40.038 112.74 40.4489 112.9 40.88 112.95C41.99 113.05 43.02 111.8 42.32 110.86C41.7363 109.925 41.1055 109.021 40.43 108.15C39.8247 107.488 39.3163 106.744 38.92 105.94C38.17 104.22 39.81 103.81 40.44 104.94C40.7592 105.306 41.0438 105.701 41.29 106.12C42.18 107.67 43.43 108.98 43.86 109.67C45.22 111.51 46.53 110.67 46.86 110.41C47.095 110.253 47.294 110.048 47.444 109.808C47.594 109.569 47.6914 109.3 47.73 109.02C47.4477 107.878 46.9224 106.81 46.19 105.89C45.55 104.89 44.56 103.4 44.44 103.21C44.0479 102.755 43.7815 102.206 43.6675 101.617C43.5535 101.027 43.5957 100.418 43.79 99.85C44.3 98.68 45.25 99.01 45.38 99.85C45.3964 100.437 45.5183 101.016 45.74 101.56C46.5823 103.172 47.5875 104.693 48.74 106.1C49.01 106.36 49.1 106.62 49.61 106.78C50.3674 106.769 51.0978 106.497 51.6787 106.011C52.2596 105.525 52.6555 104.854 52.8 104.11C52.95 102.32 52.13 101.47 51.45 100.31C50.1943 98.7397 48.7912 97.2931 47.26 95.99C46.6722 95.5472 46.1934 94.976 45.86 94.32C45.237 93.1964 44.5177 92.1291 43.71 91.13C42.4399 89.7886 40.7766 88.8852 38.96 88.55C38.2611 88.3372 37.5275 88.2625 36.8 88.33C35.0978 89.8725 32.9601 90.8506 30.68 91.13C27.45 91.6 26.87 89.75 26.75 89.53C26.41 88.58 27.37 87.64 27.69 87.3C28.3378 86.7961 28.8414 86.1304 29.15 85.37C17.58 83.28 3.36 75.05 0 73V95.53C1.9 96.4 7.68 98.76 17.61 99.9C20.85 98.41 21.83 100.35 22.29 101" fill="white"/>
<path d="M16.27 101.76C16.34 102.52 16.93 105.32 20.85 106.56C20.75 107.84 20.94 111.94 26.36 112.47C26.62 113.16 28.18 116.19 33.48 115.47C34.48 116.05 37.22 118.86 40.35 114.94C41.2473 115.064 42.1606 114.893 42.9523 114.453C43.7441 114.013 44.3714 113.327 44.74 112.5C45.86 112.69 48.9 113.36 50.02 109.23C50.13 108.99 50.13 108.75 50.71 108.86C51.01 108.86 54.09 109.09 54.77 104.68C55.17 104.56 57.37 103.98 58.77 100.74C64.5244 100.834 70.2518 99.9344 75.7 98.08V96.08C72 97.4 65.12 99.58 57.7 98.88C57.4921 99.7019 57.0863 100.46 56.5181 101.09C55.9499 101.719 55.2365 102.2 54.44 102.49C53.9904 100.416 52.7992 98.5777 51.09 97.32C50.09 96.56 46.98 93.78 46.09 91.54C45.38 90.25 41.67 86 36.46 86.33C35.46 87.25 32.62 90.71 28.84 89.12C28.6 88.94 28.12 88.65 29.4 87.52C30.2611 86.6274 30.8207 85.4872 31 84.26C31.1 83.98 31.1 83.12 33.88 82.56C34.88 82.4 37.04 81.38 46.83 83.71C47.5734 84.0145 48.3822 84.1246 49.18 84.03C50.2836 83.9335 51.3864 84.2234 52.3 84.85C53.02 85.22 53.47 86.03 55.9 84.65C57.6 83.83 70.05 77.5 75.66 74.38V72.73C70.57 75.54 57.85 82 53.93 83.3C53.58 83.43 53.4 83.71 52.32 83.01C52.12 82.82 51.72 82.29 49.89 82.13C49.77 82.13 47.54 81.92 46.37 81.73C44.28 81.34 38.46 79.64 33.37 80.98C32.5361 81.1354 31.7461 81.471 31.0552 81.9632C30.3644 82.4554 29.7892 83.0925 29.37 83.83C17.85 81.44 3.38 72.51 0 70.35V73C3.36 75 17.58 83.24 29.1 85.41C28.7878 86.1656 28.2847 86.8272 27.64 87.33C27.32 87.67 26.36 88.61 26.7 89.56C26.82 89.78 27.4 91.63 30.63 91.16C32.9101 90.8806 35.0478 89.9025 36.75 88.36C37.4775 88.2925 38.2111 88.3672 38.91 88.58C40.724 88.9145 42.3843 89.8182 43.65 91.16C44.4701 92.1542 45.1965 93.222 45.82 94.35C46.1433 95.0097 46.62 95.5823 47.21 96.02C48.7453 97.322 50.1518 98.7686 51.41 100.34C52.07 101.5 52.89 102.34 52.75 104.14C52.6037 104.883 52.2073 105.553 51.6268 106.039C51.0464 106.525 50.3169 106.797 49.56 106.81C49.05 106.65 48.96 106.39 48.69 106.13C47.5307 104.728 46.525 103.206 45.69 101.59C45.4653 101.047 45.34 100.468 45.32 99.88C45.2 99.02 44.25 98.69 43.74 99.88C43.5457 100.448 43.5035 101.057 43.6175 101.647C43.7315 102.236 43.9979 102.785 44.39 103.24C44.51 103.43 45.5 104.87 46.14 105.93C46.876 106.844 47.4018 107.91 47.68 109.05C47.6487 109.332 47.5542 109.604 47.4036 109.844C47.253 110.085 47.0501 110.289 46.81 110.44C46.48 110.65 45.18 111.54 43.81 109.7C43.39 109.01 42.13 107.7 41.25 106.15C41.0054 105.735 40.7278 105.34 40.42 104.97C39.77 103.79 38.13 104.2 38.88 105.97C39.2712 106.774 39.7801 107.516 40.39 108.17C40.67 108.44 41.51 109.76 42.28 110.88C42.97 111.82 41.95 113.07 40.85 112.97C40.417 112.926 40.0035 112.768 39.652 112.511C39.3005 112.255 39.0236 111.909 38.85 111.51C38.0114 110.293 37.2563 109.02 36.59 107.7C36.03 106.54 34.06 106.45 34.84 108.22C35.7178 109.979 36.6857 111.691 37.74 113.35C38.12 114.02 38.05 115.51 36.09 114.6C34.8229 114.174 33.7374 113.332 33.01 112.21C32.3506 111.17 31.9115 110.006 31.72 108.79C31.4894 107.402 31.3292 106.004 31.24 104.6C31.24 104 30.5 101.6 27.45 102.76C27.36 101.84 25.96 99.35 22.27 101.02C21.81 100.37 20.83 98.43 17.6 99.92C7.7 98.76 1.92 96.41 0 95.53V97.71C1.43851 98.2203 2.90407 98.651 4.39 99C6.39 99.73 14.16 101.17 16.27 101.73M27.47 105.29C27.64 103.9 29.47 103.4 29.69 105.48C29.92 106.48 29.63 109.85 31.5 113.59C30.63 114.12 27.95 112.59 27.56 110.41C27.1016 108.738 27.0707 106.977 27.47 105.29M23.6 102.78C25.21 101.14 25.88 103.26 25.53 103.69C25.1345 105.98 25.1345 108.32 25.53 110.61C20.06 108.61 23.08 103.26 23.53 102.78M20.15 101.7C21.15 102.55 21.15 103.09 20.87 103.58C19.72 104.52 18.69 102.97 18.41 102.36C17.97 100.78 19.57 101.07 20.15 101.7" fill="#2E3192"/>
<path d="M10.92 103.17C8.06002 102.56 5.11002 101.92 3.75002 101.48C2.75002 101.27 1.21002 100.72 0.0200195 100.34V144.34H0.10002C3.95513 140.816 8.40381 138.003 13.24 136.03V103.69C12.67 103.55 11.8 103.35 10.92 103.17Z" fill="#D71920"/>
<path d="M41.28 116.75C40.6663 117.441 39.9012 117.982 39.0443 118.329C38.1873 118.676 37.2618 118.82 36.34 118.75C35.1279 118.573 33.9795 118.095 33 117.36C32.3777 117.41 31.7523 117.41 31.13 117.36V131.62C31.3735 131.571 31.6218 131.551 31.87 131.56V118.56C32.173 118.58 32.477 118.58 32.78 118.56C33.8149 119.336 35.0292 119.838 36.31 120.02C37.305 120.095 38.3041 119.943 39.2312 119.573C40.1583 119.204 40.989 118.629 41.66 117.89C42.7084 117.808 43.7194 117.465 44.6 116.89V131.73H44.96H45.32V115C44.2665 116.089 42.8339 116.73 41.32 116.79" fill="white"/>
<path d="M60 102.56C59.1972 104.023 57.984 105.218 56.51 106C56.1335 107.495 55.2455 108.811 54 109.72C53.2859 110.216 52.4625 110.531 51.6 110.64C51.3116 111.447 50.8482 112.18 50.2431 112.787C49.638 113.394 48.9061 113.859 48.1 114.15C47.6796 114.298 47.2432 114.395 46.8 114.44V131.88C47.05 131.88 47.28 131.97 47.52 131.99C47.52 127.99 47.52 116.35 47.52 115.37C47.7953 115.322 48.0662 115.252 48.33 115.16C49.1781 114.851 49.9519 114.367 50.6013 113.74C51.2507 113.113 51.7613 112.357 52.1 111.52C52.9332 111.338 53.724 110.999 54.43 110.52C55.7288 109.516 56.6574 108.109 57.07 106.52C58.4342 105.741 59.5796 104.63 60.4 103.29V103.29V135.23L61.12 135.5V102.5H59.99" fill="white"/>
<path d="M63.06 136.33C67.664 138.271 71.907 140.976 75.61 144.33H75.7V100.72C71.6103 102.079 67.3615 102.903 63.06 103.17V136.33Z" fill="#D71920"/>
<path d="M28.5 80.82C29.6549 79.5344 31.195 78.6573 32.89 78.32C37.61 77.11 42.77 78.2 45.55 78.77C46.04 78.88 46.44 78.96 46.73 79.01C47.73 79.18 49.73 79.36 49.99 79.36H50.08C51.3124 79.4117 52.5007 79.8333 53.49 80.57C57.66 79.16 71.49 72.26 75.69 69.9V49.46H0V67.46L0.39 67.72C0.55 67.83 16.07 77.72 28.5 80.78" fill="#D71920"/>
<path d="M26.89 115.93C26.1727 115.445 25.5549 114.827 25.07 114.11C23.9782 113.95 22.9362 113.547 22.0207 112.931C21.1052 112.315 20.3395 111.501 19.78 110.55C19.2868 109.677 18.9708 108.715 18.85 107.72C17.3133 107.04 16.0245 105.901 15.16 104.46V135.26L15.52 135.1C15.6437 135.088 15.765 135.057 15.88 135.01V106.59C16.5659 107.287 17.3552 107.874 18.22 108.33C18.3524 109.309 18.6571 110.257 19.12 111.13C19.7107 112.143 20.5118 113.016 21.4693 113.693C22.4267 114.369 23.5182 114.832 24.67 115.05C25.1576 115.764 25.7709 116.385 26.48 116.88C27.2008 117.372 27.9935 117.75 28.83 118V131.84C29.07 131.84 29.31 131.74 29.56 131.71V117.12C28.6001 116.904 27.6927 116.499 26.89 115.93" fill="white"/>
<path d="M26.48 116.88C25.7709 116.384 25.1577 115.764 24.67 115.05C23.5183 114.832 22.4268 114.369 21.4693 113.693C20.5118 113.016 19.7107 112.142 19.12 111.13C18.6583 110.256 18.3505 109.309 18.21 108.33C17.3514 107.869 16.5662 107.282 15.88 106.59V135C20.0705 133.491 24.4127 132.441 28.83 131.87V118C27.99 117.745 27.1965 117.357 26.48 116.85" fill="#2E3192"/>
<path d="M60.42 103.29C59.6024 104.632 58.4563 105.744 57.09 106.52C56.6774 108.109 55.7488 109.516 54.45 110.52C53.7432 110.997 52.9527 111.336 52.12 111.52C51.7819 112.355 51.2726 113.111 50.6251 113.738C49.9775 114.365 49.206 114.849 48.36 115.16C48.0965 115.253 47.8255 115.323 47.55 115.37C47.55 116.37 47.55 128.01 47.55 131.99C51.9363 132.6 56.2444 133.679 60.4 135.21V135.21V103.29H60.42Z" fill="#2E3192"/>
<path d="M41.62 117.8C40.949 118.539 40.1183 119.114 39.1912 119.483C38.2641 119.853 37.265 120.005 36.27 119.93C34.9897 119.746 33.776 119.244 32.74 118.47C32.437 118.49 32.133 118.49 31.83 118.47V131.47C33.83 131.28 35.83 131.16 37.83 131.16C40.0819 131.156 42.3322 131.279 44.57 131.53V116.78C43.6703 117.361 42.6383 117.705 41.57 117.78" fill="#D71920"/>
<path d="M462.19 49.97H491.51V62.13H482.07V96.11H471.62V62.13H462.19V49.97Z" fill="#231F20"/>
<path d="M421.44 96.11V49.97H431.16L442.17 74.67V49.97H452.21V96.11H442.24L431.47 72.01V96.11H421.44Z" fill="#231F20"/>
<path d="M384.82 96.11V49.97H410.8V60.83H394.94V67.33H408.42V77.81H394.94V85.06H411.42V96.11H384.82Z" fill="#231F20"/>
<path d="M338.55 96.11V49.97H351.24L356.85 78.8L362.46 49.97H375.11V96.11H365.6V70.2L360.48 96.11H353.2L348.02 70.2V96.11H338.55Z" fill="#231F20"/>
<path d="M301.93 96.11V49.97H327.88V60.83H312.02V67.33H325.48V77.81H312.02V85.06H328.51V96.11H301.93Z" fill="#231F20"/>
<path d="M291.7 67.65H281.8C281.749 65.7308 281.172 63.8626 280.13 62.25C279.724 61.6532 279.176 61.1665 278.535 60.8332C277.895 60.4999 277.182 60.3304 276.46 60.34C274.58 60.34 273.067 61.3733 271.92 63.44C270.74 65.53 270.18 68.9 270.18 73.57C270.083 76.0244 270.342 78.48 270.95 80.86C271.301 82.2618 272.007 83.5497 273 84.6C273.891 85.4307 275.072 85.8794 276.29 85.85C277.044 85.8654 277.79 85.6957 278.463 85.3557C279.136 85.0157 279.715 84.5159 280.15 83.9C281.243 82.1968 281.842 80.2235 281.88 78.2H291.88C291.753 80.6406 291.368 83.0608 290.73 85.42C290.083 87.5055 289.119 89.4788 287.87 91.27C286.618 93.1068 284.984 94.652 283.08 95.8C281.109 96.894 278.884 97.4493 276.63 97.41C274.28 97.4287 271.959 96.8871 269.86 95.83C267.82 94.7854 266.056 93.2745 264.71 91.42C263.254 89.4037 262.126 87.1693 261.37 84.8C260.247 81.0715 259.697 77.1938 259.74 73.3C259.718 69.9289 260.125 66.5687 260.95 63.3C261.617 60.534 262.739 57.8981 264.27 55.5C265.49 53.6006 267.103 51.9844 269 50.76C271.178 49.4269 273.687 48.7338 276.24 48.76C278.498 48.7431 280.727 49.2569 282.75 50.26C284.768 51.262 286.491 52.7714 287.75 54.64C289.112 56.6639 290.126 58.9014 290.75 61.26C291.309 63.3554 291.644 65.504 291.75 67.67" fill="#231F20"/>
<path d="M204.74 76H214V78.41C213.949 80.0521 214.046 81.6954 214.29 83.32C214.376 84.0874 214.701 84.8083 215.22 85.38C215.419 85.588 215.658 85.753 215.923 85.8648C216.187 85.9766 216.472 86.0329 216.76 86.03C217.157 86.0216 217.545 85.9068 217.883 85.6975C218.22 85.4881 218.496 85.192 218.68 84.84C219.26 83.661 219.522 82.3512 219.44 81.04V49.87H229.87V79C229.87 85 228.787 89.54 226.62 92.62C225.589 94.1182 224.195 95.3312 222.569 96.146C220.943 96.9607 219.137 97.3509 217.32 97.28C215.455 97.344 213.602 96.9671 211.91 96.18C210.785 95.5664 209.771 94.7687 208.91 93.82C207.915 92.7368 207.089 91.5097 206.46 90.18C205.781 88.5552 205.339 86.8409 205.15 85.09C204.828 82.0612 204.691 79.0155 204.74 75.97" fill="#231F20"/>
<path d="M141.32 96.02V49.87H151.49V65.12L160.94 49.87H173.27L161.57 67.24L174.42 96.02H161.93L154.27 77.64L151.49 81.62V96.02H141.32Z" fill="#231F20"/>
<path d="M194.64 49.87H184.16V96.02H194.64V49.87Z" fill="#231F20"/>
<path d="M117.7 80.53H111L114.28 63.73L117.7 80.53ZM107.89 96L109.09 90H119.54L120.74 96H131.16L119.73 49.87H109.09L97.68 96H107.89Z" fill="#231F20"/>
<path d="M491.14 130.15C491.14 130.6 490.88 130.85 490.37 130.85C490.16 130.85 489.82 130.85 489.37 130.85C488.92 130.85 488.63 130.79 488.37 130.79C487.67 130.72 486.966 130.885 486.37 131.26C486.162 131.525 486.009 131.828 485.92 132.153C485.83 132.477 485.807 132.816 485.85 133.15C485.85 133.68 485.85 134.45 485.85 135.48V137.8C485.85 138.13 485.85 138.66 485.92 139.34C485.99 140.02 486.02 140.54 486.02 140.87C486.02 141.2 485.83 141.33 485.42 141.35C485.01 141.37 483.98 141.42 482.81 141.42C481.64 141.42 480.81 141.42 480.12 141.33C480.041 141.332 479.963 141.317 479.89 141.286C479.818 141.256 479.752 141.21 479.699 141.152C479.645 141.095 479.604 141.027 479.578 140.952C479.553 140.878 479.543 140.799 479.55 140.72V136.4C479.55 134.51 479.55 133.1 479.55 132.13C479.59 129.805 479.325 127.485 478.76 125.23C478.736 125.145 478.72 125.058 478.71 124.97C478.703 124.887 478.727 124.805 478.777 124.739C478.827 124.673 478.899 124.627 478.98 124.61C479.65 124.53 480.62 124.42 481.85 124.22C483.74 123.84 484.71 123.65 484.79 123.65C484.87 123.65 485.12 124.03 485.17 124.79C485.22 125.55 485.31 125.94 485.46 125.94C485.31 125.94 485.79 125.61 486.92 124.94C487.911 124.335 489.04 123.991 490.2 123.94C490.88 123.94 491.2 124.08 491.2 124.38C491.2 124.68 491.2 125.21 491.11 125.84C491.02 126.47 491.01 127.01 490.99 127.3C490.97 127.59 490.99 128.09 490.99 128.67C490.99 129.25 490.99 129.85 490.99 130.06" fill="#034EA2"/>
<path d="M205.6 2.48C205.6 2.84 205.6 3.15 205.6 3.41C205.566 3.61358 205.515 3.81418 205.45 4.01C205.395 4.1451 205.314 4.2676 205.21 4.37C205.13 4.44066 205.027 4.47975 204.92 4.48H196.92V11H204.37C204.478 10.9902 204.585 11.0224 204.67 11.09C204.773 11.1705 204.853 11.2777 204.9 11.4C204.978 11.5932 205.035 11.7944 205.07 12C205.11 12.3318 205.13 12.6658 205.13 13C205.128 13.3043 205.108 13.6082 205.07 13.91C205.043 14.1237 204.986 14.3325 204.9 14.53C204.852 14.6662 204.774 14.7895 204.67 14.89C204.587 14.9611 204.479 14.997 204.37 14.99H196.92V23.99C196.922 24.1203 196.888 24.2486 196.82 24.36C196.706 24.4864 196.556 24.5738 196.39 24.61C196.149 24.6894 195.901 24.7464 195.65 24.78C195.34 24.78 194.94 24.83 194.43 24.83C193.92 24.83 193.56 24.83 193.25 24.78C192.989 24.7447 192.732 24.6879 192.48 24.61C192.331 24.5542 192.195 24.4692 192.08 24.36C192.018 24.2507 191.99 24.1253 192 24V2C191.979 1.78068 192.007 1.55946 192.081 1.35206C192.156 1.14466 192.275 0.956173 192.43 0.800005C192.711 0.567966 193.066 0.443853 193.43 0.450005H204.89C204.943 0.44753 204.997 0.456016 205.046 0.474936C205.096 0.493856 205.142 0.52281 205.18 0.560005C205.286 0.64832 205.369 0.761747 205.42 0.890005C205.484 1.09994 205.534 1.31371 205.57 1.53C205.57 1.79 205.57 2.1 205.57 2.53" fill="#6D6E71"/>
<path d="M223 22.67C223 23.05 223 23.35 222.95 23.67C222.928 23.8825 222.878 24.0911 222.8 24.29C222.762 24.4392 222.682 24.5745 222.57 24.68C222.47 24.7471 222.35 24.7788 222.23 24.77H211.07C210.705 24.7683 210.352 24.6412 210.07 24.41C209.916 24.255 209.798 24.0681 209.723 23.8626C209.649 23.657 209.621 23.4377 209.64 23.22V1.10001C209.643 0.983979 209.689 0.873245 209.77 0.790012C209.881 0.675975 210.019 0.590257 210.17 0.540012C210.417 0.45075 210.677 0.400156 210.94 0.390012C211.737 0.296672 212.543 0.296672 213.34 0.390012C213.593 0.397586 213.844 0.448313 214.08 0.540012C214.24 0.57032 214.383 0.659533 214.48 0.790012C214.523 0.829447 214.558 0.877278 214.582 0.930581C214.606 0.983883 214.619 1.04154 214.62 1.10001V20.65H222.24C222.363 20.6514 222.483 20.6936 222.58 20.77C222.69 20.8569 222.77 20.9757 222.81 21.11C222.888 21.3054 222.939 21.5107 222.96 21.72C222.96 22 223.01 22.28 223.01 22.72" fill="#6D6E71"/>
<path d="M232.32 15.52V24.06C232.324 24.1203 232.316 24.1809 232.295 24.2378C232.275 24.2947 232.242 24.3465 232.2 24.39C232.094 24.5155 231.95 24.6032 231.79 24.64C231.543 24.7225 231.289 24.7794 231.03 24.81C230.72 24.81 230.31 24.86 229.85 24.86C229.39 24.86 228.96 24.86 228.65 24.81C228.392 24.776 228.138 24.7191 227.89 24.64C227.73 24.6032 227.586 24.5155 227.48 24.39C227.441 24.3452 227.412 24.2926 227.395 24.2357C227.377 24.1788 227.372 24.1189 227.38 24.06V15.52L220.71 2.29C220.525 1.94456 220.371 1.5831 220.25 1.21C220.215 1.10603 220.208 0.994487 220.231 0.887127C220.254 0.779767 220.305 0.68057 220.38 0.599998C220.615 0.453073 220.884 0.370312 221.16 0.359998C221.55 0.359998 222.1 0.359998 222.77 0.359998C223.44 0.359998 223.77 0.359998 224.17 0.359998C224.441 0.377798 224.709 0.424736 224.97 0.499998C225.147 0.540259 225.303 0.643291 225.41 0.789998C225.535 0.916023 225.633 1.06558 225.7 1.23L228.39 7.18C228.65 7.75 228.91 8.37 229.18 9C229.45 9.63 229.69 10.3 229.97 11C230.2 10.32 230.44 9.65 230.71 9C230.98 8.35 231.19 7.76 231.43 7.17L234.09 1.23C234.158 1.06102 234.238 0.897253 234.33 0.739998C234.455 0.632497 234.589 0.535502 234.73 0.449998C234.991 0.37631 235.259 0.329401 235.53 0.309998C235.84 0.309998 236.28 0.309998 236.82 0.309998C237.53 0.309998 238.09 0.309998 238.48 0.309998C238.769 0.323797 239.05 0.406064 239.3 0.549998C239.372 0.636552 239.418 0.741171 239.434 0.852331C239.45 0.96349 239.434 1.07688 239.39 1.18C239.285 1.55842 239.155 1.92928 239 2.29L232.32 15.52Z" fill="#6D6E71"/>
<path d="M259.93 5.06002L256.47 15.4H263.36L259.93 5.06002ZM271.08 22.91C271.202 23.256 271.299 23.6102 271.37 23.97C271.42 24.25 271.37 24.45 271.23 24.55C271.021 24.7207 270.76 24.8127 270.49 24.81C270.12 24.81 269.64 24.86 269.05 24.86C268.46 24.86 267.91 24.86 267.52 24.86C267.246 24.8572 266.974 24.8202 266.71 24.75C266.567 24.7111 266.438 24.6312 266.34 24.52C266.254 24.3974 266.186 24.2626 266.14 24.12L264.51 19.24H255.39L253.86 24C253.801 24.1471 253.727 24.2879 253.64 24.42C253.546 24.5551 253.413 24.6595 253.26 24.72C253.007 24.785 252.75 24.8318 252.49 24.86C252.16 24.86 251.7 24.86 251.18 24.86C250.66 24.86 250.18 24.86 249.82 24.81C249.574 24.8042 249.339 24.7081 249.16 24.54C249.087 24.4544 249.035 24.3527 249.009 24.2431C248.983 24.1336 248.983 24.0194 249.01 23.91C249.088 23.555 249.184 23.2045 249.3 22.86L256.78 1.30002C256.851 1.1206 256.941 0.949561 257.05 0.790021C257.172 0.637292 257.341 0.528472 257.53 0.480021C257.826 0.394794 258.132 0.354345 258.44 0.360021C258.85 0.360021 259.35 0.360021 259.97 0.360021C260.59 0.360021 261.32 0.360021 261.75 0.360021C262.087 0.355593 262.423 0.395945 262.75 0.480021C262.954 0.528238 263.138 0.636188 263.28 0.790021C263.39 0.972178 263.477 1.16692 263.54 1.37002L271.08 22.91Z" fill="#6D6E71"/>
<path d="M288.88 17.44C288.907 18.6075 288.672 19.7661 288.19 20.83C287.72 21.7608 287.055 22.5793 286.24 23.23C285.386 23.8844 284.42 24.379 283.39 24.69C282.259 25.0165 281.087 25.1748 279.91 25.16C279.119 25.1818 278.328 25.1181 277.55 24.97C276.903 24.8479 276.264 24.6809 275.64 24.47C275.17 24.3017 274.712 24.1012 274.27 23.87C273.981 23.7177 273.716 23.5258 273.48 23.3C273.292 23.1087 273.166 22.8645 273.12 22.6C273.042 22.1646 273.008 21.7223 273.02 21.28C273.003 20.9469 273.003 20.6131 273.02 20.28C273.048 20.0646 273.088 19.8509 273.14 19.64C273.188 19.507 273.271 19.3895 273.38 19.3C273.477 19.2271 273.599 19.1949 273.72 19.21C273.985 19.246 274.238 19.3417 274.46 19.49C274.853 19.7493 275.26 19.9864 275.68 20.2C276.267 20.471 276.872 20.7015 277.49 20.89C278.27 21.0922 279.074 21.1864 279.88 21.17C280.43 21.1881 280.979 21.1241 281.51 20.98C281.946 20.8477 282.353 20.6339 282.71 20.35C283.042 20.0847 283.303 19.7411 283.47 19.35C283.64 18.9418 283.722 18.5021 283.71 18.06C283.73 17.5534 283.575 17.0553 283.27 16.65C282.951 16.2325 282.562 15.8738 282.12 15.59C281.63 15.31 281.12 15.01 280.46 14.72C279.8 14.43 279.21 14.17 278.56 13.87C277.911 13.5742 277.28 13.2403 276.67 12.87C276.063 12.4906 275.514 12.0258 275.04 11.49C274.546 10.9285 274.148 10.2901 273.86 9.60002C273.542 8.77143 273.396 7.88686 273.43 7.00001C273.409 5.94044 273.631 4.89019 274.08 3.93002C274.485 3.07386 275.084 2.324 275.83 1.74002C276.593 1.13076 277.475 0.687941 278.42 0.440015C279.447 0.144239 280.511 -0.00391175 281.58 1.50187e-05C282.155 0.00943591 282.729 0.0494927 283.3 0.120015C283.848 0.20804 284.39 0.335028 284.92 0.500015C285.42 0.650015 285.92 0.820015 286.27 0.980015C286.54 1.11657 286.794 1.28078 287.03 1.47002C287.127 1.57159 287.214 1.68208 287.29 1.80001C287.343 1.90649 287.377 2.02163 287.39 2.14002C287.39 2.29002 287.44 2.48002 287.46 2.69002C287.48 2.90002 287.46 3.17002 287.46 3.50002C287.46 3.83002 287.46 4.18001 287.46 4.43001C287.439 4.63516 287.406 4.83886 287.36 5.04001C287.335 5.1766 287.269 5.30223 287.17 5.40001C287.125 5.43909 287.073 5.4682 287.016 5.48544C286.959 5.50268 286.899 5.50765 286.84 5.50001C286.608 5.46909 286.386 5.38712 286.19 5.26002C285.839 5.04399 285.475 4.85027 285.1 4.68001C284.599 4.4504 284.081 4.25984 283.55 4.11001C282.935 3.93917 282.298 3.85833 281.66 3.87001C281.179 3.85418 280.698 3.92185 280.24 4.07001C279.881 4.18835 279.543 4.36394 279.24 4.59001C278.97 4.8188 278.76 5.11078 278.63 5.44001C278.513 5.76094 278.449 6.09862 278.44 6.44001C278.425 6.94921 278.587 7.44782 278.9 7.85001C279.221 8.26072 279.622 8.6011 280.08 8.85002C280.603 9.2038 281.167 9.49259 281.76 9.71002C282.38 10 283.02 10.28 283.67 10.56C284.32 10.84 284.95 11.22 285.59 11.56C286.204 11.9653 286.762 12.4495 287.25 13C287.751 13.5527 288.156 14.1846 288.45 14.87C288.748 15.6832 288.893 16.5442 288.88 17.41" fill="#6D6E71"/>
<path d="M311.62 24.06C311.629 24.1786 311.593 24.2962 311.52 24.39C311.408 24.5082 311.266 24.5944 311.11 24.64C310.868 24.716 310.621 24.7729 310.37 24.81C310.03 24.81 309.65 24.86 309.17 24.86C308.69 24.86 308.29 24.86 307.97 24.81C307.711 24.7807 307.456 24.7237 307.21 24.64C307.054 24.5993 306.915 24.5121 306.81 24.39C306.77 24.3453 306.74 24.2931 306.721 24.2363C306.702 24.1796 306.695 24.1196 306.7 24.06V14.26H297.6V24.06C297.605 24.1797 297.566 24.2971 297.49 24.39C297.391 24.5097 297.259 24.5968 297.11 24.64C296.859 24.719 296.601 24.7759 296.34 24.81C296.03 24.81 295.64 24.86 295.14 24.86C294.64 24.86 294.27 24.86 293.94 24.81C293.686 24.775 293.435 24.7181 293.19 24.64C293.03 24.6018 292.887 24.5144 292.78 24.39C292.704 24.2971 292.665 24.1797 292.67 24.06V1.09999C292.668 0.98974 292.707 0.882674 292.78 0.799991C292.886 0.672438 293.029 0.581475 293.19 0.539991C293.43 0.450551 293.684 0.399918 293.94 0.389991C294.338 0.337825 294.739 0.314431 295.14 0.319991C295.541 0.312422 295.942 0.335825 296.34 0.389991C296.603 0.399159 296.863 0.449782 297.11 0.539991C297.26 0.586446 297.392 0.677061 297.49 0.799991C297.563 0.882674 297.602 0.98974 297.6 1.09999V10.1H306.7V1.09999C306.697 1.04511 306.705 0.990147 306.724 0.93853C306.743 0.886914 306.772 0.839753 306.81 0.799991C306.914 0.67466 307.053 0.583959 307.21 0.539991C307.462 0.441882 307.73 0.391033 308 0.389991C308.398 0.336821 308.799 0.313423 309.2 0.319991C309.601 0.314079 310.002 0.337474 310.4 0.389991C310.653 0.401928 310.902 0.452515 311.14 0.539991C311.297 0.589261 311.438 0.678918 311.55 0.799991C311.619 0.884144 311.655 0.991054 311.65 1.09999L311.62 24.06Z" fill="#6D6E71"/>
<path d="M339.25 2.48001C339.261 2.79088 339.244 3.10212 339.2 3.41001C339.185 3.6172 339.134 3.82023 339.05 4.01001C339.01 4.14977 338.93 4.27484 338.82 4.37001C338.738 4.44385 338.63 4.48324 338.52 4.48001H330.59V11H338C338.107 10.9956 338.213 11.0273 338.3 11.09C338.404 11.1721 338.487 11.2786 338.54 11.4C338.618 11.5909 338.662 11.794 338.67 12C338.726 12.3302 338.746 12.6655 338.73 13C338.743 13.3046 338.723 13.6098 338.67 13.91C338.668 14.1233 338.624 14.3341 338.54 14.53C338.485 14.6651 338.404 14.7876 338.3 14.89C338.214 14.9556 338.108 14.9907 338 14.99H330.55V23.99C330.545 24.1221 330.504 24.2503 330.43 24.36C330.319 24.4802 330.177 24.5668 330.02 24.61C329.769 24.689 329.511 24.7459 329.25 24.78C328.96 24.78 328.56 24.83 328.05 24.83C327.54 24.83 327.19 24.83 326.88 24.78C326.618 24.7493 326.36 24.6923 326.11 24.61C325.954 24.564 325.812 24.4778 325.7 24.36C325.629 24.2494 325.591 24.1212 325.59 23.99V2.00001C325.569 1.78068 325.597 1.55946 325.671 1.35206C325.745 1.14466 325.865 0.956176 326.02 0.800008C326.298 0.562245 326.655 0.437348 327.02 0.450008H338.46C338.515 0.446121 338.57 0.453914 338.622 0.472874C338.673 0.491834 338.721 0.52153 338.76 0.560008C338.872 0.64084 338.953 0.757167 338.99 0.890008C339.072 1.09439 339.123 1.31025 339.14 1.53001C339.188 1.86107 339.204 2.19585 339.19 2.53001" fill="#6D6E71"/>
<path d="M354.93 7.61002C354.954 6.90712 354.773 6.21246 354.41 5.61002C353.975 5.00799 353.329 4.59339 352.6 4.45002C352.328 4.35958 352.046 4.30578 351.76 4.29002C351.43 4.29002 351.01 4.22002 350.43 4.22002H348.22V11.13H350.74C351.366 11.1378 351.99 11.0501 352.59 10.87C353.06 10.7183 353.497 10.4809 353.88 10.17C354.245 9.85897 354.518 9.45451 354.67 9.00002C354.857 8.54706 354.945 8.0597 354.93 7.57002M361.31 24.07C361.309 24.1891 361.278 24.306 361.22 24.41C361.183 24.4713 361.134 24.5242 361.075 24.5655C361.017 24.6068 360.95 24.6356 360.88 24.65C360.607 24.715 360.329 24.7617 360.05 24.79C359.68 24.79 359.19 24.79 358.58 24.79C357.97 24.79 357.58 24.79 357.31 24.79C357.057 24.7583 356.807 24.7116 356.56 24.65C356.403 24.5955 356.269 24.4898 356.18 24.35C356.097 24.2464 356.036 24.1275 356 24L353.82 18.58C353.577 18.0382 353.303 17.5106 353 17C352.786 16.5545 352.503 16.1459 352.16 15.79C351.861 15.4825 351.504 15.2377 351.11 15.07C350.659 14.9167 350.186 14.839 349.71 14.84H348.18V24.09C348.182 24.2111 348.139 24.3286 348.06 24.42C347.95 24.541 347.808 24.6278 347.65 24.67C347.409 24.7483 347.161 24.8052 346.91 24.84C346.6 24.84 346.19 24.89 345.71 24.89C345.23 24.89 344.82 24.89 344.51 24.84C344.249 24.8059 343.991 24.749 343.74 24.67C343.588 24.6281 343.452 24.5409 343.35 24.42C343.278 24.3252 343.239 24.2091 343.24 24.09V2.00002C343.224 1.77704 343.257 1.5533 343.337 1.34434C343.416 1.13539 343.54 0.946239 343.7 0.790024C343.983 0.561744 344.336 0.438123 344.7 0.440024H351C351.64 0.440024 352.17 0.440024 352.57 0.440024L353.71 0.520024C354.614 0.645022 355.498 0.887051 356.34 1.24002C357.09 1.54699 357.771 2.00283 358.34 2.58002C358.893 3.11999 359.32 3.77566 359.59 4.50002C359.892 5.32266 360.041 6.19368 360.03 7.07002C360.041 7.82554 359.933 8.57809 359.71 9.30002C359.527 9.95072 359.218 10.559 358.8 11.09C358.402 11.6435 357.895 12.1097 357.31 12.46C356.692 12.8655 356.018 13.1788 355.31 13.39C355.664 13.5729 355.999 13.7907 356.31 14.04C356.652 14.302 356.958 14.608 357.22 14.95C357.527 15.3235 357.791 15.7292 358.01 16.16C358.292 16.6643 358.542 17.1852 358.76 17.72L360.76 22.52C360.95 22.96 361.06 23.31 361.14 23.52C361.186 23.6935 361.217 23.871 361.23 24.05" fill="#6D6E71"/>
<path d="M379.35 22.81C379.356 23.1182 379.333 23.4262 379.28 23.73C379.255 23.9229 379.215 24.1135 379.16 24.3C379.103 24.4281 379.022 24.5436 378.92 24.64C378.827 24.7056 378.714 24.7374 378.6 24.73H366.4C366.034 24.7342 365.679 24.6064 365.4 24.37C365.25 24.2105 365.136 24.0211 365.066 23.8142C364.995 23.6072 364.969 23.3877 364.99 23.17V1.99999C364.969 1.78233 364.995 1.56274 365.066 1.35583C365.136 1.14893 365.25 0.959444 365.4 0.799993C365.676 0.5567 366.032 0.424799 366.4 0.429993H378.53C378.64 0.426765 378.748 0.466154 378.83 0.539993C378.938 0.624282 379.018 0.739316 379.06 0.869993C379.122 1.06491 379.162 1.26615 379.18 1.46999C379.233 1.77031 379.256 2.0751 379.25 2.37999C379.256 2.68487 379.233 2.98962 379.18 3.28999C379.165 3.48764 379.125 3.68255 379.06 3.86999C379.01 3.99645 378.931 4.10947 378.83 4.19999C378.744 4.26416 378.637 4.29601 378.53 4.28999H369.85V10.29H377.2C377.305 10.2903 377.409 10.3179 377.5 10.37C377.604 10.4669 377.688 10.5822 377.75 10.71C377.812 10.8959 377.859 11.0865 377.89 11.28C377.89 11.52 377.89 11.81 377.89 12.18C377.89 12.55 377.89 12.84 377.89 13.05C377.857 13.2497 377.81 13.4469 377.75 13.64C377.697 13.7617 377.61 13.8657 377.5 13.94C377.42 14.0215 377.314 14.0713 377.2 14.08H369.85V20.9H378.6C378.659 20.8944 378.718 20.9023 378.774 20.9231C378.829 20.9439 378.879 20.977 378.92 21.02C379.024 21.1021 379.107 21.2086 379.16 21.33C379.215 21.5268 379.255 21.7273 379.28 21.93C379.333 22.2303 379.357 22.5351 379.35 22.84" fill="#6D6E71"/>
<path d="M398.11 22.81C398.109 23.1176 398.089 23.4248 398.05 23.73C398.02 23.9237 397.973 24.1144 397.91 24.3C397.861 24.4321 397.778 24.5492 397.67 24.64C397.584 24.7042 397.477 24.736 397.37 24.73H385.15C384.765 24.738 384.39 24.6106 384.09 24.37C383.946 24.2073 383.836 24.0172 383.767 23.8109C383.698 23.6047 383.672 23.3867 383.69 23.17V2C383.672 1.78334 383.698 1.56531 383.767 1.35907C383.836 1.15284 383.946 0.962655 384.09 0.800002C384.387 0.551875 384.763 0.420335 385.15 0.430002H397.29C397.397 0.428325 397.501 0.467678 397.58 0.540002C397.697 0.617301 397.783 0.734563 397.82 0.870002C397.87 1.03 397.91 1.23 397.96 1.47C397.995 1.77204 398.012 2.07594 398.01 2.38C398.011 2.68406 397.995 2.98793 397.96 3.29C397.925 3.48595 397.878 3.67963 397.82 3.87C397.774 4.00112 397.691 4.11585 397.58 4.2C397.497 4.26269 397.394 4.29451 397.29 4.29H388.61V10.29H395.94C396.055 10.2904 396.168 10.3178 396.27 10.37C396.367 10.4682 396.445 10.5835 396.5 10.71C396.581 10.89 396.628 11.0831 396.64 11.28C396.64 11.52 396.64 11.81 396.64 12.18C396.64 12.55 396.64 12.84 396.64 13.05C396.626 13.2531 396.579 13.4525 396.5 13.64C396.453 13.7597 396.373 13.8637 396.27 13.94C396.179 14.0229 396.063 14.0723 395.94 14.08H388.61V20.9H397.37C397.426 20.896 397.482 20.9047 397.534 20.9255C397.586 20.9463 397.632 20.9786 397.67 21.02C397.78 21.0966 397.863 21.2047 397.91 21.33C397.973 21.5259 398.019 21.7266 398.05 21.93C398.089 22.2317 398.109 22.5357 398.11 22.84" fill="#6D6E71"/>
<path d="M184.81 10.62H97.68V13.62H184.81V10.62Z" fill="#6D6E71"/>
<path d="M491.51 10.62H404.35V13.62H491.51V10.62Z" fill="#6D6E71"/>
</g>
<defs>
<clipPath id="clip0_3171_3700">
<rect width="491.51" height="146.22" fill="white"/>
</clipPath>
</defs>
</svg>
