<svg width="56" height="51" viewBox="0 0 56 51" fill="none" xmlns="http://www.w3.org/2000/svg">
    <path d="M38.2737 11.2754L40.9223 12.7002L54.8658 7.98137C55.0911 7.90221 55.3286 7.86568 55.5599 7.84741V0.138916H38.2676V11.2754H38.2737Z" fill="#D20A11"/>
    <path d="M50.9385 32.556C50.8228 33.5119 50.3601 34.4131 49.6111 35.095C49.5441 35.1559 49.4772 35.2107 49.4041 35.2655L47.8941 36.4041C47.0051 37.0739 45.9213 37.3601 44.874 37.2627C44.667 37.5123 44.4356 37.7376 44.1677 37.9324L42.5724 39.0832C41.7869 39.6495 40.8614 39.9479 39.9298 39.9722C39.8263 40.1001 39.7106 40.2279 39.5889 40.3436L38.2676 41.5736V50.6399H55.5599V31.2651L50.9385 32.556Z" fill="#D20A11"/>
    <path d="M8.54848 33.506C8.60328 33.506 8.65199 33.4938 8.70679 33.4877L8.50586 33.3538C8.51804 33.4025 8.52413 33.4573 8.54848 33.506Z" fill="#D20A11"/>
    <path d="M16.9149 42.1156C16.787 42.0365 16.6591 41.9634 16.5373 41.866L14.9481 40.6056C14.6254 40.3498 14.3514 40.0515 14.1322 39.7288C13.3955 39.6496 12.6953 39.3756 12.1047 38.9068L10.5337 37.6647C10.3024 37.482 10.1014 37.275 9.91875 37.0497C9.16982 37.0253 8.43916 36.8 7.80592 36.3677L6.14366 35.2352C5.26077 34.6385 4.66407 33.7313 4.46313 32.6779C4.44487 32.5805 4.43269 32.4891 4.42051 32.3978L0 30.9121V50.6339H16.9088V42.1156H16.9149Z" fill="#D20A11"/>
    <path d="M13.1519 12.4871L16.9149 10.7883V0.138916H0V7.73172C0.273999 7.74999 0.53582 7.79261 0.797641 7.89003L13.1519 12.4871Z" fill="#D20A11"/>
    <path d="M35.779 42.8157C35.3527 42.8827 34.9204 42.8948 34.4881 42.8339C34.409 42.9131 34.3237 42.9923 34.2324 43.0653C34.202 43.0897 34.1715 43.114 34.1411 43.1384L32.905 44.0882C32.016 44.7702 30.9566 45.1112 29.891 45.1112C28.9473 45.1112 27.9974 44.8433 27.1693 44.2953L26.5665 43.9117C25.9211 44.6423 25.0443 45.1051 24.064 45.2147C23.9118 45.233 23.7535 45.239 23.6012 45.239C22.7123 45.239 21.8537 44.9407 21.1474 44.3805L19.607 43.1566C19.54 43.1018 19.473 43.041 19.4121 42.9801V50.6155H35.779V42.8157Z" fill="white"/>
    <path d="M19.4121 9.66189L22.5966 8.22492C23.3881 7.86568 24.2588 7.69519 25.1295 7.7439L26.9379 7.83523C27.352 7.8535 27.7356 7.96919 28.0887 8.14577C29.6414 7.56732 31.3706 7.6343 32.8624 8.35888C32.8989 8.37714 32.9355 8.39541 32.9781 8.41368L35.779 9.92371V0.138916H19.4121V9.66189Z" fill="white"/>
    <path d="M7.03263 30.2361C7.03263 30.2361 7.61107 29.5481 8.60965 29.5724C9.53515 29.5968 10.1745 30.1692 10.9782 30.7354C11.0452 30.7841 11.1122 30.8328 11.1852 30.8755C12.0864 31.4843 12.2569 32.0567 12.2569 32.0567C12.2569 32.0567 12.811 31.1738 13.5903 30.7172C13.8643 30.5588 14.1566 30.4492 14.4671 30.4492C15.5753 30.4432 16.1233 31.0825 16.9149 31.7218C16.9392 31.7401 16.9575 31.7583 16.9818 31.7705C17.0305 31.8071 17.0732 31.8436 17.1219 31.8801C18.0352 32.5682 18.1813 33.171 18.1813 33.171C18.5528 32.8117 18.9424 32.6534 19.3017 32.6047C19.3382 32.5986 19.3748 32.5925 19.4052 32.5925C19.5818 32.5803 19.7523 32.5925 19.9045 32.6169C20.4829 32.7204 20.9031 33.0187 20.9031 33.0187C20.9031 33.0187 21.4632 33.3902 22.541 34.3826C22.614 34.4496 22.681 34.5227 22.748 34.5897C23.57 35.5152 23.2412 36.4285 23.2412 36.4285C23.7344 36.4285 24.3493 36.6721 24.9826 37.0922C25.4393 37.3966 25.9081 37.7863 26.3526 38.2673C27.4181 39.412 26.7788 40.6298 26.7788 40.6298L28.3193 41.6101L28.7455 41.8841C29.4762 42.3773 30.4443 42.3469 31.1445 41.805L32.3806 40.8551C32.6789 40.6055 32.6667 40.1427 32.3562 39.9113L29.5066 37.7863C29.5066 37.7863 29.0743 37.4636 29.4092 37.0617C29.7136 36.6964 30.1886 37.0009 30.1886 37.0009L34.1889 39.7104C34.6761 40.0331 35.2789 40.0635 35.7842 39.8322C35.8269 39.8139 35.8634 39.7896 35.8999 39.7713C36.0095 39.7104 36.1191 39.6373 36.2165 39.546L37.6292 38.2247C37.891 37.9812 37.8666 37.5489 37.5744 37.3418L35.8999 36.1241L35.7842 36.0388L32.1735 33.4023C32.1735 33.4023 31.8021 33.0857 32.0944 32.6899C32.3745 32.3185 32.9286 32.7082 32.9286 32.7082L35.7842 34.681L35.8999 34.7602L38.2807 36.4102L38.7799 36.7573C39.4193 37.1957 40.2595 37.1896 40.8867 36.7329L42.482 35.5822C42.9447 35.2473 42.9447 34.5592 42.4759 34.2243L38.2746 31.1982L35.8938 29.4811L35.7781 29.3959L34.6091 28.5556C33.9637 28.1842 34.4873 27.1795 35.3945 27.7945L35.7842 28.0685L35.8999 28.1477L38.2807 29.8099L44.4365 34.1086C44.9601 34.474 45.6543 34.4557 46.1657 34.0782L47.5296 33.0553L47.6758 32.9457C48.2603 32.4099 48.2238 31.6183 47.5844 31.1434L38.2746 24.263L35.8938 22.5033L35.7781 22.418L30.1399 18.2472C29.8293 18.0219 29.4457 17.9366 29.0682 18.0036L27.5886 18.2837C27.3207 18.3324 26.9676 18.5577 26.8032 18.783L24.2945 22.2536C23.6248 23.0391 22.6018 23.3314 21.7372 22.7834L19.4052 21.1698L19.3017 21.0968L19.1677 21.0054C18.4553 20.3478 18.4188 19.2214 18.9059 18.4542L19.3017 17.8757L19.4052 17.7174L22.34 13.4187C22.7114 12.889 23.2046 12.4628 23.7831 12.1705L26.791 10.7092L24.9826 10.6239C24.5685 10.6057 24.1545 10.6848 23.777 10.8492L21.104 12.0548L19.4052 12.822L19.3017 12.8707L16.9088 13.9484L14.2053 15.1662C13.5964 15.4402 12.8962 15.4646 12.2691 15.2332L0 10.6787V27.8615L5.15118 29.6029L7.03263 30.2361Z" fill="white"/>
    <path d="M39.7296 15.3366L38.2682 14.5512L35.8875 13.2664L35.7718 13.2055L31.6009 10.9587C30.9981 10.6665 30.3223 10.5751 29.6708 10.6847C29.4394 10.7274 29.2141 10.7882 28.9888 10.8796L24.5805 12.9802C23.9655 13.242 23.4419 13.6683 23.0644 14.2163L19.8068 19.0082C19.545 19.4222 19.6059 19.9641 19.9469 20.3051L21.8709 21.6081C22.6199 22.1805 23.2896 21.8334 23.728 21.2002L25.5791 18.3871C26.0053 17.8635 26.5654 17.4738 27.2048 17.2607L28.4652 16.9745C29.3602 16.7858 30.2918 16.9806 31.0286 17.5225L35.7657 21.0784L35.8814 21.1637L38.2621 22.9538L47.8095 30.1143C48.0043 30.2543 48.2479 30.303 48.4793 30.2421L50.1963 29.7611L55.5484 28.2633V10.7943L41.6536 15.4949C41.0265 15.708 40.3263 15.6532 39.7296 15.3366Z" fill="white"/>
    <path d="M21.8409 35.1743L21.5669 34.9551L20.2517 33.9139C20.203 33.8713 20.1482 33.8409 20.0934 33.8104C19.8803 33.6947 19.6368 33.6582 19.4054 33.7008C19.3689 33.7069 19.3323 33.713 19.3019 33.7252C19.0888 33.786 18.8939 33.9017 18.7478 34.0905L17.2925 35.9232L16.909 36.4043L16.568 36.8366C16.2026 37.2993 16.2818 37.9752 16.7385 38.3405L16.909 38.4745L17.2317 38.7302L18.1572 39.4609L18.3337 39.6009C18.6138 39.8262 18.9792 39.881 19.308 39.7836C19.3445 39.7714 19.381 39.7592 19.4115 39.741C19.5759 39.674 19.722 39.5705 19.8377 39.4243L20.885 38.1031L22.0175 36.6783C22.3828 36.2216 22.3037 35.5396 21.8409 35.1743Z" fill="white"/>
    <path d="M25.5001 38.9066L24.5198 38.1333L23.9535 37.6827C23.4908 37.3174 22.8149 37.3966 22.4496 37.8593L21.658 38.8518L21.2257 39.3998C20.8604 39.8626 20.9395 40.5384 21.4023 40.9038L21.9746 41.3604L22.9428 42.1276C23.3446 42.4503 23.917 42.426 24.3006 42.1093C24.3554 42.0606 24.4041 42.0119 24.4528 41.9571L25.6767 40.4166C26.042 39.9539 25.9628 39.2719 25.5001 38.9066Z" fill="white"/>
    <path d="M16.9753 34.4984C17.3101 34.0782 17.2675 33.4754 16.9083 33.0979C16.8718 33.0614 16.8413 33.0248 16.7987 32.9944L16.2629 32.5743L15.2278 31.7523C14.8685 31.4722 14.3814 31.4539 14.01 31.6731C13.9004 31.7401 13.803 31.8193 13.7177 31.9228L12.1468 33.9016C11.9093 34.2 11.8606 34.5958 11.9824 34.9307C12.0494 35.1133 12.159 35.2777 12.3173 35.4056L12.8957 35.8623L13.5838 36.4103L13.8821 36.6477C14.3449 37.0131 15.0207 36.94 15.3861 36.4772L16.269 35.363L16.9144 34.5775L16.9753 34.4984Z" fill="white"/>
    <path d="M10.8266 31.9411L10.3091 31.5879L10.102 31.4479L9.89502 31.3079L9.16435 30.8147C8.65898 30.4737 7.97094 30.6015 7.62387 31.1069L7.47774 31.32C7.13676 31.8254 7.26463 32.5134 7.77 32.8605L7.94049 32.9762L8.49458 33.3537L8.69551 33.4877L9.11564 33.7738L9.43226 33.9869C9.688 34.1574 9.98635 34.2122 10.2664 34.1574C10.5465 34.1026 10.8023 33.9443 10.9727 33.6947L11.1189 33.4755C11.4659 32.9762 11.332 32.2821 10.8266 31.9411Z" fill="white"/>
</svg>
