<svg width="160" height="70" viewBox="0 0 160 70" fill="none" xmlns="http://www.w3.org/2000/svg">
    <path d="M102.026 44.0606L99.2331 35.6199H86.5835L83.7827 44.0606H78.9648L90.7239 6.29443H95.0851L106.844 44.0606H102.026ZM97.7718 30.8173L92.9844 14.7427L88.0296 30.8173H97.7718Z" fill="#312783"/>
    <path d="M106.844 6.29443H111.654V23.2595L123.58 6.29443H129.57L117.598 23.1758L132.265 44.0606H126.381L114.698 27.3543L111.654 31.6165V44.0606H106.844V6.29443Z" fill="#312783"/>
    <path d="M136.368 10.1914H141.178L137.121 44.0607H132.266L136.368 10.1914Z" fill="#312783"/>
    <path d="M142.434 0L141.178 10.1912H146.247L147.51 0H142.434Z" fill="#312783"/>
    <path d="M153.592 37.8956C154.642 36.9823 155.023 35.7036 155.061 34.0672V6.29443H159.833V34.0672C159.795 37.0888 158.737 39.4483 156.865 41.1608C155 42.8809 152.359 44.0606 148.736 44.0606C146.407 44.0606 144.337 43.3147 142.746 42.4775C141.156 41.6403 139.877 40.4377 138.918 38.8698L143.104 36.6702C146.065 40.5443 151.727 39.3874 153.592 37.8956Z" fill="#312783"/>
    <path d="M87.429 61.764C87.429 65.1205 86.6146 66.7492 84.9478 66.7492C83.0754 66.7492 82.0556 65.3945 82.0556 58.2629C82.0556 51.2455 83.0298 49.9592 84.9554 49.9592C85.5262 49.9212 85.9753 50.0962 86.3406 50.4387C87.155 51.2226 87.33 52.7753 87.33 53.9474V54.5106H90.618V53.917C90.618 52.1969 90.618 46.9604 84.9706 46.9604C80.5105 46.9604 78.7676 50.1495 78.7676 58.3466C78.7676 66.5437 80.5029 69.7328 84.9478 69.7328C88.6163 69.7328 90.717 66.8558 90.717 61.8401V61.1855H87.429V61.764Z" fill="#312783"/>
    <path d="M95.6337 59.5565H102.111V56.2609H95.6337V50.6896H102.522V47.394H92.3457V69.3292H102.72V66.0336H95.6337V59.5565Z" fill="#312783"/>
    <path d="M112.447 62.6466L109.395 47.394H104.523V69.3292H107.659V52.9501L110.993 69.3292H113.748L117.082 52.9501V69.3292H120.217V47.394H115.445L112.447 62.6466Z" fill="#312783"/>
    <path d="M126.093 59.5565H132.577V56.2609H126.093V50.6896H132.981V47.394H122.805V69.3292H133.186V66.0336H126.093V59.5565Z" fill="#312783"/>
    <path d="M143.796 62.5325L138.849 47.394H134.982V69.3215H138.118V53.7873L143.065 69.3215H146.932V47.394H143.796V62.5325Z" fill="#312783"/>
    <path d="M148.18 47.394V50.6896H152.488V69.3292H155.768V50.6896H160V47.394H148.18Z" fill="#312783"/>
    <path d="M47.8436 20.3445L51.1544 22.1255L68.5837 16.2269C68.8653 16.1279 69.1622 16.0823 69.4514 16.0594V6.42383H47.8359V20.3445H47.8436Z" fill="#D20A11"/>
    <path d="M63.6746 46.9451C63.53 48.14 62.9515 49.2665 62.0154 50.1189C61.9317 50.195 61.8479 50.2635 61.7566 50.332L59.8691 51.7553C58.7578 52.5925 57.4031 52.9502 56.094 52.8285C55.8352 53.1405 55.546 53.4221 55.2111 53.6657L53.217 55.1042C52.2351 55.812 51.0783 56.1849 49.9138 56.2154C49.7844 56.3752 49.6398 56.535 49.4875 56.6797L47.8359 58.2171V69.55H69.4514V45.3315L63.6746 46.9451Z" fill="#D20A11"/>
    <path d="M10.6861 48.1327C10.7546 48.1327 10.8155 48.1174 10.884 48.1098L10.6328 47.9424C10.648 48.0033 10.6556 48.0718 10.6861 48.1327Z" fill="#D20A11"/>
    <path d="M21.1436 58.8945C20.9837 58.7956 20.8239 58.7042 20.6717 58.5825L18.6852 57.007C18.2818 56.6873 17.9393 56.3144 17.6653 55.911C16.7444 55.812 15.8691 55.4695 15.1308 54.8835L13.1672 53.3308C12.8779 53.1025 12.6268 52.8437 12.3984 52.5621C11.4623 52.5317 10.5489 52.25 9.7574 51.7097L7.67957 50.294C6.57597 49.5481 5.83008 48.4141 5.57892 47.0973C5.55608 46.9756 5.54086 46.8614 5.52564 46.7472L0 44.8901V69.5424H21.136V58.8945H21.1436Z" fill="#D20A11"/>
    <path d="M16.4399 21.8591L21.1436 19.7356V6.42383H0V15.9148C0.342498 15.9377 0.669774 15.9909 0.997051 16.1127L16.4399 21.8591Z" fill="#D20A11"/>
    <path d="M44.7222 59.77C44.1895 59.8537 43.6491 59.869 43.1087 59.7929C43.0098 59.8918 42.9032 59.9907 42.789 60.0821C42.751 60.1125 42.7129 60.143 42.6749 60.1734L41.1298 61.3607C40.0186 62.2132 38.6943 62.6394 37.3623 62.6394C36.1826 62.6394 34.9953 62.3045 33.9602 61.6195L33.2067 61.14C32.3999 62.0533 31.3039 62.6318 30.0785 62.7688C29.8883 62.7916 29.6904 62.7992 29.5001 62.7992C28.3889 62.7992 27.3157 62.4263 26.4328 61.7261L24.5072 60.1962C24.4235 60.1277 24.3398 60.0516 24.2637 59.9755V69.5198H44.7222V59.77Z" fill="#312783"/>
    <path d="M24.2637 18.3275L28.2443 16.5313C29.2337 16.0823 30.3221 15.8692 31.4105 15.9301L33.671 16.0442C34.1885 16.0671 34.668 16.2117 35.1095 16.4324C37.0503 15.7093 39.2118 15.7931 41.0765 16.6988C41.1222 16.7216 41.1679 16.7444 41.2211 16.7673L44.7222 18.6548V6.42383H24.2637V18.3275Z" fill="#312783"/>
    <path d="M8.79079 44.0453C8.79079 44.0453 9.51384 43.1853 10.7621 43.2157C11.9189 43.2462 12.7181 43.9616 13.7228 44.6695C13.8065 44.7303 13.8902 44.7912 13.9815 44.8445C15.108 45.6056 15.3211 46.3211 15.3211 46.3211C15.3211 46.3211 16.0137 45.2175 16.9879 44.6466C17.3304 44.4487 17.6957 44.3117 18.0839 44.3117C19.4691 44.3041 20.1541 45.1033 21.1436 45.9025C21.174 45.9253 21.1968 45.9481 21.2273 45.9633C21.2882 46.009 21.3415 46.0547 21.4023 46.1003C22.544 46.9604 22.7267 47.7139 22.7267 47.7139C23.1909 47.2648 23.6781 47.0669 24.1271 47.0061C24.1728 46.9984 24.2184 46.9908 24.2565 46.9908C24.4772 46.9756 24.6903 46.9908 24.8806 47.0213C25.6037 47.1507 26.1288 47.5236 26.1288 47.5236C26.1288 47.5236 26.829 47.9879 28.1762 49.2285C28.2675 49.3122 28.3512 49.4035 28.435 49.4873C29.4625 50.6441 29.0515 51.7858 29.0515 51.7858C29.668 51.7858 30.4367 52.0903 31.2282 52.6154C31.7991 52.996 32.3851 53.4831 32.9407 54.0844C34.2727 55.5152 33.4735 57.0375 33.4735 57.0375L35.3991 58.2628L35.9319 58.6053C36.8452 59.2218 38.0554 59.1838 38.9306 58.5064L40.4757 57.3191C40.8486 57.007 40.8334 56.4286 40.4452 56.1393L36.8833 53.4831C36.8833 53.4831 36.3429 53.0797 36.7615 52.5774C37.142 52.1207 37.7357 52.5013 37.7357 52.5013L42.7362 55.8882C43.3451 56.2916 44.0986 56.3296 44.7303 56.0404C44.7836 56.0176 44.8292 55.9871 44.8749 55.9643C45.0119 55.8882 45.1489 55.7968 45.2707 55.6827L47.0364 54.0311C47.3637 53.7266 47.3333 53.1862 46.9679 52.9275L44.8749 51.4053L44.7303 51.2987L40.2169 48.0031C40.2169 48.0031 39.7526 47.6073 40.118 47.1126C40.4681 46.6483 41.1607 47.1354 41.1607 47.1354L44.7303 49.6014L44.8749 49.7004L47.8508 51.763L48.4749 52.1968C49.2741 52.7448 50.3244 52.7372 51.1084 52.1664L53.1025 50.7279C53.6809 50.3093 53.6809 49.4492 53.0949 49.0306L47.8432 45.2479L44.8673 43.1016L44.7227 42.995L43.2613 41.9447C42.4546 41.4804 43.1091 40.2246 44.2432 40.9933L44.7303 41.3358L44.8749 41.4347L47.8508 43.5126L55.5456 48.886C56.2002 49.3427 57.0678 49.3198 57.7072 48.8479L59.412 47.5693L59.5947 47.4323C60.3254 46.7625 60.2797 45.7731 59.4805 45.1794L47.8432 36.5789L44.8673 34.3793L44.7227 34.2727L37.6748 29.0591C37.2867 28.7775 36.8072 28.671 36.3353 28.7547L34.4858 29.1048C34.1509 29.1657 33.7094 29.4473 33.5039 29.7289L30.3682 34.0672C29.531 35.0491 28.2523 35.4144 27.1715 34.7294L24.2565 32.7125L24.1271 32.6211L23.9597 32.507C23.0692 31.685 23.0235 30.2769 23.6324 29.3179L24.1271 28.5949L24.2565 28.397L27.925 23.0236C28.3893 22.3614 29.0058 21.8286 29.7289 21.4633L33.4887 19.6366L31.2282 19.5301C30.7107 19.5072 30.1931 19.6062 29.7212 19.8117L26.38 21.3187L24.2565 22.2777L24.1271 22.3386L21.136 23.6857L17.7566 25.2079C16.9955 25.5504 16.1203 25.5809 15.3363 25.2917L0 19.5986V41.077L6.43897 43.2538L8.79079 44.0453Z" fill="#312783"/>
    <path d="M49.6629 25.4212L47.8363 24.4394L44.8603 22.8334L44.7157 22.7573L39.5021 19.9488C38.7486 19.5835 37.9038 19.4693 37.0894 19.6063C36.8002 19.6596 36.5186 19.7357 36.237 19.8499L30.7266 22.4757C29.9579 22.803 29.3033 23.3358 28.8314 24.0208L24.7595 30.0107C24.4322 30.5282 24.5083 31.2056 24.9345 31.6318L27.3396 33.2606C28.2758 33.976 29.113 33.5422 29.661 32.7507L31.9748 29.2343C32.5076 28.5798 33.2078 28.0927 34.0069 27.8263L35.5824 27.4686C36.7013 27.2326 37.8658 27.4762 38.7867 28.1536L44.7081 32.5984L44.8527 32.705L47.8287 34.9427L59.7628 43.8933C60.0064 44.0683 60.3108 44.1292 60.6 44.0531L62.7464 43.4518L69.4365 41.5795V19.7433L52.068 25.6191C51.2841 25.8855 50.4088 25.817 49.6629 25.4212Z" fill="#312783"/>
    <path d="M27.3007 50.2179L26.9582 49.9439L25.3142 48.6424C25.2533 48.5891 25.1848 48.5511 25.1163 48.513C24.8499 48.3684 24.5455 48.3227 24.2562 48.376C24.2106 48.3836 24.1649 48.3912 24.1269 48.4065C23.8605 48.4826 23.6169 48.6272 23.4342 48.8631L21.6152 51.154L21.1357 51.7553L20.7095 52.2957C20.2528 52.8742 20.3518 53.719 20.9226 54.1756L21.1357 54.3431L21.5391 54.6628L22.696 55.5761L22.9167 55.7511C23.2668 56.0327 23.7235 56.1012 24.1345 55.9795C24.1801 55.9642 24.2258 55.949 24.2639 55.9262C24.4694 55.8425 24.652 55.7131 24.7966 55.5304L26.1057 53.8788L27.5214 52.0978C27.9781 51.527 27.8791 50.6746 27.3007 50.2179Z" fill="#312783"/>
    <path d="M31.8761 54.8837L30.6507 53.9171L29.9429 53.3539C29.3644 52.8973 28.5196 52.9962 28.0629 53.5746L27.0735 54.8152L26.5331 55.5002C26.0765 56.0787 26.1754 56.9235 26.7538 57.3802L27.4693 57.951L28.6794 58.91C29.1818 59.3134 29.8972 59.2829 30.3767 58.8872C30.4452 58.8263 30.5061 58.7654 30.567 58.6969L32.0968 56.7713C32.5535 56.1928 32.4545 55.3404 31.8761 54.8837Z" fill="#312783"/>
    <path d="M21.2201 49.3731C21.6387 48.848 21.5854 48.0945 21.1363 47.6226C21.0907 47.5769 21.0526 47.5312 20.9993 47.4932L20.3296 46.968L19.0357 45.9405C18.5866 45.5904 17.9777 45.5676 17.5135 45.8416C17.3765 45.9253 17.2547 46.0243 17.1481 46.1536L15.1845 48.6272C14.8876 49.0002 14.8268 49.4949 14.979 49.9135C15.0627 50.1418 15.1997 50.3473 15.3976 50.5072L16.1206 51.078L16.9807 51.763L17.3536 52.0598C17.9321 52.5165 18.7769 52.4252 19.2336 51.8467L20.3372 50.4539L21.1439 49.4721L21.2201 49.3731Z" fill="#312783"/>
    <path d="M13.5318 46.1766L12.8849 45.7352L12.6261 45.5601L12.3673 45.3851L11.454 44.7686C10.8223 44.3423 9.96221 44.5022 9.52838 45.1339L9.34571 45.4003C8.91949 46.032 9.07932 46.8921 9.71104 47.3259L9.92415 47.4705L10.6168 47.9424L10.8679 48.1098L11.3931 48.4675L11.7889 48.7339C12.1085 48.947 12.4815 49.0155 12.8316 48.947C13.1817 48.8785 13.5014 48.6807 13.7145 48.3686L13.8971 48.0946C14.331 47.4705 14.1635 46.6028 13.5318 46.1766Z" fill="#312783"/>
</svg>
