<svg width="129" height="38" viewBox="0 0 129 38" fill="none" xmlns="http://www.w3.org/2000/svg">
    <path d="M29.0554 34.3956C29.0554 34.1409 28.9793 33.9174 28.8166 33.7433C28.6591 33.5614 28.4518 33.4705 28.1998 33.4705C27.9348 33.4705 27.7274 33.564 27.5752 33.7433C27.4282 33.92 27.3469 34.1435 27.3469 34.4034C27.3469 34.6762 27.4256 34.9023 27.57 35.0634C27.7274 35.2375 27.9426 35.3337 28.2025 35.3337C28.4675 35.3337 28.6775 35.2375 28.835 35.0582C28.9872 34.8893 29.0554 34.6658 29.0554 34.3956ZM25.6567 36.2302C25.7197 35.7391 25.7512 35.1284 25.7512 33.7485C25.7512 32.431 25.704 31.285 25.6016 30.3105L25.5938 30.2611C25.5938 30.2118 25.6489 30.1806 25.746 30.1754C25.8168 30.1754 26.0819 30.1494 26.5569 30.1078C26.885 30.0766 27.1579 30.061 27.3653 30.061C27.4282 30.061 27.4545 30.113 27.4545 30.2092C27.4545 30.3287 27.4466 30.482 27.4309 30.6821C27.4151 30.9264 27.402 31.0823 27.3994 31.1577C27.3784 31.4617 27.3731 31.8775 27.3731 32.405C27.3731 32.496 27.3994 32.5427 27.4466 32.5427C27.4729 32.5427 27.4912 32.5297 27.5175 32.5064C27.793 32.2179 28.1657 32.0698 28.6171 32.0698C29.3074 32.0698 29.8323 32.3011 30.2207 32.7532C30.5776 33.1846 30.7534 33.7433 30.7534 34.4346C30.7534 35.0842 30.5645 35.6273 30.1944 36.0613C29.7903 36.5239 29.268 36.7603 28.6276 36.7603H27.2629C27.213 36.7811 27.1553 36.7603 26.2735 36.7292" fill="#034EA2"/>
    <path d="M36.6531 34.4374C36.6531 34.1905 36.577 33.9774 36.4274 33.7877C36.27 33.598 36.0731 33.5044 35.8264 33.5044C35.5824 33.5044 35.3803 33.598 35.2176 33.7929C35.0653 33.9774 34.9945 34.1905 34.9945 34.4374C34.9945 34.6894 35.0653 34.9103 35.2176 35.087C35.3803 35.2819 35.5824 35.3807 35.8264 35.3807C36.0758 35.3807 36.2752 35.2819 36.4327 35.087C36.5796 34.9103 36.6531 34.6894 36.6531 34.4374ZM38.1779 34.4348C38.1779 35.1416 37.9627 35.7133 37.5245 36.1551C37.0914 36.5994 36.5219 36.8151 35.8238 36.8151C35.1388 36.8151 34.5772 36.5968 34.1363 36.1655C33.698 35.7263 33.4775 35.1754 33.4775 34.4919C33.4775 33.7747 33.6822 33.1952 34.1127 32.7482C34.5299 32.2987 35.1021 32.0752 35.8238 32.0752C36.5219 32.0752 37.0914 32.2909 37.5245 32.7327C37.9627 33.1666 38.1779 33.7305 38.1779 34.4348Z" fill="#034EA2"/>
    <path d="M45.7181 36.5861C45.7181 36.6667 45.6787 36.7186 45.5921 36.729C45.5029 36.742 45.2772 36.7498 44.915 36.7498C44.524 36.7498 44.2799 36.7446 44.1828 36.7238C44.0962 36.7056 44.0463 36.6355 44.0463 36.5315C44.0463 36.3886 44.0463 36.1729 44.0595 35.8767C44.0699 35.583 44.0699 35.3673 44.0699 35.2114C44.0699 35.1049 44.0699 34.9308 44.0647 34.7047C44.0594 34.4734 44.0595 34.3045 44.0595 34.1927C44.0595 33.7692 43.8705 33.5587 43.4978 33.5587C43.3797 33.5587 43.238 33.608 43.0779 33.712C42.8994 33.8315 42.8128 33.9433 42.8128 34.0576V36.5627C42.8128 36.664 42.7682 36.7212 42.6764 36.7316C42.5635 36.7446 42.3483 36.7524 42.0097 36.7524C41.6449 36.7524 41.4035 36.7472 41.3038 36.7264C41.2014 36.7082 41.1515 36.6589 41.1515 36.5731C41.1515 36.334 41.1515 35.9702 41.1594 35.4817C41.1647 34.9957 41.1647 34.6345 41.1647 34.3902C41.1647 33.6236 41.1017 33.013 40.9757 32.5738C40.9705 32.553 40.96 32.5244 40.96 32.5062C40.96 32.4568 40.9862 32.4257 41.0387 32.3997C41.2277 32.3893 41.4927 32.3529 41.8182 32.3009C42.3089 32.2074 42.5871 32.158 42.6501 32.158C42.6869 32.158 42.7105 32.2645 42.7393 32.4672C42.7577 32.6751 42.7813 32.7869 42.8128 32.7869C42.7866 32.7869 42.9519 32.6725 43.3167 32.4594C43.6894 32.249 44.0096 32.1372 44.2878 32.1372C44.6841 32.1372 45.0069 32.2308 45.2693 32.4153C45.5659 32.6284 45.7155 32.9194 45.7155 33.3066V34.7852C45.7155 34.9827 45.7207 35.2842 45.7207 35.6818V36.5861H45.7181Z" fill="#034EA2"/>
    <path d="M52.0825 34.4035C52.0825 34.1618 51.9932 33.9409 51.8226 33.7564C51.6547 33.5823 51.4473 33.4836 51.2085 33.4836C50.9566 33.4836 50.7492 33.5849 50.6023 33.7564C50.4553 33.9435 50.3792 34.1696 50.3792 34.4217C50.3792 34.6764 50.4553 34.892 50.6023 35.0662C50.7571 35.2507 50.9566 35.3416 51.2085 35.3416C51.4605 35.3416 51.6599 35.2507 51.8305 35.0662C51.9958 34.8765 52.0825 34.653 52.0825 34.4035ZM53.1585 36.7605L50.8175 36.7709C50.164 36.7709 49.6417 36.5474 49.2507 36.0848C48.8754 35.656 48.6917 35.1025 48.6917 34.4373C48.6917 33.7668 48.8754 33.2133 49.2454 32.7767C49.6365 32.309 50.1666 32.0855 50.8306 32.0855C51.2977 32.0855 51.6625 32.2336 51.925 32.5351C51.9644 32.5844 51.9932 32.6078 52.0116 32.6078C52.0457 32.6078 52.0562 32.5715 52.0562 32.4909C52.0562 32.2492 52.051 31.8958 52.0378 31.4228C52.0247 30.9473 52.0195 30.5939 52.0195 30.36C52.0195 30.2716 52.0457 30.2171 52.093 30.2041C52.2924 30.1989 52.5601 30.1781 52.9065 30.1547C53.5285 30.0794 53.8067 30.043 53.7332 30.043C53.8015 30.043 53.8382 30.0794 53.8382 30.1547C53.8382 30.0923 53.8251 30.1911 53.8015 30.4665C53.7621 30.8044 53.7385 31.2461 53.7254 31.7763C53.6991 32.387 53.686 33.0704 53.686 33.8422C53.686 35.1129 53.7332 35.6534 53.8015 36.194" fill="#034EA2"/>
    <path d="M58.486 31.1501C58.486 31.6855 58.1815 31.9609 57.5805 31.9609C57.3155 31.9609 57.1029 31.8934 56.9349 31.7478C56.7486 31.6049 56.6567 31.3996 56.6567 31.1501C56.6567 30.9059 56.7486 30.7136 56.9402 30.5577C57.1213 30.4147 57.3312 30.3472 57.5805 30.3472C57.822 30.3472 58.0346 30.4147 58.2104 30.5655C58.3968 30.7136 58.486 30.9111 58.486 31.1501ZM58.3758 34.5908C58.3758 34.822 58.3784 35.1521 58.3915 35.599C58.4046 36.046 58.4099 36.3838 58.4099 36.6047C58.4099 36.6645 58.3679 36.7061 58.2918 36.7216C58.1842 36.7398 57.9453 36.7476 57.5805 36.7476C57.2026 36.7476 56.9638 36.7424 56.8588 36.7216C56.788 36.7087 56.7486 36.6905 56.7223 36.6593V36.5216C56.7223 36.3085 56.7223 35.9862 56.7381 35.5627C56.7486 35.1313 56.7486 34.8116 56.7486 34.5882C56.7486 33.7124 56.7197 33.0186 56.6462 32.4988C56.641 32.4495 56.6357 32.4183 56.6357 32.4027C56.6357 32.3455 56.6804 32.3065 56.7617 32.3065C56.8509 32.3065 56.9822 32.3195 57.1633 32.3403C57.3417 32.3559 57.4808 32.3715 57.5674 32.3715C57.654 32.3715 57.7958 32.3559 57.969 32.3481C58.1527 32.3273 58.2839 32.3195 58.3784 32.3195C58.4545 32.3195 58.4834 32.3507 58.4834 32.4079C58.4834 32.4261 58.4834 32.4547 58.4781 32.4988C58.4073 33.0991 58.3758 33.806 58.3758 34.5908Z" fill="#034EA2"/>
    <path d="M66.139 36.5861C66.139 36.6667 66.097 36.7186 66.013 36.729C65.9238 36.742 65.6981 36.7498 65.3333 36.7498C64.9422 36.7498 64.6982 36.7446 64.6037 36.7238C64.5145 36.7056 64.4646 36.6355 64.4646 36.5315C64.4646 36.3886 64.4646 36.1729 64.4777 35.8767C64.4908 35.583 64.4908 35.3673 64.4908 35.2114C64.4908 35.1049 64.4908 34.9308 64.483 34.7047C64.4777 34.4734 64.4777 34.3045 64.4777 34.1927C64.4777 33.7692 64.2888 33.5587 63.924 33.5587C63.798 33.5587 63.6615 33.608 63.4935 33.712C63.3203 33.8315 63.2311 33.9433 63.2311 34.0576V36.5627C63.2311 36.664 63.1865 36.7212 63.092 36.7316C62.9792 36.7446 62.7587 36.7524 62.4228 36.7524C62.058 36.7524 61.827 36.7472 61.7142 36.7264C61.6197 36.7082 61.5672 36.6589 61.5672 36.5731C61.5672 36.334 61.5672 35.9702 61.5751 35.4817C61.5803 34.9957 61.5803 34.6345 61.5803 34.3902C61.5803 33.6236 61.5173 33.013 61.3914 32.5738C61.3835 32.553 61.3809 32.5244 61.3809 32.5062C61.3809 32.4568 61.4071 32.4257 61.4491 32.3997C61.6433 32.3893 61.911 32.3529 62.2364 32.3009C62.7272 32.2074 63.0106 32.158 63.0684 32.158C63.1051 32.158 63.1366 32.2645 63.1497 32.4672C63.176 32.6751 63.1996 32.7869 63.2311 32.7869C63.1996 32.7869 63.3702 32.6725 63.735 32.4594C64.1077 32.249 64.4252 32.1372 64.7034 32.1372C65.0945 32.1372 65.4278 32.2308 65.6876 32.4153C65.9894 32.6284 66.1337 32.9194 66.1337 33.3066V34.7852C66.1337 34.9827 66.1337 35.2842 66.139 35.6818V36.5861Z" fill="#034EA2"/>
    <path d="M72.2853 34.2348C72.2853 34.0113 72.2066 33.819 72.057 33.6579C71.9048 33.4812 71.7184 33.4058 71.4901 33.4058C71.2644 33.4058 71.0702 33.4942 70.918 33.6579C70.7658 33.8242 70.6923 34.0165 70.6923 34.24C70.6923 34.4661 70.771 34.6583 70.9259 34.8273C71.0755 34.9884 71.2697 35.0637 71.4901 35.0637C71.7184 35.0637 71.9048 34.9884 72.057 34.8221C72.2066 34.6532 72.2853 34.4583 72.2853 34.2348ZM73.8941 35.5185C73.8941 36.3968 73.7052 37.0283 73.3404 37.4077C72.9519 37.8027 72.3089 38.0002 71.414 38.0002C71.1568 38.0002 70.7973 37.956 70.3485 37.8729C69.7685 37.7689 69.4798 37.6442 69.4798 37.5065C69.4798 37.4519 69.5507 37.1453 69.674 36.5969C69.7002 36.5112 69.737 36.467 69.7816 36.467C69.7921 36.4748 69.8131 36.4748 69.8315 36.4852C70.3091 36.7191 70.75 36.836 71.1594 36.836C71.3825 36.836 71.603 36.7711 71.8287 36.6645C72.0964 36.5268 72.2302 36.3657 72.2302 36.1682V35.8615C71.9179 36.1526 71.5059 36.2981 71.0098 36.2981C70.422 36.2981 69.9364 36.098 69.5664 35.6744C69.1937 35.2768 69.0205 34.7831 69.0205 34.1906C69.0205 33.6059 69.1963 33.1174 69.5375 32.7276C69.9076 32.3222 70.38 32.1221 70.9705 32.1221C71.4376 32.1221 71.7972 32.291 72.0413 32.6262C72.0885 32.6938 72.1279 32.7302 72.1515 32.7302C72.1804 32.7302 72.1961 32.6678 72.1961 32.5638C72.1961 32.3066 72.2171 32.1818 72.2853 32.1818C72.3352 32.1818 72.6081 32.2104 73.0963 32.2598C73.5844 32.3092 73.839 32.3482 73.8574 32.3508C73.9151 32.3715 73.9387 32.4079 73.9387 32.4703C73.9387 32.6808 73.9256 33.0004 73.9125 33.424C73.8941 33.8476 73.8889 34.1672 73.8889 34.3777C73.8889 34.5024 73.8889 34.6973 73.8941 34.9494V35.5185Z" fill="#034EA2"/>
    <path d="M86.909 33.7307C86.909 33.806 86.8696 33.8398 86.7883 33.8398C86.4471 33.8398 86.1846 33.8346 85.9904 33.819C85.9957 34.0503 86.0062 34.3725 86.0219 34.7909C86.0219 34.965 86.0324 35.2639 86.0534 35.7004C86.0797 36.098 86.0902 36.3969 86.0902 36.6203C86.0902 36.6827 86.0482 36.7217 85.9616 36.7321C85.8592 36.7451 85.5941 36.7503 85.1795 36.7503C84.8278 36.7503 84.5995 36.7373 84.4919 36.7191C84.3843 36.7009 84.3344 36.6437 84.3344 36.5268V33.9827C84.3344 33.8892 84.2714 33.8476 84.1454 33.8476C84.1218 33.8476 84.0877 33.8528 84.0352 33.8528H83.9302C83.8436 33.8528 83.799 33.8268 83.799 33.78C83.7675 33.5098 83.7544 33.1174 83.7544 32.5976C83.7544 32.4807 83.8121 32.4131 83.9302 32.3923C84.0352 32.382 84.1454 32.369 84.253 32.369C84.2347 32.1195 84.2268 31.9246 84.2268 31.7817C84.2268 31.2593 84.3344 30.8721 84.5417 30.6279C84.9564 30.1471 85.6151 29.9106 86.5363 29.9106C86.5967 29.9106 86.6387 29.9314 86.6492 29.9626C86.6754 30.1055 86.7122 30.3082 86.7541 30.5837C86.762 30.6097 86.7804 30.698 86.825 30.8462C86.8486 30.9657 86.8618 31.0514 86.8618 31.1086C86.8618 31.1892 86.7489 31.2386 86.5337 31.2593C86.2817 31.2931 86.1243 31.3321 86.0665 31.3971C85.9589 31.5088 85.9091 31.7271 85.9091 32.0441C85.9091 32.1455 85.9222 32.2442 85.9327 32.3326C86.0219 32.3326 86.1558 32.3326 86.3421 32.317C86.5258 32.317 86.657 32.3118 86.7515 32.3118C86.846 32.3118 86.8985 32.3482 86.8985 32.4183V33.0654C86.909 33.3694 86.909 33.5903 86.909 33.7307Z" fill="#034EA2"/>
    <path d="M93.2706 34.4374C93.2706 34.1905 93.1866 33.9774 93.037 33.7877C92.8848 33.598 92.6906 33.5044 92.4387 33.5044C92.1998 33.5044 91.9899 33.598 91.835 33.7929C91.6828 33.9774 91.6067 34.1905 91.6067 34.4374C91.6067 34.6894 91.6828 34.9103 91.835 35.087C91.9899 35.2819 92.1998 35.3807 92.4387 35.3807C92.6906 35.3807 92.8848 35.2819 93.0449 35.087C93.1919 34.9103 93.2706 34.6894 93.2706 34.4374ZM94.7876 34.4348C94.7876 35.1416 94.5697 35.7133 94.1393 36.1551C93.7037 36.5994 93.1394 36.8151 92.436 36.8151C91.7511 36.8151 91.1947 36.5968 90.7538 36.1655C90.3129 35.7263 90.0872 35.1754 90.0872 34.4919C90.0872 33.7747 90.3024 33.1952 90.7223 32.7482C91.1422 32.2987 91.7117 32.0752 92.436 32.0752C93.1368 32.0752 93.701 32.2909 94.1393 32.7327C94.5671 33.1666 94.7876 33.7305 94.7876 34.4348Z" fill="#034EA2"/>
    <path d="M100.632 33.824C100.632 33.941 100.572 34.0059 100.435 34.0059C100.378 34.0059 100.294 33.9956 100.176 33.9956C100.063 33.9852 99.9814 33.98 99.9237 33.98C99.6665 33.98 99.488 34.0189 99.3935 34.0995C99.3017 34.1801 99.257 34.3464 99.257 34.5906C99.257 34.7284 99.257 34.9285 99.2623 35.1961C99.2623 35.4638 99.2675 35.6639 99.2675 35.799C99.2675 35.8848 99.2728 36.0225 99.2859 36.1992C99.2938 36.3811 99.3017 36.511 99.3017 36.5968C99.3017 36.6722 99.2518 36.7163 99.1521 36.7215C99.0051 36.7345 98.7715 36.7397 98.4671 36.7397C98.1758 36.7397 97.9369 36.7319 97.7611 36.7163C97.6587 36.7033 97.6063 36.654 97.6063 36.5578C97.6063 36.3083 97.6115 35.9419 97.6115 35.4482V34.3386C97.6115 33.6187 97.5511 33.0211 97.4121 32.5455C97.3989 32.5169 97.3989 32.4935 97.3989 32.4753C97.3989 32.426 97.4252 32.3922 97.4698 32.3818C97.643 32.361 97.8976 32.3324 98.2309 32.2804C98.7243 32.1817 98.9736 32.1323 98.9946 32.1323C99.0445 32.1323 99.0812 32.2285 99.0943 32.4286C99.1074 32.6287 99.1389 32.7274 99.1678 32.7274C99.1311 32.7274 99.257 32.6417 99.5536 32.4805C99.8528 32.3168 100.144 32.2285 100.414 32.2285C100.59 32.2285 100.679 32.2675 100.679 32.3454C100.679 32.4286 100.674 32.5611 100.656 32.7248C100.632 32.9067 100.63 33.0289 100.624 33.1042C100.624 33.1926 100.624 33.3095 100.63 33.4602C100.632 33.6421 100.632 33.7695 100.632 33.824Z" fill="#034EA2"/>
    <path d="M106.458 33.9045C106.458 33.7148 106.39 33.5511 106.249 33.4056C106.112 33.2626 105.949 33.1925 105.758 33.1925C105.564 33.1925 105.406 33.2678 105.272 33.4264C105.157 33.5797 105.099 33.7512 105.099 33.9539C105.099 34.0396 105.141 34.076 105.23 34.076C105.459 34.076 105.816 34.0474 106.301 33.9747C106.406 33.9669 106.458 33.9409 106.458 33.9045ZM108.075 34.1904C108.075 34.5022 107.975 34.6763 107.773 34.7283C107.742 34.7283 107.422 34.7673 106.815 34.814C106.451 34.8504 105.902 34.9024 105.18 34.9492C105.23 35.1648 105.356 35.3182 105.569 35.4247C105.75 35.5157 105.96 35.565 106.188 35.565C106.458 35.565 106.731 35.4871 107.018 35.3416C107.133 35.2636 107.251 35.1908 107.369 35.1129C107.435 35.1519 107.542 35.3078 107.695 35.5858C107.849 35.8769 107.923 36.0562 107.923 36.1367C107.923 36.1549 107.899 36.1861 107.863 36.2459C107.485 36.6487 106.892 36.8488 106.091 36.8488C105.356 36.8488 104.76 36.6357 104.312 36.2069C103.839 35.7651 103.606 35.1908 103.606 34.4606C103.606 33.7512 103.818 33.1639 104.233 32.7117C104.661 32.2414 105.23 32.0127 105.934 32.0127C106.535 32.0127 107.036 32.2258 107.453 32.6546C107.873 33.0807 108.075 33.5953 108.075 34.1904Z" fill="#034EA2"/>
    <path d="M115.578 33.5017C115.578 34.0292 115.568 34.3385 115.529 34.4346C115.46 34.6529 115.237 35.0271 114.886 35.552C114.579 35.999 114.313 36.355 114.096 36.6123C114.012 36.7058 113.768 36.7526 113.358 36.7526C113.006 36.7526 112.773 36.7396 112.665 36.7162C112.602 36.7032 112.547 36.6642 112.508 36.6201C112.322 36.42 112.054 36.0717 111.707 35.5728C111.337 35.0349 111.117 34.6737 111.046 34.4736C110.97 34.2631 110.936 33.9383 110.936 33.5173V32.969C110.936 32.7299 110.941 32.5454 110.941 32.4207C110.941 32.3401 110.999 32.3037 111.106 32.3037C111.261 32.3037 111.503 32.3089 111.823 32.3089C112.138 32.3219 112.371 32.3245 112.534 32.3245C112.61 32.3245 112.636 32.3791 112.636 32.47C112.636 32.5636 112.636 32.6909 112.623 32.8624C112.61 33.0365 112.605 33.1665 112.605 33.2626C112.605 33.5796 112.615 33.8395 112.631 34.0474C112.636 34.1539 112.731 34.3514 112.907 34.6373C113.083 34.9465 113.209 35.0999 113.29 35.0999C113.363 35.0999 113.492 34.9491 113.66 34.6503C113.817 34.3644 113.912 34.1773 113.925 34.076C113.943 33.8525 113.962 33.5926 113.962 33.2782C113.962 33.1924 113.951 33.0547 113.93 32.8728C113.912 32.6909 113.907 32.561 113.907 32.4752C113.907 32.3817 113.938 32.3323 114.001 32.3323C114.075 32.3323 114.187 32.3323 114.332 32.3375C114.481 32.3375 114.597 32.3453 114.673 32.3453C114.741 32.3453 114.862 32.3323 115.012 32.3167C115.156 32.3037 115.269 32.3037 115.342 32.3037C115.424 32.3037 115.476 32.3427 115.502 32.4232C115.555 32.6 115.578 32.9586 115.578 33.5017Z" fill="#034EA2"/>
    <path d="M121.384 33.9045C121.384 33.7148 121.31 33.5511 121.176 33.4056C121.043 33.2626 120.88 33.1925 120.693 33.1925C120.497 33.1925 120.337 33.2678 120.205 33.4264C120.087 33.5797 120.027 33.7512 120.027 33.9539C120.027 34.0396 120.069 34.076 120.158 34.076C120.392 34.076 120.751 34.0474 121.237 33.9747C121.331 33.9669 121.384 33.9409 121.384 33.9045ZM123.006 34.1904C123.006 34.5022 122.906 34.6763 122.706 34.7283C122.667 34.7283 122.347 34.7673 121.743 34.814C121.378 34.8504 120.835 34.9024 120.111 34.9492C120.148 35.1648 120.284 35.3182 120.502 35.4247C120.678 35.5157 120.885 35.565 121.111 35.565C121.384 35.565 121.665 35.4871 121.943 35.3416C122.056 35.2636 122.176 35.1908 122.289 35.1129C122.36 35.1519 122.476 35.3078 122.622 35.5858C122.783 35.8769 122.859 36.0562 122.859 36.1367C122.859 36.1549 122.832 36.1861 122.788 36.2459C122.405 36.6487 121.825 36.8488 121.027 36.8488C120.284 36.8488 119.694 36.6357 119.24 36.2069C118.772 35.7651 118.539 35.1908 118.539 34.4606C118.539 33.7512 118.744 33.1639 119.156 32.7117C119.591 32.2414 120.155 32.0127 120.867 32.0127C121.457 32.0127 121.961 32.2258 122.384 32.6546C122.793 33.0807 123.006 33.5953 123.006 34.1904Z" fill="#034EA2"/>
    <path d="M6.71587 28.754C6.67912 28.5565 6.5479 27.621 6.70275 26.9558C6.7946 26.844 6.62139 26.2957 6.19622 26.7193C6.0755 26.844 5.28291 28.2213 6.71587 28.754Z" fill="white"/>
    <path d="M16.555 26.8129C17.3738 26.7609 18.6782 26.592 19.8723 26.1762V25.7449V25.4902C18.0404 26.1762 15.786 26.2126 15.4422 26.1866C15.0643 27.0286 14.4843 27.1793 14.3793 27.2105C14.2034 28.3565 13.3951 28.3097 13.3138 28.2967C13.1615 28.2681 13.1615 28.3331 13.13 28.3955C12.8414 29.4661 12.0409 29.2946 11.747 29.2452C11.4241 29.8689 10.915 29.9027 10.5922 29.8793C9.77599 30.898 9.05164 30.1678 8.79181 30.0144C7.40348 30.1989 6.99406 29.4115 6.9232 29.2322C5.50074 29.0945 5.45088 28.0291 5.47975 27.6964C4.45096 27.3742 4.29612 26.644 4.27775 26.4491C3.72398 26.3036 1.69528 25.9294 1.16251 25.7397C0.894819 25.6929 0.317438 25.498 0.015625 25.394V25.6773V26.0775C0.325311 26.1762 0.739976 26.3192 0.991924 26.3737C1.35147 26.4855 2.12569 26.6544 2.87366 26.8103C3.10461 26.8597 3.33294 26.9091 3.48516 26.9454V35.3624C3.55864 35.3261 3.63213 35.2871 3.72398 35.2507L3.98643 35.1494V27.1481C4.16227 27.4496 4.45621 27.764 4.95486 27.9927C4.98635 28.211 5.04409 28.476 5.19893 28.7307C5.39052 29.0737 5.79206 29.4973 6.58727 29.6532C6.68962 29.8013 6.83659 29.9755 7.06492 30.1262C7.267 30.2743 7.50583 30.373 7.76565 30.4354V34.2372L8.16719 34.2034V30.4978C8.32991 30.5134 8.48738 30.5134 8.65797 30.4978C8.85218 30.6355 9.15399 30.8252 9.54503 30.8668C9.87572 30.898 10.356 30.8278 10.8415 30.3367C11.2693 30.3081 11.6236 30.1548 11.8913 29.8741V34.2138L12.159 34.245C12.2089 34.2502 12.2509 34.2606 12.3007 34.271L12.2955 29.739C12.3847 29.7286 12.5107 29.7078 12.634 29.6636C12.9358 29.5649 13.3164 29.318 13.5552 28.7515C13.7442 28.7281 13.9699 28.6605 14.1851 28.5098C14.4134 28.3513 14.6942 28.0602 14.8412 27.5327C15.2112 27.3508 15.5262 27.052 15.7676 26.6518C15.8542 26.6518 15.9566 26.6466 16.0642 26.6466V35.2091L16.198 35.2585C16.324 35.3079 16.4421 35.3676 16.5628 35.4248V26.8129H16.555Z" fill="white"/>
    <path d="M8.27237 29.5311C7.7816 28.5566 7.85771 27.6757 7.79997 27.4236C7.72911 26.8805 7.25933 27.013 7.21471 27.3742C7.16485 27.5379 7.07037 28.0707 7.24096 28.7047C7.34069 29.2634 8.04667 29.6688 8.27237 29.5311Z" fill="white"/>
    <path d="M5.5008 26.9298C5.55854 26.7998 5.57954 26.6595 5.31184 26.4412C5.16225 26.2775 4.73971 26.2021 4.85519 26.6127C4.92867 26.7686 5.20162 27.1714 5.5008 26.9298Z" fill="white"/>
    <path d="M8.76825 21.0464C10.0989 20.6982 11.6263 21.14 12.1748 21.2413C12.4845 21.2881 13.0697 21.3453 13.0986 21.3453C13.5763 21.3842 13.6839 21.5246 13.7364 21.5739C14.0198 21.7533 14.0697 21.6831 14.1563 21.6493C15.1877 21.3115 18.526 19.6302 19.8723 18.8999V18.1645C18.7569 18.7752 15.1378 20.5709 14.0434 20.9373C13.8912 20.8177 13.6471 20.6748 13.1511 20.6228H13.138H13.1275C13.0566 20.6228 12.5317 20.5735 12.2693 20.5319C12.1932 20.5189 12.0882 20.4981 11.9596 20.4695C11.23 20.324 9.87577 20.0407 8.63441 20.3552C8.162 20.4617 7.76309 20.6852 7.48489 21.0048C4.22269 20.2253 0.149533 17.6396 0.104917 17.6136L0.0078125 17.5435V17.5824V18.2841C0.892255 18.8454 4.68985 21.166 7.72372 21.787C8.02028 21.2101 8.64228 21.0776 8.76825 21.0464Z" fill="white"/>
    <path d="M13.7417 22.052C13.4347 21.8571 13.2011 21.8259 12.9229 21.8415C12.6316 21.8701 12.419 21.8077 12.3062 21.7558C9.73681 21.1529 9.15943 21.4153 8.90486 21.4595C8.17789 21.6024 8.17789 21.8259 8.15164 21.9013C8.04404 22.4236 7.88657 22.538 7.71073 22.7562C7.3748 23.0499 7.50078 23.1252 7.56376 23.1746C8.55843 23.5852 9.30903 22.6861 9.56622 22.447C10.9309 22.3638 11.9072 23.4657 12.0883 23.8009C12.3272 24.383 13.1329 25.108 13.4058 25.3055C14.0672 25.82 14.1617 26.2592 14.285 26.6464C14.8598 26.4801 15.096 25.8902 15.1406 25.7083C17.0905 25.8902 18.8988 25.3237 19.8698 24.9833V19.3364C18.3975 20.1472 15.1301 21.7921 14.6839 22.0052C14.0488 22.3612 13.9307 22.1482 13.7417 22.052Z" fill="white"/>
    <path d="M5.86035 26.2491C6.8314 25.8151 7.1962 26.4621 7.21982 26.7012C8.02028 26.3894 8.22762 27.0235 8.21449 27.1794C8.24074 27.6263 8.32472 28.211 8.34047 28.2682C8.44545 28.8477 8.6659 29.1258 8.67902 29.1543C8.92572 29.5831 9.42437 29.7546 9.48473 29.7754C10.0017 30.0119 10.0201 29.6273 9.92039 29.4532C9.51098 28.7619 9.22229 28.2994 9.15667 28.1201C8.95722 27.6601 9.47423 27.6835 9.61595 27.985C9.87315 28.5151 10.1697 28.8997 10.2065 28.975C10.4269 29.3544 10.692 29.344 10.7287 29.3544C11.02 29.3804 11.2904 29.0556 11.1066 28.8113C10.9046 28.5203 10.6867 28.1772 10.608 28.1097C10.3009 27.7095 10.2484 27.6367 10.2117 27.5354C10.0149 27.0884 10.4453 26.9819 10.6132 27.2859C10.7104 27.3847 10.8127 27.5588 10.8363 27.5952C11.0699 27.9953 11.398 28.3384 11.5108 28.5151C11.8677 28.9932 12.2115 28.7619 12.2982 28.7074C12.4687 28.6138 12.5291 28.3851 12.5239 28.3462C12.4058 27.8654 12.1538 27.5848 12.1223 27.5354C11.9543 27.2625 11.6919 26.8883 11.663 26.8389C11.335 26.3816 11.4609 26.0412 11.4924 25.9658C11.6263 25.6592 11.8756 25.7475 11.9097 25.971C11.9229 26.1139 11.9386 26.2776 12.0042 26.4154C12.2142 26.9039 12.621 27.3509 12.7837 27.5952C12.8545 27.6601 12.8782 27.7303 13.012 27.7719C13.5605 27.7978 13.8282 27.2625 13.8492 27.0754C13.8859 26.6129 13.6734 26.3894 13.4949 26.0905C13.0855 25.5162 12.4766 25.0745 12.3953 24.9679C12.1302 24.7444 12.041 24.5729 12.0278 24.5313C11.7811 24.1312 11.5502 23.7777 11.4609 23.7024C10.8626 23.1099 10.2721 23.0475 10.2143 23.0345C9.98863 22.9748 9.72356 22.9488 9.64745 22.9748C9.04907 23.5828 8.09902 23.6972 8.0439 23.7024C7.19358 23.8245 7.04136 23.3464 7.01249 23.2866C6.92326 23.0397 7.17521 22.7955 7.25919 22.7071C7.50327 22.4836 7.61612 22.3121 7.64236 22.2056C4.61899 21.6443 0.887006 19.5056 0.0078125 18.9858L0.0130614 24.8302C0.511708 25.0563 2.02602 25.667 4.63473 25.9658C5.48243 25.576 5.73963 26.0827 5.86035 26.2491Z" fill="white"/>
    <path d="M4.27524 26.449C4.29361 26.6439 4.44846 27.3741 5.47724 27.6963C5.451 28.0289 5.49824 29.0944 6.92332 29.2321C6.99156 29.4114 7.40097 30.1988 8.79194 30.0143C9.05176 30.1676 9.77348 30.8978 10.5923 29.8766C10.9125 29.8974 11.4243 29.8636 11.7445 29.2425C12.0384 29.2919 12.8362 29.466 13.1275 28.3927C13.1564 28.3304 13.1564 28.268 13.3086 28.294C13.39 28.307 14.1957 28.3538 14.3742 27.2078C14.4791 27.1766 15.0591 27.0259 15.4371 26.1839C15.7835 26.2099 18.0379 26.1735 19.8671 25.4875V24.9755C18.8987 25.3185 17.0905 25.8824 15.1379 25.7005C15.0933 25.8824 14.8571 26.4723 14.2823 26.6387C14.159 26.2515 14.0618 25.8097 13.4031 25.2978C13.1328 25.1003 12.3245 24.3778 12.0883 23.7931C11.9019 23.4579 10.9282 22.3561 9.5609 22.4392C9.30371 22.6783 8.55311 23.5774 7.55844 23.1669C7.49808 23.1175 7.36948 23.0421 7.70541 22.7511C7.87862 22.5354 8.03609 22.4211 8.14632 21.8961C8.17256 21.8234 8.17256 21.5973 8.90216 21.4544C9.15149 21.4102 9.73149 21.1477 12.3008 21.7506C12.4137 21.8 12.6263 21.8623 12.9176 21.8364C13.1932 21.8234 13.4267 21.8545 13.7364 22.0468C13.9254 22.143 14.0435 22.3561 14.6812 21.9949C15.1274 21.7818 18.3948 20.1368 19.8671 19.3261V18.8947C18.5234 19.6249 15.1851 21.3036 14.1537 21.6441C14.0618 21.6778 14.0146 21.748 13.7312 21.5687C13.6787 21.5193 13.5737 21.3816 13.0934 21.34C13.0619 21.34 12.4767 21.2828 12.1696 21.2361C11.6211 21.1347 10.0937 20.693 8.76307 21.0412C8.63709 21.0724 8.0151 21.2049 7.71853 21.7818C4.68466 21.1581 0.887067 18.8401 0 18.2788V18.9804C0.881818 19.5002 4.6138 21.6415 7.63717 22.2028C7.61093 22.3067 7.49808 22.4808 7.254 22.7043C7.17002 22.7901 6.91807 23.0369 7.0073 23.2838C7.0388 23.341 7.19102 23.8217 8.03872 23.6996C8.09645 23.6944 9.04913 23.58 9.64488 22.972C9.72099 22.946 9.98606 22.972 10.2118 23.0317C10.2695 23.0447 10.86 23.1097 11.4558 23.6996C11.545 23.7749 11.7812 24.1284 12.0253 24.5285C12.0358 24.5675 12.125 24.739 12.3901 24.9651C12.4714 25.0717 13.0829 25.5134 13.4923 26.0877C13.6656 26.3866 13.8808 26.6101 13.844 27.0726C13.823 27.2597 13.5527 27.795 13.0042 27.7691C12.873 27.7275 12.8493 27.6599 12.7759 27.5924C12.6105 27.3481 12.2037 26.8985 11.9964 26.4126C11.9255 26.2748 11.9177 26.1111 11.8993 25.9682C11.8678 25.7447 11.6185 25.659 11.4846 25.963C11.4531 26.0384 11.3298 26.3788 11.6552 26.8361C11.6867 26.8829 11.9465 27.2597 12.1145 27.5352C12.1486 27.5846 12.4006 27.8652 12.5187 28.3434C12.5239 28.3823 12.4636 28.6136 12.2903 28.7046C12.2037 28.7591 11.8626 28.9904 11.503 28.5123C11.3928 28.3356 11.0621 27.9925 10.8311 27.5924C10.8075 27.5586 10.7052 27.3819 10.6133 27.2831C10.4427 26.9765 10.0123 27.083 10.2091 27.5326C10.2433 27.6313 10.2984 27.7067 10.6054 28.1043C10.6789 28.1719 10.902 28.5175 11.1015 28.8059C11.2852 29.0502 11.0149 29.375 10.7262 29.349C10.6868 29.3386 10.4243 29.349 10.2039 28.9696C10.1645 28.8943 9.87059 28.5097 9.61077 27.9796C9.46642 27.6781 8.9494 27.6547 9.15149 28.1147C9.21447 28.2966 9.50316 28.7566 9.9152 29.4478C10.0123 29.6219 9.99656 30.0091 9.48217 29.77C9.41656 29.7492 8.92053 29.5777 8.67383 29.1515C8.66071 29.1204 8.44026 28.8423 8.33266 28.2628C8.31953 28.2056 8.2303 27.6235 8.20668 27.174C8.2198 27.0181 8.01247 26.3814 7.21201 26.6958C7.18839 26.4568 6.82097 25.8097 5.85254 26.2437C5.73182 26.0747 5.47462 25.5706 4.62692 25.9578C2.01821 25.6616 0.503896 25.0483 0.00524891 24.8222V25.3861C0.309686 25.4901 0.884443 25.6823 1.15214 25.7317C1.69278 25.9292 3.72148 26.3008 4.27524 26.449ZM7.21464 27.3741C7.25925 27.0129 7.73165 26.8803 7.79989 27.4234C7.85763 27.6755 7.78152 28.559 8.27229 29.5309C8.04397 29.6687 7.34061 29.2633 7.24088 28.7046C7.07029 28.0705 7.16477 27.5352 7.21464 27.3741ZM6.19897 26.7192C6.62151 26.2956 6.79735 26.8439 6.70549 26.9557C6.54802 27.6261 6.67925 28.5565 6.71599 28.754C5.28041 28.2212 6.07562 26.8439 6.19897 26.7192ZM5.3119 26.4386C5.57697 26.6594 5.5586 26.7998 5.49824 26.9271C5.19905 27.1714 4.92611 26.766 4.85262 26.6101C4.73977 26.1995 5.15969 26.2774 5.3119 26.4386Z" fill="#2E3192"/>
    <path d="M2.87122 26.8129C2.12062 26.6544 1.34641 26.4881 0.989482 26.3763C0.737534 26.3218 0.32287 26.1788 0.0131836 26.0801V37.5245H0.0315548C0.963238 36.6618 2.13375 35.9264 3.48009 35.3676V26.9506C3.33312 26.9116 3.1048 26.8623 2.87122 26.8129Z" fill="#D71920"/>
    <path d="M10.8391 30.3418C10.3536 30.8329 9.87594 30.9005 9.54264 30.8719C9.15422 30.8277 8.84978 30.6406 8.65557 30.5029C8.48498 30.5185 8.32751 30.5185 8.16479 30.5029V34.2086C8.23566 34.1956 8.29864 34.1956 8.359 34.1956V30.8044C8.44036 30.8044 8.51647 30.8044 8.60045 30.794C8.83141 30.9551 9.13322 31.1266 9.52689 31.1734C9.87857 31.2019 10.4008 31.1422 10.9283 30.6173C11.2197 30.5887 11.4769 30.5029 11.7026 30.3548V34.2086H11.797L11.8915 34.2216V29.8818C11.6212 30.1599 11.2669 30.3106 10.8391 30.3418Z" fill="white"/>
    <path d="M15.7625 26.6541C15.5211 27.0543 15.2114 27.3532 14.8361 27.5351C14.6891 28.0626 14.4083 28.3562 14.18 28.5122C13.9674 28.6629 13.739 28.7304 13.5501 28.7538C13.3113 29.3203 12.9333 29.5672 12.6315 29.666C12.5055 29.7101 12.377 29.7309 12.293 29.7413L12.2982 34.2734C12.3638 34.2785 12.4242 34.2967 12.4872 34.3019C12.4819 33.2677 12.4819 30.2377 12.4819 29.983C12.5449 29.97 12.6184 29.9518 12.6945 29.9258C12.9989 29.8297 13.411 29.5646 13.6813 28.9799C13.8519 28.9409 14.0671 28.8708 14.2928 28.7175C14.5185 28.5537 14.8203 28.2367 14.9857 27.6806C15.3268 27.4935 15.6287 27.2076 15.8596 26.8412H15.8675V35.1413L16.0591 35.2115V26.6489C15.9515 26.6489 15.8491 26.6541 15.7625 26.6541Z" fill="white"/>
    <path d="M16.5552 35.4326C17.8333 35.9888 18.9539 36.693 19.8489 37.522H19.8725V26.1763C18.6784 26.5921 17.374 26.761 16.5552 26.8129V35.4326Z" fill="#D71920"/>
    <path d="M7.48483 21.005C7.7604 20.6853 8.16194 20.4619 8.63697 20.3553C9.87571 20.0409 11.2273 20.3241 11.9595 20.4697C12.0881 20.4982 12.1931 20.5216 12.2692 20.532C12.5343 20.5762 13.0566 20.623 13.1274 20.623H13.1379H13.151C13.6497 20.675 13.8938 20.8179 14.046 20.9374C15.1404 20.571 18.7595 18.7779 19.8723 18.1647V12.853H0.00512695V17.541L0.107481 17.6111C0.149472 17.6397 4.22263 20.2254 7.48483 21.005Z" fill="#D71920"/>
    <path d="M7.06238 30.1286C6.83667 29.9779 6.68445 29.8038 6.58472 29.6556C5.78951 29.4997 5.38797 29.0761 5.19639 28.7331C5.04154 28.4785 4.98643 28.2134 4.95231 27.9951C4.45629 27.7638 4.15973 27.4494 3.98389 27.1479V35.1518L4.07837 35.1128C4.10986 35.1024 4.14923 35.1024 4.17285 35.0894V27.7015C4.35131 27.8834 4.55077 28.0263 4.78697 28.1536C4.82896 28.4213 4.90507 28.6708 5.02317 28.8812C5.2305 29.2425 5.64779 29.7102 6.47712 29.8999C6.59785 30.0792 6.76581 30.2481 6.95477 30.3755C7.13061 30.508 7.34582 30.6015 7.57152 30.6769V34.2734C7.63451 34.263 7.6975 34.2475 7.76311 34.2397V30.4378C7.50329 30.3755 7.26184 30.2767 7.06238 30.1286Z" fill="white"/>
    <path d="M6.95478 30.3757C6.76582 30.2483 6.60048 30.0794 6.47713 29.9001C5.6478 29.7104 5.23051 29.2427 5.02318 28.8814C4.90245 28.6709 4.82634 28.4189 4.78173 28.1538C4.55077 28.0291 4.34869 27.8862 4.17285 27.7017V35.0896C5.22264 34.7076 6.36427 34.4347 7.57153 34.2762V30.6745C7.34845 30.6017 7.13324 30.5082 6.95478 30.3757Z" fill="#2E3192"/>
    <path d="M15.8622 26.8442C15.6313 27.2106 15.3295 27.4965 14.9883 27.6836C14.823 28.2397 14.5211 28.5567 14.2954 28.7205C14.0671 28.8738 13.8545 28.9439 13.6839 28.9829C13.4162 29.5676 12.999 29.8301 12.6971 29.9288C12.621 29.9548 12.5449 29.973 12.4819 29.986C12.4819 30.2407 12.4819 33.2707 12.4872 34.305C13.6813 34.4765 14.823 34.7519 15.8596 35.1417L15.8649 35.1443V26.8442H15.8622Z" fill="#2E3192"/>
    <path d="M10.9282 30.6148C10.3981 31.1372 9.87582 31.1969 9.52415 31.171C9.13048 31.1242 8.83129 30.9501 8.59771 30.7916C8.51635 30.8019 8.44287 30.8019 8.35889 30.8019V34.1932C8.87591 34.1438 9.4008 34.1126 9.93356 34.1126C10.5372 34.1126 11.1277 34.1438 11.7024 34.2088V30.355C11.4767 30.5005 11.2169 30.5863 10.9282 30.6148Z" fill="#D71920"/>
    <path d="M121.305 12.9878H129V16.1477H126.523V24.9779H123.78V16.1477H121.305V12.9878Z" fill="white"/>
    <path d="M110.613 24.9779V12.9878H113.161L116.051 19.4064V12.9878H118.688V24.9779H116.069L113.243 18.7152V24.9779H110.613Z" fill="white"/>
    <path d="M101 24.9779V12.9878H107.818V15.8099H103.656V17.499H107.193V20.225H103.656V22.1064H107.981V24.9779H101Z" fill="white"/>
    <path d="M88.8562 24.9779V12.9878H92.1893L93.659 20.4797L95.1313 12.9878H98.4512V24.9779H95.9554V18.2448L94.6116 24.9779H92.7037L91.3442 18.2448V24.9779H88.8562Z" fill="white"/>
    <path d="M79.2456 24.9779V12.9878H86.0561V15.8099H81.8963V17.499H85.4262V20.225H81.8963V22.1064H86.2214V24.9779H79.2456Z" fill="white"/>
    <path d="M76.5634 17.5827H73.9625C73.9205 16.9824 73.7683 16.5146 73.5242 16.1794C73.2723 15.8416 72.9521 15.6831 72.5611 15.6831C72.0677 15.6831 71.674 15.9533 71.3696 16.4912C71.0625 17.0344 70.9129 17.9101 70.9129 19.1237C70.9129 19.9448 70.9733 20.5815 71.115 21.0181C71.2462 21.4521 71.4273 21.7795 71.653 21.99C71.8813 22.2031 72.1753 22.3174 72.5191 22.3174C72.9469 22.3174 73.2775 22.1407 73.5295 21.8107C73.7814 21.4806 73.9337 20.9817 73.9835 20.3294H76.6132C76.5634 21.0701 76.4636 21.6911 76.3114 22.2057C76.1592 22.7124 75.9073 23.2217 75.5608 23.7259C75.2013 24.2274 74.7866 24.625 74.3037 24.9031C73.8129 25.1785 73.2513 25.3214 72.6083 25.3214C71.9653 25.3214 71.3801 25.1837 70.8342 24.9108C70.2935 24.638 69.8448 24.2586 69.48 23.7648C69.1073 23.2633 68.8186 22.689 68.606 22.0445C68.3226 21.1506 68.1782 20.1501 68.1782 19.0561C68.1782 18.1206 68.2832 17.2552 68.4932 16.4523C68.7057 15.6467 68.9944 14.971 69.3671 14.4227C69.7319 13.8848 70.1466 13.469 70.5927 13.1988C71.1649 12.8505 71.8026 12.6738 72.4928 12.6738C73.1043 12.6738 73.6738 12.8012 74.2014 13.0636C74.7367 13.3287 75.1698 13.7003 75.5162 14.1992C75.8548 14.6982 76.1225 15.2699 76.2957 15.9195C76.4321 16.3795 76.5214 16.9408 76.5634 17.5827Z" fill="white"/>
    <path d="M53.7385 19.7418H56.1688V20.3681C56.1688 20.9787 56.1924 21.4023 56.2449 21.644C56.2869 21.8805 56.3709 22.0598 56.489 22.1793C56.5966 22.2911 56.7435 22.3482 56.8931 22.3482C57.1005 22.3482 57.2632 22.2443 57.3944 22.039C57.523 21.8259 57.5965 21.5037 57.5965 21.0515V12.9619H60.3338V20.5292C60.3338 22.0858 60.0477 23.2655 59.4782 24.0685C58.9087 24.8663 58.0925 25.2795 57.0375 25.2795C56.4548 25.2795 55.9824 25.1781 55.6203 24.9936C55.3552 24.8611 55.098 24.6532 54.8329 24.3804C54.5731 24.1049 54.3658 23.7983 54.1899 23.4345C54.0272 23.0732 53.9144 22.6341 53.8461 22.1117C53.7779 21.5868 53.7385 20.7968 53.7385 19.7418Z" fill="white"/>
    <path d="M37.094 24.9547V12.9619H39.7631V16.9248L42.2432 12.9619H45.4791L42.4085 17.4758L45.781 24.9547H42.503L40.4927 20.181L39.7631 21.2126V24.9547H37.094Z" fill="white"/>
    <path d="M51.0876 12.9619H48.3372V24.9547H51.0876V12.9619Z" fill="white"/>
    <path d="M30.895 20.9294H29.1471L30.008 16.5662L30.895 20.9294ZM28.3204 24.9547L28.6354 23.3825H31.3779L31.6929 24.9547H34.4276L31.4278 12.9619H28.6354L25.6409 24.9547H28.3204Z" fill="white"/>
    <path d="M128.903 33.824C128.903 33.941 128.835 34.0059 128.704 34.0059C128.648 34.0059 128.559 33.9956 128.446 33.9956C128.334 33.9852 128.25 33.98 128.194 33.98C127.937 33.98 127.759 34.0189 127.664 34.0995C127.572 34.1801 127.525 34.3464 127.525 34.5906C127.525 34.7284 127.525 34.9285 127.53 35.1961V35.799C127.53 35.8848 127.544 36.0225 127.549 36.1992C127.562 36.3811 127.575 36.511 127.575 36.5968C127.575 36.6722 127.525 36.7163 127.418 36.7215C127.273 36.7345 127.04 36.7397 126.733 36.7397C126.436 36.7397 126.21 36.7319 126.027 36.7163C125.93 36.7033 125.877 36.654 125.877 36.5578V35.4482C125.877 34.9571 125.89 34.5906 125.89 34.3386C125.89 33.6187 125.814 33.0211 125.683 32.5455C125.678 32.5169 125.67 32.4935 125.67 32.4753C125.67 32.426 125.699 32.3922 125.743 32.3818C125.919 32.361 126.171 32.3324 126.496 32.2804C126.99 32.1817 127.247 32.1323 127.265 32.1323C127.315 32.1323 127.352 32.2285 127.365 32.4286C127.376 32.6287 127.402 32.7274 127.441 32.7274C127.404 32.7274 127.528 32.6417 127.824 32.4805C128.124 32.3168 128.415 32.2285 128.688 32.2285C128.864 32.2285 128.953 32.2675 128.953 32.3454C128.953 32.4286 128.942 32.5611 128.929 32.7248C128.908 32.9067 128.903 33.0289 128.898 33.1042C128.898 33.1926 128.898 33.3095 128.903 33.4602C128.898 33.6421 128.903 33.7695 128.903 33.824Z" fill="#034EA2"/>
    <path d="M53.9642 0.647297C53.9642 0.740848 53.959 0.821407 53.9537 0.89157C53.9406 0.959135 53.9275 1.00851 53.9144 1.04489C53.896 1.08907 53.8724 1.11766 53.8514 1.13844C53.8251 1.15923 53.8015 1.16703 53.7753 1.16703H51.6862V2.86394H53.6414C53.6755 2.86394 53.6992 2.86914 53.7201 2.88733C53.7438 2.90032 53.7648 2.9315 53.7805 2.96789C53.8015 3.01466 53.812 3.06144 53.8251 3.12121C53.833 3.19138 53.8382 3.27193 53.8382 3.37328C53.8382 3.46423 53.8304 3.54479 53.8251 3.60975C53.812 3.67732 53.8015 3.73449 53.7805 3.77087C53.7621 3.81245 53.7438 3.84623 53.7201 3.86182C53.6992 3.88001 53.6755 3.88781 53.6414 3.88781H51.6862V6.23699C51.6862 6.27077 51.6783 6.30455 51.6599 6.33574C51.6363 6.36172 51.6048 6.37991 51.5471 6.3981C51.4946 6.41629 51.4316 6.42929 51.3503 6.44228C51.2689 6.45008 51.1639 6.45527 51.0301 6.45527C50.9094 6.45527 50.8017 6.45008 50.7204 6.44228C50.639 6.42929 50.5708 6.41629 50.5183 6.3981C50.4763 6.37991 50.4369 6.35912 50.4133 6.33574C50.395 6.30455 50.3818 6.27337 50.3818 6.23699V0.51217C50.3818 0.371843 50.4212 0.265295 50.4947 0.200329C50.5682 0.137962 50.6574 0.109375 50.765 0.109375H53.7726C53.7989 0.109375 53.8225 0.114576 53.8487 0.137964C53.8697 0.150957 53.8934 0.182138 53.9117 0.223716C53.9249 0.262696 53.938 0.319867 53.9511 0.387432C53.959 0.465391 53.9642 0.548548 53.9642 0.647297Z" fill="#6D6E71"/>
    <path d="M58.5229 5.89619C58.5229 5.99494 58.5176 6.0729 58.5098 6.14566C58.5045 6.20803 58.4861 6.2652 58.473 6.30678C58.4599 6.35875 58.4363 6.38214 58.4126 6.40813C58.3864 6.42632 58.3602 6.43412 58.3234 6.43412H55.4024C55.2948 6.43412 55.2056 6.40293 55.1295 6.34056C55.0533 6.27819 55.0166 6.17425 55.0166 6.03132V0.293514C55.0166 0.262331 55.0297 0.236345 55.0507 0.212957C55.0743 0.181773 55.1137 0.163583 55.1557 0.147991C55.2082 0.127202 55.2764 0.114202 55.3578 0.109005C55.4391 0.0960116 55.5467 0.0908203 55.6727 0.0908203C55.7987 0.0908203 55.9063 0.0960116 55.985 0.109005C56.0664 0.114202 56.132 0.127202 56.1792 0.147991C56.2317 0.163583 56.2685 0.184372 56.2842 0.212957C56.3052 0.236345 56.3183 0.262331 56.3183 0.293514V5.37386H58.3182C58.3549 5.37386 58.3812 5.38686 58.4074 5.40505C58.431 5.42584 58.4546 5.44922 58.4678 5.4934C58.4809 5.53758 58.5019 5.58695 58.5045 5.64932C58.515 5.71948 58.5229 5.79225 58.5229 5.89619Z" fill="#6D6E71"/>
    <path d="M60.9767 4.03588V6.25513C60.9767 6.29671 60.9662 6.31749 60.9452 6.34348C60.9268 6.36947 60.8901 6.39285 60.8376 6.40585C60.7877 6.42404 60.7274 6.43703 60.6355 6.45003C60.5541 6.45782 60.4465 6.46302 60.3258 6.46302C60.1972 6.46302 60.0922 6.45782 60.0109 6.45003C59.9295 6.43703 59.8587 6.42404 59.8088 6.40585C59.7589 6.39285 59.7196 6.36687 59.7038 6.34348C59.6828 6.31749 59.6776 6.29671 59.6776 6.25513V4.03588L57.9271 0.597871C57.8641 0.478333 57.8247 0.387384 57.8063 0.317221C57.7906 0.247057 57.8011 0.197679 57.8405 0.158699C57.8772 0.127516 57.9454 0.109328 58.0452 0.0963343C58.1475 0.091137 58.2919 0.0859375 58.4651 0.0859375C58.6173 0.0859375 58.7433 0.091137 58.8325 0.0963343C58.9217 0.10413 58.9978 0.117127 59.0451 0.132719C59.0976 0.145712 59.1369 0.174292 59.1606 0.208074C59.1868 0.231462 59.2104 0.270442 59.234 0.322415L59.94 1.86861C60.0083 2.01933 60.0765 2.17785 60.1447 2.34157C60.2077 2.51048 60.2786 2.67679 60.3521 2.86389H60.3599C60.4229 2.68718 60.4833 2.51307 60.5541 2.35196C60.6171 2.18564 60.6827 2.02973 60.7431 1.87901L61.4386 0.335413C61.4596 0.286039 61.4779 0.249652 61.5016 0.208074C61.5278 0.184686 61.5646 0.158706 61.6066 0.132719C61.6564 0.117127 61.7246 0.10413 61.8165 0.0963343C61.8979 0.091137 62.0107 0.0859375 62.1551 0.0859375C62.3414 0.0859375 62.4884 0.091137 62.5907 0.0963343C62.6905 0.109328 62.7666 0.127516 62.8059 0.158699C62.8453 0.197679 62.8479 0.247054 62.8322 0.322415C62.8138 0.387381 62.7692 0.478333 62.7114 0.597871L60.9767 4.03588Z" fill="#6D6E71"/>
    <path d="M68.2227 1.31738H68.2148L67.3146 4.00438H69.1229L68.2227 1.31738ZM71.149 5.95596C71.1883 6.0677 71.2119 6.16126 71.2251 6.23142C71.2382 6.30418 71.2251 6.35616 71.1883 6.38474C71.149 6.41852 71.086 6.44711 70.9941 6.44971C70.897 6.4575 70.771 6.4627 70.6162 6.4627C70.4456 6.4627 70.3196 6.4627 70.2173 6.4575C70.128 6.44971 70.0546 6.44711 70.0047 6.42632C69.9601 6.41073 69.9233 6.38994 69.9076 6.36915C69.8866 6.33537 69.8682 6.30678 69.8551 6.2652L69.4273 4.99706H67.0364L66.6349 6.23401C66.6165 6.27559 66.5982 6.31458 66.5772 6.34316C66.5588 6.37694 66.5194 6.40033 66.4774 6.42112C66.4276 6.43411 66.3646 6.4471 66.2753 6.4601C66.1861 6.4601 66.068 6.4653 65.9315 6.4653C65.7793 6.4653 65.6665 6.4601 65.5772 6.4523C65.4906 6.43931 65.4355 6.42112 65.404 6.38214C65.3647 6.33796 65.3542 6.28599 65.3647 6.21842C65.3804 6.15346 65.404 6.05991 65.4408 5.94557L67.4039 0.342889C67.4275 0.288318 67.4511 0.244138 67.4747 0.210356C67.4983 0.176573 67.543 0.147991 67.6007 0.1324C67.6584 0.114209 67.7398 0.101209 67.8395 0.101209C67.9471 0.0960119 68.0783 0.0908203 68.2411 0.0908203C68.4379 0.0908203 68.5954 0.0960119 68.7082 0.101209C68.8211 0.101209 68.9155 0.114209 68.9785 0.1324C69.0415 0.15059 69.0861 0.176573 69.1176 0.210356C69.1413 0.251934 69.1675 0.301305 69.1859 0.361074L71.149 5.95596Z" fill="#6D6E71"/>
    <path d="M75.8207 4.53463C75.8207 4.87246 75.7629 5.15571 75.6369 5.41558C75.5084 5.66505 75.3404 5.87034 75.1278 6.03925C74.9126 6.20556 74.6633 6.3303 74.3798 6.41865C74.099 6.50441 73.7893 6.54079 73.4691 6.54079C73.2408 6.54079 73.0387 6.5304 72.8498 6.49142C72.6608 6.45504 72.4928 6.41086 72.3485 6.35889C72.2094 6.30951 72.0834 6.25234 71.9889 6.20297C71.8945 6.1458 71.8184 6.09642 71.779 6.05484C71.737 6.01846 71.7029 5.9561 71.6871 5.87294C71.6661 5.78978 71.6609 5.68064 71.6609 5.52992C71.6609 5.43117 71.6609 5.34282 71.6661 5.27265C71.6793 5.20769 71.6871 5.15051 71.6976 5.10634C71.716 5.06996 71.737 5.03098 71.7606 5.01798C71.7869 4.9972 71.8105 4.9946 71.8498 4.9946C71.8945 4.9946 71.9548 5.01798 72.0441 5.06736C72.1254 5.12453 72.233 5.1817 72.3669 5.25186C72.4955 5.31163 72.6503 5.374 72.8393 5.43117C73.0125 5.48054 73.2277 5.50393 73.4691 5.50393C73.6266 5.50393 73.7683 5.49353 73.8969 5.45455C74.0177 5.41817 74.1226 5.361 74.2119 5.29084C74.3011 5.22327 74.3615 5.14272 74.414 5.03618C74.4586 4.93743 74.4769 4.82309 74.4769 4.70095C74.4769 4.55543 74.4402 4.43069 74.3615 4.33454C74.2801 4.23059 74.1804 4.13964 74.057 4.05648C73.9284 3.98372 73.7841 3.90836 73.6214 3.8304C73.4639 3.76284 73.2933 3.68747 73.1253 3.60951C72.9548 3.53415 72.7894 3.4458 72.6293 3.34965C72.4718 3.2483 72.3275 3.12877 72.2015 2.99104C72.0729 2.84812 71.9732 2.6844 71.8918 2.4999C71.8105 2.31539 71.7711 2.08671 71.7711 1.82165C71.7711 1.52021 71.8289 1.25255 71.9443 1.02387C72.0546 0.792588 72.2068 0.605484 72.4036 0.454763C72.5926 0.298844 72.8183 0.189702 73.0833 0.114341C73.3458 0.0389803 73.6187 0 73.9127 0C74.0649 0 74.2145 0.0155906 74.3641 0.0311825C74.5189 0.0571689 74.6554 0.0909526 74.7892 0.129932C74.9205 0.168912 75.0386 0.210493 75.1435 0.25467C75.2407 0.306643 75.3115 0.353416 75.343 0.382001C75.3745 0.418382 75.4007 0.444365 75.4112 0.467753C75.4244 0.485944 75.4296 0.517126 75.4375 0.556106C75.4427 0.595086 75.448 0.644465 75.4559 0.699036C75.4611 0.753608 75.4611 0.823771 75.4611 0.909526C75.4611 1.00308 75.4611 1.08623 75.4559 1.1512C75.4506 1.21876 75.4375 1.27074 75.4296 1.30972C75.4191 1.3565 75.4007 1.38768 75.3797 1.40327C75.3614 1.42406 75.3299 1.42926 75.2931 1.42926C75.2564 1.42926 75.1987 1.40847 75.1225 1.36689C75.0412 1.31492 74.9493 1.26814 74.8365 1.21616C74.7131 1.15899 74.5819 1.10962 74.4323 1.06545C74.2827 1.02127 74.1174 1.00307 73.9363 1.00307C73.7972 1.00307 73.6712 1.01867 73.5662 1.05765C73.4665 1.09143 73.3773 1.13561 73.3012 1.19278C73.2303 1.25255 73.1752 1.32791 73.1437 1.41366C73.1122 1.49942 73.0938 1.58517 73.0938 1.67612C73.0938 1.82165 73.1332 1.93859 73.2146 2.04253C73.2907 2.14648 73.3904 2.23743 73.5243 2.31539C73.6476 2.40115 73.8024 2.47651 73.9652 2.53887C74.1279 2.61423 74.2958 2.687 74.4664 2.75976C74.637 2.84032 74.8024 2.93127 74.9703 3.03002C75.1252 3.13137 75.28 3.24831 75.406 3.38603C75.532 3.52376 75.6396 3.68488 75.7209 3.87198C75.7813 4.06168 75.8207 4.28776 75.8207 4.53463Z" fill="#6D6E71"/>
    <path d="M81.7886 6.25479C81.7886 6.29377 81.7807 6.31716 81.7623 6.34054C81.7387 6.36653 81.6994 6.38991 81.6547 6.40291C81.6049 6.4211 81.534 6.4341 81.4605 6.44709C81.3739 6.45488 81.2716 6.46008 81.1456 6.46008C81.0196 6.46008 80.9146 6.45488 80.8307 6.44709C80.7414 6.4341 80.6784 6.4211 80.6312 6.40291C80.5866 6.38991 80.5498 6.36653 80.5288 6.34054C80.5052 6.31456 80.4974 6.29117 80.4974 6.25479V3.70811H78.1091V6.25479C78.1091 6.29377 78.0986 6.31716 78.0802 6.34054C78.0619 6.36653 78.0225 6.38991 77.9805 6.40291C77.9306 6.4211 77.8598 6.4341 77.7784 6.44709C77.6971 6.45488 77.5947 6.46008 77.4661 6.46008C77.3454 6.46008 77.2378 6.45488 77.1485 6.44709C77.0698 6.4341 77.0042 6.4211 76.9543 6.40291C76.9045 6.38991 76.8677 6.36653 76.8467 6.34054C76.8284 6.31456 76.8179 6.29117 76.8179 6.25479V0.288295C76.8179 0.257111 76.831 0.231126 76.8467 0.207738C76.8677 0.179153 76.9045 0.15577 76.9543 0.140178C77.0042 0.119389 77.0698 0.10639 77.1485 0.101192C77.2378 0.0881991 77.3454 0.0830078 77.4661 0.0830078C77.5973 0.0830078 77.6997 0.0881991 77.7784 0.101192C77.8598 0.10639 77.9306 0.119389 77.9805 0.140178C78.0251 0.15577 78.0619 0.176554 78.0802 0.207738C78.0986 0.231126 78.1091 0.257111 78.1091 0.288295V2.61669H80.4974V0.288295C80.4974 0.257111 80.5052 0.231126 80.5288 0.207738C80.5498 0.179153 80.5866 0.15577 80.6312 0.140178C80.6811 0.119389 80.7414 0.10639 80.8307 0.101192C80.9146 0.0881991 81.0196 0.0830078 81.1456 0.0830078C81.2716 0.0830078 81.3713 0.0881991 81.4605 0.101192C81.5366 0.10639 81.6049 0.119389 81.6547 0.140178C81.6994 0.15577 81.7387 0.176554 81.7623 0.207738C81.7807 0.231126 81.7886 0.257111 81.7886 0.288295V6.25479Z" fill="#6D6E71"/>
    <path d="M89.0427 0.647297C89.0427 0.740848 89.0427 0.821407 89.0269 0.89157C89.019 0.959135 89.0085 1.00851 88.9875 1.04489C88.977 1.08907 88.9482 1.11766 88.9272 1.13844C88.9009 1.15923 88.8826 1.16703 88.8511 1.16703H86.7672V2.86394H88.7251C88.7487 2.86394 88.7802 2.86914 88.8012 2.88733C88.8274 2.90032 88.8458 2.9315 88.8642 2.96789C88.8826 3.01466 88.8957 3.06144 88.9009 3.12121C88.9141 3.19138 88.9141 3.27193 88.9141 3.37328C88.9141 3.46423 88.9141 3.54479 88.9009 3.60975C88.8957 3.67732 88.8852 3.73449 88.8642 3.77087C88.8458 3.81245 88.8274 3.84623 88.8012 3.86182C88.7802 3.88001 88.7487 3.88781 88.7251 3.88781H86.7672V6.23699C86.7672 6.27077 86.7541 6.30455 86.7358 6.33574C86.7148 6.36172 86.678 6.37991 86.6282 6.3981C86.5783 6.41629 86.5074 6.42929 86.4261 6.44228C86.35 6.45008 86.2424 6.45527 86.1111 6.45527C85.9904 6.45527 85.8854 6.45008 85.8041 6.44228C85.7148 6.42929 85.6519 6.41629 85.602 6.3981C85.5521 6.37991 85.5128 6.35912 85.4944 6.33574C85.476 6.30455 85.4629 6.27337 85.4629 6.23699V0.51217C85.4629 0.371843 85.4996 0.265295 85.5757 0.200329C85.644 0.137962 85.7385 0.109375 85.8461 0.109375H88.8484C88.8826 0.109375 88.8983 0.114576 88.9246 0.137964C88.9482 0.150957 88.977 0.182138 88.9849 0.223716C89.0033 0.262696 89.0164 0.319867 89.0243 0.387432C89.0427 0.465391 89.0427 0.548548 89.0427 0.647297Z" fill="#6D6E71"/>
    <path d="M93.1551 1.97993C93.1551 1.77464 93.1131 1.60053 93.0186 1.45501C92.9163 1.31208 92.7667 1.20554 92.5462 1.15356C92.4832 1.13278 92.4071 1.11978 92.3258 1.11459C92.2365 1.10939 92.1263 1.09639 91.9741 1.09639H91.3967V2.89206H92.0581C92.2391 2.89206 92.4019 2.86867 92.5436 2.82449C92.6748 2.77772 92.7929 2.71535 92.8821 2.64258C92.9766 2.56203 93.0475 2.47108 93.0895 2.35414C93.1367 2.2398 93.1551 2.11766 93.1551 1.97993ZM94.8295 6.2703C94.8295 6.30668 94.819 6.33267 94.8059 6.35865C94.7927 6.38204 94.7665 6.40802 94.7166 6.42102C94.6642 6.43401 94.588 6.447 94.4962 6.45999C94.3991 6.45999 94.2731 6.4652 94.1104 6.4652C93.9713 6.4652 93.8584 6.45999 93.7771 6.45999C93.6957 6.4496 93.6327 6.43401 93.5803 6.42102C93.533 6.40283 93.5015 6.37684 93.4805 6.34306C93.4622 6.31707 93.4438 6.28589 93.4307 6.24431L92.8585 4.83584C92.7877 4.67473 92.7273 4.5344 92.6564 4.41486C92.5935 4.28753 92.52 4.18618 92.436 4.10043C92.3625 4.02247 92.2654 3.9575 92.1604 3.91333C92.0528 3.87694 91.9321 3.85355 91.7956 3.85355H91.3941V6.2573C91.3941 6.29628 91.381 6.31967 91.3626 6.34306C91.3442 6.36905 91.3048 6.39243 91.255 6.40543C91.2025 6.42362 91.1395 6.43661 91.0581 6.44961C90.9768 6.4574 90.8692 6.4626 90.7432 6.4626C90.6172 6.4626 90.5096 6.4574 90.4283 6.44961C90.3469 6.43661 90.2761 6.42362 90.2262 6.40543C90.1763 6.38983 90.1448 6.36905 90.1265 6.34306C90.1081 6.31707 90.095 6.29628 90.095 6.2573V0.524689C90.095 0.381763 90.1343 0.27262 90.2078 0.207653C90.2761 0.150483 90.3732 0.116699 90.4781 0.116699H92.1289C92.2969 0.116699 92.436 0.121899 92.5436 0.127096C92.6512 0.132293 92.7509 0.142692 92.8428 0.14789C93.0974 0.184271 93.3309 0.246636 93.533 0.332391C93.7403 0.420745 93.9109 0.535087 94.0553 0.68321C94.1996 0.820938 94.3072 0.987247 94.3833 1.18215C94.4594 1.37964 94.4962 1.59793 94.4962 1.8474C94.4962 2.06049 94.4699 2.25019 94.4148 2.4269C94.365 2.60361 94.281 2.75693 94.176 2.89206C94.0763 3.03239 93.9424 3.15192 93.785 3.24807C93.6354 3.34942 93.4595 3.42737 93.2627 3.48714C93.3572 3.53392 93.4464 3.5911 93.5278 3.65606C93.6144 3.71843 93.6931 3.80159 93.7666 3.89254C93.8427 3.98089 93.9136 4.09263 93.9739 4.20697C94.0448 4.33171 94.1051 4.46164 94.1681 4.61236L94.7035 5.85971C94.7534 5.97405 94.7849 6.0676 94.8033 6.12737C94.819 6.19233 94.8295 6.23132 94.8295 6.2703Z" fill="#6D6E71"/>
    <path d="M99.564 5.92988C99.564 6.02343 99.5588 6.10398 99.5456 6.16895C99.5404 6.23131 99.5273 6.28069 99.5141 6.31707C99.4931 6.35605 99.4748 6.38723 99.4512 6.40543C99.4249 6.42362 99.3987 6.43141 99.3672 6.43141H96.1627C96.0499 6.43141 95.9606 6.39763 95.8871 6.33786C95.8163 6.27549 95.7795 6.17155 95.7795 6.02602V0.524688C95.7795 0.381763 95.8163 0.275223 95.8871 0.212856C95.9606 0.150488 96.0499 0.116699 96.1627 0.116699H99.3488C99.3724 0.116699 99.4065 0.124499 99.4249 0.145288C99.4512 0.16088 99.4669 0.186863 99.4853 0.23104C99.4984 0.272619 99.5115 0.322 99.5168 0.384367C99.5299 0.449333 99.5351 0.527288 99.5351 0.623438C99.5351 0.714391 99.5299 0.797549 99.5168 0.859916C99.5115 0.922284 99.4984 0.974258 99.4853 1.00804C99.4669 1.04442 99.4485 1.0834 99.4249 1.09379C99.4065 1.11198 99.3724 1.11718 99.3488 1.11718H97.0708V2.66857H98.9971C99.026 2.66857 99.0522 2.67377 99.0759 2.68676C99.1021 2.70755 99.1205 2.73874 99.1388 2.77512C99.1572 2.8141 99.1625 2.86348 99.1756 2.92584C99.1808 2.98821 99.1808 3.06357 99.1808 3.15972C99.1808 3.25327 99.1808 3.33383 99.1756 3.3884C99.1598 3.45077 99.1572 3.50014 99.1388 3.53912C99.1178 3.5781 99.0995 3.60668 99.0759 3.61968C99.0522 3.64047 99.026 3.65606 98.9971 3.65606H97.0708V5.42833H99.3672C99.3987 5.42833 99.4249 5.43354 99.4512 5.45952C99.4748 5.47252 99.4931 5.5037 99.5141 5.54008C99.5246 5.57906 99.5404 5.63363 99.5456 5.69859C99.5588 5.75836 99.564 5.83113 99.564 5.92988Z" fill="#6D6E71"/>
    <path d="M104.488 5.92988C104.488 6.02343 104.48 6.10398 104.472 6.16895C104.459 6.23131 104.446 6.28069 104.435 6.31707C104.417 6.35605 104.398 6.38723 104.372 6.40543C104.348 6.42362 104.322 6.43141 104.293 6.43141H101.086C100.979 6.43141 100.887 6.39763 100.808 6.33786C100.742 6.27549 100.7 6.17155 100.7 6.02602V0.524688C100.7 0.381763 100.74 0.275223 100.808 0.212856C100.884 0.150488 100.979 0.116699 101.086 0.116699H104.272C104.296 0.116699 104.327 0.124499 104.348 0.145288C104.372 0.16088 104.398 0.186863 104.411 0.23104C104.422 0.272619 104.435 0.322 104.448 0.384367C104.456 0.449333 104.461 0.527288 104.461 0.623438C104.461 0.714391 104.456 0.797549 104.448 0.859916C104.435 0.922284 104.425 0.974258 104.411 1.00804C104.398 1.04442 104.372 1.0834 104.348 1.09379C104.327 1.11198 104.296 1.11718 104.272 1.11718H101.994V2.66857H103.918C103.952 2.66857 103.976 2.67377 104.005 2.68676C104.028 2.70755 104.047 2.73874 104.065 2.77512C104.086 2.8141 104.096 2.86348 104.102 2.92584C104.107 2.98821 104.112 3.06357 104.112 3.15972C104.112 3.25327 104.107 3.33383 104.102 3.3884C104.096 3.45077 104.086 3.50014 104.065 3.53912C104.047 3.5781 104.028 3.60668 104.005 3.61968C103.976 3.64047 103.952 3.65606 103.918 3.65606H101.994V5.42833H104.293C104.325 5.42833 104.351 5.43354 104.372 5.45952C104.398 5.47252 104.417 5.5037 104.435 5.54008C104.448 5.57906 104.461 5.63363 104.472 5.69859C104.48 5.75836 104.488 5.83113 104.488 5.92988Z" fill="#6D6E71"/>
    <path d="M48.5078 2.76221H25.6409V3.5418H48.5078V2.76221Z" fill="#6D6E71"/>
    <path d="M129 2.76221H106.125V3.5418H129V2.76221Z" fill="#6D6E71"/>
</svg>
