<svg width="1140" height="140" viewBox="0 0 1140 140" fill="none" xmlns="http://www.w3.org/2000/svg">
    <g opacity="0.04">
        <path d="M363.346 206.844C322.658 206.844 290.481 188.801 259.357 171.358C228.476 154.043 196.529 136.128 156.408 136.128C116.274 136.128 84.3399 154.03 53.4593 171.345C36.8843 180.635 19.7689 190.232 1.55938 197.004L0.816406 195.215C18.8774 188.494 35.9252 178.948 52.4056 169.697C83.5294 152.254 115.707 134.211 156.395 134.211C197.082 134.211 229.26 152.254 260.384 169.697C291.264 187.012 323.212 204.927 363.332 204.927C403.453 204.927 435.401 187.024 466.281 169.697C497.405 152.254 529.582 134.211 570.27 134.211V136.128C530.136 136.128 498.202 154.03 467.321 171.358C436.211 188.801 404.02 206.844 363.346 206.844Z" fill="white"/>
        <path d="M363.346 194.145C322.658 194.145 290.481 176.101 259.357 158.659C228.476 141.344 196.529 123.441 156.408 123.441C116.274 123.441 84.3399 141.344 53.4593 158.659C36.9113 167.936 19.7959 177.533 1.57289 184.305L0.816406 182.516C18.8774 175.795 35.9252 166.249 52.4056 156.998C83.5294 139.555 115.707 121.512 156.395 121.512C197.082 121.512 229.26 139.555 260.384 156.998C291.264 174.312 323.212 192.215 363.332 192.215C403.453 192.215 435.401 174.312 466.281 156.998C497.405 139.542 529.582 121.512 570.27 121.512V123.428C530.136 123.428 498.202 141.331 467.321 158.646C436.211 176.101 404.02 194.145 363.346 194.145Z" fill="white"/>
        <path d="M363.346 181.449C322.658 181.449 290.481 163.406 259.357 145.963C228.476 128.649 196.529 110.733 156.408 110.733C116.274 110.733 84.3399 128.636 53.4593 145.951C36.9113 155.228 19.7959 164.824 1.57289 171.597L0.816406 169.821C18.8774 163.099 35.9252 153.554 52.4056 144.302C83.5294 126.86 115.707 108.816 156.395 108.816C197.082 108.816 229.26 126.86 260.384 144.302C291.264 161.617 323.212 179.532 363.332 179.532C403.453 179.532 435.401 161.63 466.281 144.302C497.405 126.86 529.582 108.816 570.27 108.816V110.733C530.136 110.733 498.202 128.636 467.321 145.963C436.211 163.406 404.02 181.449 363.346 181.449Z" fill="white"/>
        <path d="M363.346 168.242C322.658 168.242 290.481 150.199 259.357 132.756C228.476 115.442 196.529 97.5261 156.408 97.5261C116.274 97.5261 84.3399 115.429 53.4593 132.744C36.9113 142.021 19.7959 151.617 1.57289 158.39L0.816406 156.614C18.8774 149.892 35.9252 140.347 52.4056 131.095C83.5294 113.653 115.707 95.6094 156.395 95.6094C197.082 95.6094 229.26 113.653 260.384 131.095C291.264 148.41 323.212 166.325 363.332 166.325C403.453 166.325 435.401 148.423 466.281 131.095C497.405 113.653 529.582 95.6094 570.27 95.6094V97.5261C530.136 97.5261 498.202 115.429 467.321 132.756C436.211 150.199 404.02 168.242 363.346 168.242Z" fill="white"/>
        <path d="M363.346 155.543C322.658 155.543 290.481 137.497 259.357 120.051C228.476 102.733 196.529 84.8273 156.408 84.8273C116.274 84.8273 84.3399 102.733 53.4593 120.051C36.9113 129.33 19.7959 138.928 1.57289 145.702L0.816406 143.925C18.8774 137.203 35.9252 127.643 52.4056 118.402C83.5294 100.957 115.707 82.9102 156.395 82.9102C197.082 82.9102 229.26 100.957 260.384 118.402C291.264 135.72 323.212 153.626 363.332 153.626C403.453 153.626 435.401 135.72 466.281 118.402C497.405 100.944 529.582 82.9102 570.27 82.9102V84.8273C530.136 84.8273 498.202 102.733 467.321 120.051C436.211 137.497 404.02 155.543 363.346 155.543Z" fill="white"/>
        <path d="M363.346 142.848C322.658 142.848 290.481 124.804 259.357 107.362C228.476 90.047 196.529 72.1316 156.408 72.1316C116.274 72.1316 84.3399 90.0343 53.4593 107.349C36.9113 116.626 19.7959 126.223 1.57289 132.995L0.816406 131.219C18.8774 124.498 35.9252 114.94 52.4056 105.701C83.5294 88.2581 115.707 70.2148 156.395 70.2148C197.082 70.2148 229.26 88.2581 260.384 105.701C291.264 123.016 323.212 140.931 363.332 140.931C403.453 140.931 435.401 123.028 466.281 105.701C497.405 88.2581 529.582 70.2148 570.27 70.2148V72.1316C530.136 72.1316 498.202 90.0343 467.321 107.362C436.211 124.804 404.02 142.848 363.346 142.848Z" fill="white"/>
        <path d="M363.346 130.148C322.658 130.148 290.481 112.105 259.357 94.6627C228.476 77.3478 196.529 59.4452 156.408 59.4452C116.274 59.4452 84.3399 77.3478 53.4593 94.6627C36.9113 103.94 19.7959 113.536 1.57289 120.309L0.816406 118.52C18.8774 111.799 35.9252 102.253 52.4056 93.0015C83.5294 75.5588 115.707 57.5156 156.395 57.5156C197.082 57.5156 229.26 75.5588 260.384 93.0015C291.264 110.316 323.212 128.219 363.332 128.219C403.453 128.219 435.401 110.316 466.281 93.0015C497.405 75.5588 529.582 57.5156 570.27 57.5156V59.4324C530.136 59.4324 498.202 77.335 467.321 94.6499C436.211 112.105 404.02 130.148 363.346 130.148Z" fill="white"/>
        <path d="M363.346 116.941C322.658 116.941 290.481 98.8982 259.357 81.4556C228.476 64.1408 196.529 46.2254 156.408 46.2254C116.274 46.2254 84.3399 64.128 53.4593 81.4428C36.9113 90.72 19.7959 100.317 1.57289 107.089L0.816406 105.313C18.8774 98.5916 35.9252 89.0333 52.4056 79.7944C83.5294 62.3518 115.707 44.3086 156.395 44.3086C197.082 44.3086 229.26 62.3518 260.384 79.7944C291.264 97.1093 323.212 115.025 363.332 115.025C403.453 115.025 435.401 97.122 466.281 79.7944C497.405 62.339 529.582 44.3086 570.27 44.3086V46.2254C530.136 46.2254 498.202 64.128 467.321 81.4556C436.211 98.8982 404.02 116.941 363.346 116.941Z" fill="white"/>
        <path d="M363.346 104.242C322.658 104.242 290.481 86.199 259.357 68.7564C228.476 51.4416 196.529 33.5261 156.408 33.5261C116.274 33.5261 84.3399 51.4288 53.4593 68.7564C36.8843 78.0208 19.7689 87.6174 1.55938 94.39L0.816406 92.6138C18.8774 85.8923 35.9252 76.3468 52.4056 67.0952C83.5294 49.6526 115.707 31.6094 156.395 31.6094C197.082 31.6094 229.26 49.6526 260.384 67.0952C291.264 84.41 323.212 102.313 363.332 102.313C403.453 102.313 435.401 84.41 466.281 67.0952C497.405 49.6398 529.582 31.6094 570.27 31.6094V33.5261C530.136 33.5261 498.202 51.4288 467.321 68.7564C436.211 86.199 404.02 104.242 363.346 104.242Z" fill="white"/>
        <path d="M363.346 91.5469C322.658 91.5469 290.481 73.5005 259.357 56.0549C228.476 38.737 196.529 20.8312 156.408 20.8312C116.274 20.8312 84.3399 38.737 53.4593 56.0549C36.9113 65.3337 19.7959 74.932 1.57289 81.7058L0.816406 79.9292C18.8774 73.2066 35.9252 63.6594 52.4056 54.4061C83.5294 36.9477 115.707 18.9141 156.395 18.9141C197.082 18.9141 229.26 36.9604 260.384 54.4061C291.264 71.724 323.212 89.6426 363.332 89.6426C403.453 89.6426 435.401 71.7368 466.281 54.4061C497.405 36.9477 529.582 18.9141 570.27 18.9141V20.8312C530.136 20.8312 498.202 38.737 467.321 56.0549C436.211 73.5133 404.02 91.5469 363.346 91.5469Z" fill="white"/>
        <path d="M363.346 78.8477C322.658 78.8477 290.481 60.8045 259.357 43.3619C228.476 26.047 196.529 8.1444 156.408 8.1444C116.274 8.1444 84.3399 26.047 53.4593 43.3619C36.9113 52.639 19.7959 62.2357 1.57289 69.0083L0.816406 67.2193C18.8774 60.4978 35.9252 50.9523 52.4056 41.7007C83.5294 24.2581 115.707 6.21484 156.395 6.21484C197.082 6.21484 229.26 24.2581 260.384 41.7007C291.264 59.0155 323.212 76.9181 363.332 76.9181C403.453 76.9181 435.401 59.0155 466.281 41.7007C497.405 24.2581 529.582 6.21484 570.27 6.21484V8.13161C530.136 8.13161 498.202 26.0343 467.321 43.3491C436.211 60.8045 404.02 78.8477 363.346 78.8477Z" fill="white"/>
        <path d="M363.346 66.1485C322.658 66.1485 290.481 48.1053 259.357 30.6626C228.476 13.3478 196.529 -4.55483 156.408 -4.55483C116.274 -4.55483 84.3399 13.3478 53.4593 30.6626C36.9113 39.9398 19.7959 49.5365 1.57289 56.309L0.816406 54.5201C18.8774 47.7986 35.9252 38.2403 52.4056 29.0015C83.5294 11.5588 115.707 -6.48437 156.395 -6.48437C197.082 -6.48437 229.26 11.5588 260.384 29.0015C291.264 46.3163 323.212 64.2189 363.332 64.2189C403.453 64.2189 435.401 46.3163 466.281 29.0015C497.405 11.5461 529.582 -6.48437 570.27 -6.48437V-4.5676C530.136 -4.5676 498.202 13.335 467.321 30.6499C436.211 48.1053 404.02 66.1485 363.346 66.1485Z" fill="white"/>
        <path d="M363.346 52.9453C322.658 52.9453 290.481 34.9021 259.357 17.4595C228.476 0.14469 196.529 -17.7579 156.408 -17.7579C116.274 -17.7579 84.3399 0.14469 53.4593 17.4595C36.9113 26.7367 19.7959 36.3333 1.57289 43.1059L0.816406 41.3169C18.8774 34.5955 35.9252 25.0499 52.4056 15.7983C83.5294 -1.64429 115.707 -19.6875 156.395 -19.6875C197.082 -19.6875 229.26 -1.64429 260.384 15.7983C291.264 33.1132 323.212 51.0158 363.332 51.0158C403.453 51.0158 435.401 33.1132 466.281 15.7983C497.405 -1.65707 529.582 -19.6875 570.27 -19.6875V-17.7707C530.136 -17.7707 498.202 0.131918 467.321 17.4468C436.211 34.9021 404.02 52.9453 363.346 52.9453Z" fill="white"/>
        <path d="M363.346 40.2461C322.658 40.2461 290.481 22.2029 259.357 4.7603C228.476 -12.5545 196.529 -30.4572 156.408 -30.4572C116.274 -30.4572 84.3399 -12.5545 53.4593 4.7603C36.9113 14.0375 19.7959 23.6341 1.57289 30.4067L0.816406 28.6177C18.8774 21.8962 35.9252 12.3507 52.4056 3.09911C83.5294 -14.3435 115.707 -32.3867 156.395 -32.3867C197.082 -32.3867 229.26 -14.3435 260.384 3.09911C291.264 20.4139 323.212 38.3294 363.332 38.3294C403.453 38.3294 435.401 20.4267 466.281 3.09911C497.405 -14.3563 529.582 -32.3867 570.27 -32.3867V-30.4699C530.136 -30.4699 498.202 -12.5673 467.321 4.74752C436.211 22.2029 404.02 40.2461 363.346 40.2461Z" fill="white"/>
        <path d="M363.346 27.5469C322.658 27.5469 290.481 9.5037 259.357 -7.93892C228.476 -25.2537 196.529 -43.1564 156.408 -43.1564C116.288 -43.1564 84.3399 -25.2537 53.4593 -7.93892C36.9113 1.33825 19.7959 10.9349 1.57289 17.7075L0.816406 15.9185C18.8774 9.19701 35.9252 -0.348507 52.4056 -9.60012C83.5294 -27.0427 115.707 -45.0859 156.395 -45.0859C197.082 -45.0859 229.26 -27.0427 260.384 -9.60012C291.264 7.71471 323.212 25.6301 363.332 25.6301C403.453 25.6301 435.401 7.72749 466.281 -9.60012C497.405 -27.0427 529.582 -45.0859 570.27 -45.0859V-43.1692C530.136 -43.1692 498.202 -25.2665 467.321 -7.9517C436.211 9.5037 404.02 27.5469 363.346 27.5469Z" fill="white"/>
        <path d="M363.346 14.8516C322.658 14.8516 290.481 -3.19478 259.357 -20.6405C228.476 -37.9583 196.529 -55.8641 156.408 -55.8641C116.274 -55.8641 84.3399 -37.9583 53.4593 -20.6405C36.9113 -11.3617 19.7959 -1.76334 1.57289 5.01044L0.816406 3.23392C18.8774 -3.48874 35.9252 -13.0359 52.4056 -22.2892C83.5294 -39.7349 115.707 -57.7812 156.395 -57.7812C197.082 -57.7812 229.26 -39.7349 260.384 -22.2892C291.264 -4.97131 323.212 12.9473 363.332 12.9473C403.453 12.9473 435.401 -4.95852 466.281 -22.2892C497.405 -39.7349 529.582 -57.7812 570.27 -57.7812V-55.8641C530.136 -55.8641 498.202 -37.9583 467.321 -20.6405C436.211 -3.19478 404.02 14.8516 363.346 14.8516Z" fill="white"/>
        <path d="M363.346 1.64456C322.658 1.64456 290.481 -16.3987 259.357 -33.8413C228.476 -51.1561 196.529 -69.0587 156.408 -69.0587C116.274 -69.0587 84.3399 -51.1561 53.4593 -33.8413C36.8843 -24.5641 19.7689 -14.9675 1.55938 -8.19486L0.816406 -9.98385C18.8774 -16.7053 35.9252 -26.2508 52.4056 -35.5025C83.5294 -52.9451 115.707 -70.9883 156.395 -70.9883C197.082 -70.9883 229.26 -52.9451 260.384 -35.5025C291.264 -18.1876 323.212 -0.284996 363.332 -0.284996C403.453 -0.284996 435.401 -18.1876 466.281 -35.5025C497.405 -52.9579 529.582 -70.9883 570.27 -70.9883V-69.0715C530.136 -69.0715 498.202 -51.1689 467.321 -33.854C436.211 -16.3986 404.02 1.64456 363.346 1.64456Z" fill="white"/>
        <path d="M776.658 206.844C817.346 206.844 849.523 188.801 880.647 171.358C911.528 154.043 943.475 136.128 983.596 136.128C1023.73 136.128 1055.66 154.03 1086.54 171.345C1103.12 180.635 1120.23 190.232 1138.44 197.004L1139.19 195.215C1121.13 188.494 1104.08 178.948 1087.6 169.697C1056.47 152.254 1024.3 134.211 983.609 134.211C942.922 134.211 910.744 152.254 879.62 169.697C848.74 187.012 816.792 204.927 776.672 204.927C736.551 204.927 704.603 187.024 673.723 169.697C642.599 152.254 610.422 134.211 569.734 134.211V136.128C609.868 136.128 641.802 154.03 672.683 171.358C703.793 188.801 735.984 206.844 776.658 206.844Z" fill="white"/>
        <path d="M776.658 194.145C817.346 194.145 849.523 176.101 880.647 158.659C911.528 141.344 943.475 123.441 983.596 123.441C1023.73 123.441 1055.66 141.344 1086.54 158.659C1103.09 167.936 1120.21 177.533 1138.43 184.305L1139.19 182.516C1121.13 175.795 1104.08 166.249 1087.6 156.998C1056.47 139.555 1024.3 121.512 983.609 121.512C942.922 121.512 910.744 139.555 879.62 156.998C848.74 174.312 816.792 192.215 776.672 192.215C736.551 192.215 704.603 174.312 673.723 156.998C642.599 139.542 610.422 121.512 569.734 121.512V123.428C609.868 123.428 641.802 141.331 672.683 158.646C703.793 176.101 735.984 194.145 776.658 194.145Z" fill="white"/>
        <path d="M776.658 181.449C817.346 181.449 849.523 163.406 880.647 145.963C911.528 128.649 943.475 110.733 983.596 110.733C1023.73 110.733 1055.66 128.636 1086.54 145.951C1103.09 155.228 1120.21 164.824 1138.43 171.597L1139.19 169.821C1121.13 163.099 1104.08 153.554 1087.6 144.302C1056.47 126.86 1024.3 108.816 983.609 108.816C942.922 108.816 910.744 126.86 879.62 144.302C848.74 161.617 816.792 179.532 776.672 179.532C736.551 179.532 704.603 161.63 673.723 144.302C642.599 126.86 610.422 108.816 569.734 108.816V110.733C609.868 110.733 641.802 128.636 672.683 145.963C703.793 163.406 735.984 181.449 776.658 181.449Z" fill="white"/>
        <path d="M776.658 168.242C817.346 168.242 849.523 150.199 880.647 132.756C911.528 115.442 943.475 97.5261 983.596 97.5261C1023.73 97.5261 1055.66 115.429 1086.54 132.744C1103.09 142.021 1120.21 151.617 1138.43 158.39L1139.19 156.614C1121.13 149.892 1104.08 140.347 1087.6 131.095C1056.47 113.653 1024.3 95.6094 983.609 95.6094C942.922 95.6094 910.744 113.653 879.62 131.095C848.74 148.41 816.792 166.325 776.672 166.325C736.551 166.325 704.603 148.423 673.723 131.095C642.599 113.653 610.422 95.6094 569.734 95.6094V97.5261C609.868 97.5261 641.802 115.429 672.683 132.756C703.793 150.199 735.984 168.242 776.658 168.242Z" fill="white"/>
        <path d="M776.658 155.543C817.346 155.543 849.523 137.497 880.647 120.051C911.528 102.733 943.475 84.8273 983.596 84.8273C1023.73 84.8273 1055.66 102.733 1086.54 120.051C1103.09 129.33 1120.21 138.928 1138.43 145.702L1139.19 143.925C1121.13 137.203 1104.08 127.643 1087.6 118.402C1056.47 100.957 1024.3 82.9102 983.609 82.9102C942.922 82.9102 910.744 100.957 879.62 118.402C848.74 135.72 816.792 153.626 776.672 153.626C736.551 153.626 704.603 135.72 673.723 118.402C642.599 100.944 610.422 82.9102 569.734 82.9102V84.8273C609.868 84.8273 641.802 102.733 672.683 120.051C703.793 137.497 735.984 155.543 776.658 155.543Z" fill="white"/>
        <path d="M776.658 142.848C817.346 142.848 849.523 124.804 880.647 107.362C911.528 90.047 943.475 72.1316 983.596 72.1316C1023.73 72.1316 1055.66 90.0343 1086.54 107.349C1103.09 116.626 1120.21 126.223 1138.43 132.995L1139.19 131.219C1121.13 124.498 1104.08 114.94 1087.6 105.701C1056.47 88.2581 1024.3 70.2148 983.609 70.2148C942.922 70.2148 910.744 88.2581 879.62 105.701C848.74 123.016 816.792 140.931 776.672 140.931C736.551 140.931 704.603 123.028 673.723 105.701C642.599 88.2581 610.422 70.2148 569.734 70.2148V72.1316C609.868 72.1316 641.802 90.0343 672.683 107.362C703.793 124.804 735.984 142.848 776.658 142.848Z" fill="white"/>
        <path d="M776.658 130.148C817.346 130.148 849.523 112.105 880.647 94.6627C911.528 77.3478 943.475 59.4452 983.596 59.4452C1023.73 59.4452 1055.66 77.3478 1086.54 94.6627C1103.09 103.94 1120.21 113.536 1138.43 120.309L1139.19 118.52C1121.13 111.799 1104.08 102.253 1087.6 93.0015C1056.47 75.5588 1024.3 57.5156 983.609 57.5156C942.922 57.5156 910.744 75.5588 879.62 93.0015C848.74 110.316 816.792 128.219 776.672 128.219C736.551 128.219 704.603 110.316 673.723 93.0015C642.599 75.5588 610.422 57.5156 569.734 57.5156V59.4324C609.868 59.4324 641.802 77.335 672.683 94.6499C703.793 112.105 735.984 130.148 776.658 130.148Z" fill="white"/>
        <path d="M776.658 116.941C817.346 116.941 849.523 98.8982 880.647 81.4556C911.528 64.1408 943.475 46.2254 983.596 46.2254C1023.73 46.2254 1055.66 64.128 1086.54 81.4428C1103.09 90.72 1120.21 100.317 1138.43 107.089L1139.19 105.313C1121.13 98.5916 1104.08 89.0333 1087.6 79.7944C1056.47 62.3518 1024.3 44.3086 983.609 44.3086C942.922 44.3086 910.744 62.3518 879.62 79.7944C848.74 97.1093 816.792 115.025 776.672 115.025C736.551 115.025 704.603 97.122 673.723 79.7944C642.599 62.339 610.422 44.3086 569.734 44.3086V46.2254C609.868 46.2254 641.802 64.128 672.683 81.4556C703.793 98.8982 735.984 116.941 776.658 116.941Z" fill="white"/>
        <path d="M776.658 104.246C817.346 104.246 849.523 86.2029 880.647 68.7603C911.528 51.4455 943.475 33.5301 983.596 33.5301C1023.73 33.5301 1055.66 51.4327 1086.54 68.7603C1103.12 78.0247 1120.23 87.6213 1138.44 94.3939L1139.19 92.6177C1121.13 85.8962 1104.08 76.3507 1087.6 67.0991C1056.47 49.6565 1024.3 31.6133 983.609 31.6133C942.922 31.6133 910.744 49.6565 879.62 67.0991C848.74 84.4139 816.792 102.317 776.672 102.317C736.551 102.317 704.603 84.4139 673.723 67.0991C642.599 49.6437 610.422 31.6133 569.734 31.6133V33.5301C609.868 33.5301 641.802 51.4327 672.683 68.7603C703.793 86.2029 735.984 104.246 776.658 104.246Z" fill="white"/>
        <path d="M776.658 91.5469C817.346 91.5469 849.523 73.5005 880.647 56.0549C911.528 38.737 943.475 20.8312 983.596 20.8312C1023.73 20.8312 1055.66 38.737 1086.54 56.0549C1103.09 65.3337 1120.21 74.932 1138.43 81.7058L1139.19 79.9292C1121.13 73.2066 1104.08 63.6594 1087.6 54.4061C1056.47 36.9477 1024.3 18.9141 983.609 18.9141C942.922 18.9141 910.744 36.9604 879.62 54.4061C848.74 71.724 816.792 89.6426 776.672 89.6426C736.551 89.6426 704.603 71.7368 673.723 54.4061C642.599 36.9477 610.422 18.9141 569.734 18.9141V20.8312C609.868 20.8312 641.802 38.737 672.683 56.0549C703.793 73.5133 735.984 91.5469 776.658 91.5469Z" fill="white"/>
        <path d="M776.658 78.8477C817.346 78.8477 849.523 60.8045 880.647 43.3619C911.528 26.047 943.475 8.1444 983.596 8.1444C1023.73 8.1444 1055.66 26.047 1086.54 43.3619C1103.09 52.639 1120.21 62.2357 1138.43 69.0083L1139.19 67.2193C1121.13 60.4978 1104.08 50.9523 1087.6 41.7007C1056.47 24.2581 1024.3 6.21484 983.609 6.21484C942.922 6.21484 910.744 24.2581 879.62 41.7007C848.74 59.0155 816.792 76.9181 776.672 76.9181C736.551 76.9181 704.603 59.0155 673.723 41.7007C642.599 24.2581 610.422 6.21484 569.734 6.21484V8.13161C609.868 8.13161 641.802 26.0343 672.683 43.3491C703.793 60.8045 735.984 78.8477 776.658 78.8477Z" fill="white"/>
        <path d="M776.658 66.1485C817.346 66.1485 849.523 48.1053 880.647 30.6626C911.528 13.3478 943.475 -4.55483 983.596 -4.55483C1023.73 -4.55483 1055.66 13.3478 1086.54 30.6626C1103.09 39.9398 1120.21 49.5365 1138.43 56.309L1139.19 54.5201C1121.13 47.7986 1104.08 38.2403 1087.6 29.0015C1056.47 11.5588 1024.3 -6.48437 983.609 -6.48437C942.922 -6.48437 910.744 11.5588 879.62 29.0015C848.74 46.3163 816.792 64.2189 776.672 64.2189C736.551 64.2189 704.603 46.3163 673.723 29.0015C642.599 11.5461 610.422 -6.48437 569.734 -6.48437V-4.5676C609.868 -4.5676 641.802 13.335 672.683 30.6499C703.793 48.1053 735.984 66.1485 776.658 66.1485Z" fill="white"/>
        <path d="M776.658 52.9453C817.346 52.9453 849.523 34.9021 880.647 17.4595C911.528 0.14469 943.475 -17.7579 983.596 -17.7579C1023.73 -17.7579 1055.66 0.14469 1086.54 17.4595C1103.09 26.7367 1120.21 36.3333 1138.43 43.1059L1139.19 41.3169C1121.13 34.5955 1104.08 25.0499 1087.6 15.7983C1056.47 -1.64429 1024.3 -19.6875 983.609 -19.6875C942.922 -19.6875 910.744 -1.64429 879.62 15.7983C848.74 33.1132 816.792 51.0158 776.672 51.0158C736.551 51.0158 704.603 33.1132 673.723 15.7983C642.599 -1.65707 610.422 -19.6875 569.734 -19.6875V-17.7707C609.868 -17.7707 641.802 0.131918 672.683 17.4468C703.793 34.9021 735.984 52.9453 776.658 52.9453Z" fill="white"/>
        <path d="M776.658 40.2461C817.346 40.2461 849.523 22.2029 880.647 4.7603C911.528 -12.5545 943.475 -30.4572 983.596 -30.4572C1023.73 -30.4572 1055.66 -12.5545 1086.54 4.7603C1103.09 14.0375 1120.21 23.6341 1138.43 30.4067L1139.19 28.6177C1121.13 21.8962 1104.08 12.3507 1087.6 3.09911C1056.47 -14.3435 1024.3 -32.3867 983.609 -32.3867C942.922 -32.3867 910.744 -14.3435 879.62 3.09911C848.74 20.4139 816.792 38.3294 776.672 38.3294C736.551 38.3294 704.603 20.4267 673.723 3.09911C642.599 -14.3563 610.422 -32.3867 569.734 -32.3867V-30.4699C609.868 -30.4699 641.802 -12.5673 672.683 4.74752C703.793 22.2029 735.984 40.2461 776.658 40.2461Z" fill="white"/>
        <path d="M776.658 27.5469C817.346 27.5469 849.523 9.5037 880.647 -7.93892C911.528 -25.2537 943.475 -43.1564 983.596 -43.1564C1023.72 -43.1564 1055.66 -25.2537 1086.54 -7.93892C1103.09 1.33825 1120.21 10.9349 1138.43 17.7075L1139.19 15.9185C1121.13 9.19701 1104.08 -0.348507 1087.6 -9.60012C1056.47 -27.0427 1024.3 -45.0859 983.609 -45.0859C942.922 -45.0859 910.744 -27.0427 879.62 -9.60012C848.74 7.71471 816.792 25.6301 776.672 25.6301C736.551 25.6301 704.603 7.72749 673.723 -9.60012C642.599 -27.0427 610.422 -45.0859 569.734 -45.0859V-43.1692C609.868 -43.1692 641.802 -25.2665 672.683 -7.9517C703.793 9.5037 735.984 27.5469 776.658 27.5469Z" fill="white"/>
        <path d="M776.658 14.8477C817.346 14.8477 849.523 -3.19869 880.647 -20.6444C911.528 -37.9623 943.475 -55.8681 983.596 -55.8681C1023.73 -55.8681 1055.66 -37.9623 1086.54 -20.6444C1103.09 -11.3656 1120.21 -1.76725 1138.43 5.00653L1139.19 3.23001C1121.13 -3.49265 1104.08 -13.0398 1087.6 -22.2931C1056.47 -39.7388 1024.3 -57.7852 983.609 -57.7852C942.922 -57.7852 910.744 -39.7388 879.62 -22.2931C848.74 -4.97521 816.792 12.9434 776.672 12.9434C736.551 12.9434 704.603 -4.96243 673.723 -22.2931C642.599 -39.7388 610.422 -57.7852 569.734 -57.7852V-55.8681C609.868 -55.8681 641.802 -37.9623 672.683 -20.6444C703.793 -3.19869 735.984 14.8477 776.658 14.8477Z" fill="white"/>
        <path d="M776.658 1.64456C817.346 1.64456 849.523 -16.3987 880.647 -33.8413C911.528 -51.1561 943.475 -69.0587 983.596 -69.0587C1023.73 -69.0587 1055.66 -51.1561 1086.54 -33.8413C1103.12 -24.5641 1120.23 -14.9675 1138.44 -8.19486L1139.19 -9.98385C1121.13 -16.7053 1104.08 -26.2508 1087.6 -35.5025C1056.47 -52.9451 1024.3 -70.9883 983.609 -70.9883C942.922 -70.9883 910.744 -52.9451 879.62 -35.5025C848.74 -18.1876 816.792 -0.284996 776.672 -0.284996C736.551 -0.284996 704.603 -18.1876 673.723 -35.5025C642.599 -52.9579 610.422 -70.9883 569.734 -70.9883V-69.0715C609.868 -69.0715 641.802 -51.1689 672.683 -33.854C703.793 -16.3986 735.984 1.64456 776.658 1.64456Z" fill="white"/>
    </g>
</svg>
