<svg width="19" height="25" viewBox="0 0 19 25" fill="none" xmlns="http://www.w3.org/2000/svg">
    <path d="M10.9913 0.949056C10.6535 0.732831 10.2554 0.625094 9.85746 0.625C9.45938 0.624906 9.06157 0.732644 8.725 0.947696L2.44727 4.99713H9.85746H17.2677L10.9913 0.949056Z" fill="#E1E6F0"/>
    <path d="M10.9913 0.949056C10.6534 0.732831 10.2553 0.625094 9.85742 0.625V4.99713H17.2676L10.9913 0.949056Z" fill="#CFD7E6"/>
    <path d="M17.9866 20.9401C18.6476 21.7981 18.9992 22.8388 18.9992 23.9219C18.9992 24.3156 18.6899 24.6251 18.296 24.6251C16.9036 24.6251 15.5674 24.0203 14.6392 22.9795C14.4563 22.7826 14.2172 22.6982 13.9781 22.7404C12.5716 23.0499 11.2073 23.2187 9.85704 23.2187C8.50676 23.2187 7.14251 23.0499 5.73602 22.7404C5.49696 22.6842 5.25777 22.7826 5.07492 22.9795C4.14668 24.0204 2.81047 24.6251 1.41809 24.6251C1.02423 24.6251 0.714844 24.3156 0.714844 23.9219C0.714844 22.8388 1.06647 21.7981 1.72747 20.9401C1.8541 20.7853 1.88223 20.5275 1.82593 20.3165C1.40398 19.0085 0.714844 16.3643 0.714844 13.3263C0.714844 10.7242 1.22118 8.41763 1.62911 6.99707H18.085C18.4929 8.43164 18.9993 10.7383 18.9993 13.3263C18.9993 16.3643 18.3101 19.0085 17.8882 20.3165C17.8318 20.5275 17.86 20.7853 17.9866 20.9401Z" fill="#FFC44D"/>
    <path d="M17.987 20.94C18.648 21.798 18.9996 22.8388 18.9996 23.9218C18.9996 24.3156 18.6902 24.6251 18.2964 24.6251C16.9039 24.6251 15.5678 24.0203 14.6395 22.9794C14.4567 22.7825 14.2175 22.6982 13.9784 22.7404C12.572 23.0498 11.2077 23.2186 9.85742 23.2186V6.99707H18.0854C18.4933 8.43165 18.9996 10.7383 18.9996 13.3263C18.9996 16.3643 18.3104 19.0085 17.8885 20.3165C17.8322 20.5275 17.8604 20.7853 17.987 20.94Z" fill="#FF9040"/>
    <path d="M14.0758 11.9199H5.63684C5.24298 11.9199 4.93359 12.2293 4.93359 12.6232V18.2491C4.93359 18.6429 5.24298 18.9524 5.63684 18.9524H14.0758C14.4697 18.9524 14.779 18.6429 14.779 18.2491V12.6232C14.779 12.2293 14.4697 11.9199 14.0758 11.9199Z" fill="#FFDF80"/>
    <path d="M14.7801 12.6232V18.2491C14.7801 18.6429 14.4708 18.9524 14.0769 18.9524H9.85742V11.9199H14.0769C14.4708 11.9199 14.7801 12.2293 14.7801 12.6232Z" fill="#FFC44D"/>
    <path d="M18.296 4.88721H1.41809C1.02423 4.88721 0.714844 5.19659 0.714844 5.59045V6.99694C0.714844 7.39072 1.02423 7.70019 1.41809 7.70019H18.296C18.6899 7.70019 18.9992 7.39072 18.9992 6.99694V5.59045C18.9992 5.19659 18.6899 4.88721 18.296 4.88721Z" fill="#FFDF80"/>
    <path d="M18.9996 5.59045V6.99694C18.9996 7.39072 18.6902 7.70019 18.2964 7.70019H9.85742V4.88721H18.2964C18.6902 4.88721 18.9996 5.19659 18.9996 5.59045Z" fill="#FFC44D"/>
    <path d="M11.9675 15.4357C11.9675 15.8294 11.6581 16.1389 11.2643 16.1389H8.45129C8.05743 16.1389 7.74805 15.8294 7.74805 15.4357C7.74805 15.0418 8.05743 14.7324 8.45129 14.7324H11.2643C11.6581 14.7324 11.9675 15.0418 11.9675 15.4357Z" fill="#FFC44D"/>
    <path d="M11.9672 15.4357C11.9672 15.8294 11.6578 16.1389 11.2639 16.1389H9.85742V14.7324H11.2639C11.6578 14.7324 11.9672 15.0418 11.9672 15.4357Z" fill="#FF9040"/>
</svg>
