<svg width="25" height="25" viewBox="0 0 25 25" fill="none" xmlns="http://www.w3.org/2000/svg">
    <g clip-path="url(#clip0_301_32609)">
        <path d="M20.9387 13.326H19.9415C19.778 12.7511 19.5466 12.1969 19.2492 11.6695L19.9586 10.9601C20.2333 10.6854 20.2333 10.2403 19.9586 9.96562L17.9697 7.97675C17.6951 7.70206 17.25 7.70206 16.9753 7.97675L16.2659 8.68618C15.7384 8.3888 15.1842 8.15739 14.6094 7.99391V6.9967C14.6094 6.608 14.2949 6.29346 13.9062 6.29346H12.4997H11.0932C10.7045 6.29346 10.3899 6.608 10.3899 6.9967V7.99391C9.81509 8.15734 9.26089 8.3888 8.73346 8.68618L8.02402 7.97675C7.74933 7.70206 7.30427 7.70206 7.02958 7.97675L5.04071 9.96562C4.76602 10.2403 4.76602 10.6854 5.04071 10.9601L5.75015 11.6695C5.45277 12.1969 5.22135 12.7511 5.05787 13.326H4.06067C3.67196 13.326 3.35742 13.6405 3.35742 14.0292V16.8422C3.35742 17.2309 3.67196 17.5454 4.06067 17.5454H5.05787C5.2213 18.1203 5.45277 18.6745 5.75015 19.2019L5.04071 19.9113C4.76602 20.186 4.76602 20.6311 5.04071 20.9058L7.02958 22.8947C7.30427 23.1693 7.74933 23.1693 8.02402 22.8947L8.73346 22.1852C9.26089 22.4826 9.81509 22.714 10.3899 22.8775V23.9216C10.3899 24.3103 10.7045 24.6248 11.0932 24.6248H12.4997H13.9062C14.2949 24.6248 14.6094 24.3103 14.6094 23.9216V22.8775C15.1842 22.7141 15.7384 22.4826 16.2659 22.1852L16.9753 22.8947C17.25 23.1693 17.6951 23.1693 17.9697 22.8947L19.9586 20.9058C20.2333 20.6311 20.2333 20.186 19.9586 19.9113L19.2492 19.2019C19.5466 18.6745 19.778 18.1203 19.9415 17.5454H20.9387C21.3274 17.5454 21.6419 17.2309 21.6419 16.8422V14.0292C21.6419 13.6405 21.3274 13.326 20.9387 13.326ZM12.4997 19.6552C10.1693 19.6552 8.28024 17.7661 8.28024 15.4357C8.28024 13.1053 10.1693 11.2162 12.4997 11.2162C14.8301 11.2162 16.7192 13.1053 16.7192 15.4357C16.7192 17.7661 14.8301 19.6552 12.4997 19.6552Z" fill="#99CCFF"/>
        <path d="M14.6097 23.9216V22.8775C15.1846 22.7141 15.7388 22.4826 16.2662 22.1852L16.9756 22.8947C17.2503 23.1693 17.6954 23.1693 17.9701 22.8947L19.959 20.9058C20.2336 20.6311 20.2336 20.186 19.959 19.9113L19.2495 19.2019C19.5469 18.6745 19.7783 18.1203 19.9418 17.5454H20.939C21.3277 17.5454 21.6422 17.2309 21.6422 16.8422V14.0292C21.6422 13.6405 21.3277 13.326 20.939 13.326H19.9418C19.7784 12.7511 19.5469 12.1969 19.2495 11.6695L19.959 10.9601C20.2336 10.6854 20.2336 10.2403 19.959 9.96562L17.9701 7.97675C17.6954 7.70206 17.2503 7.70206 16.9756 7.97675L16.2662 8.68618C15.7388 8.3888 15.1846 8.15739 14.6097 7.99391V6.9967C14.6097 6.608 14.2952 6.29346 13.9065 6.29346H12.5V11.2162C14.8304 11.2162 16.7195 13.1053 16.7195 15.4357C16.7195 17.766 14.8304 19.6551 12.5 19.6551V24.6247H13.9065C14.2952 24.6248 14.6097 24.3103 14.6097 23.9216Z" fill="#80AAFF"/>
        <path d="M12.4999 10.5132C9.78112 10.5132 7.57715 12.7172 7.57715 15.4359C7.57715 18.1547 9.78112 20.3586 12.4999 20.3586C15.2186 20.3586 17.4226 18.1547 17.4226 15.4359C17.4226 12.7172 15.2186 10.5132 12.4999 10.5132ZM12.4999 18.9521C10.5611 18.9521 8.98364 17.3747 8.98364 15.4359C8.98364 13.4971 10.5611 11.9197 12.4999 11.9197C14.4386 11.9197 16.0161 13.4971 16.0161 15.4359C16.0161 17.3747 14.4386 18.9521 12.4999 18.9521Z" fill="#80AAFF"/>
        <path d="M17.4227 15.4359C17.4227 12.7172 15.2187 10.5132 12.5 10.5132V11.9197C14.4388 11.9197 16.0162 13.4971 16.0162 15.4359C16.0162 17.3747 14.4388 18.9521 12.5 18.9521V20.3586C15.2187 20.3586 17.4227 18.1547 17.4227 15.4359Z" fill="#6680FF"/>
        <path d="M16.1084 2.76992L16.3963 2.13165C15.165 1.59869 13.8532 1.32812 12.4996 1.32812C11.146 1.32812 9.83427 1.59869 8.60293 2.13165L8.89112 2.76973C5.63716 4.16961 3.35742 7.44927 3.35742 11.2163V11.9196H12.4996H21.6418V11.2163C21.6418 7.44937 19.3622 4.16985 16.1084 2.76992Z" fill="#FFE666"/>
        <path d="M21.6422 11.2163C21.6422 7.44932 19.3626 4.16985 16.1088 2.76987L16.3967 2.13161C15.1653 1.59869 13.8536 1.32812 12.5 1.32812V11.9196H21.6422V11.2163Z" fill="#FFC34D"/>
        <path d="M22.3453 9.81006H12.4999H2.65442C2.26571 9.81006 1.95117 10.1246 1.95117 10.5133V12.623C1.95117 12.9369 2.15924 13.213 2.46145 13.2995C2.66609 13.3579 7.53593 14.7328 12.4999 14.7328C17.4638 14.7328 22.3336 13.3579 22.5383 13.2995C22.8404 13.213 23.0485 12.9369 23.0485 12.623V10.5133C23.0485 10.1246 22.734 9.81006 22.3453 9.81006Z" fill="#FFC34D"/>
        <path d="M23.0487 12.623V10.5133C23.0487 10.1246 22.7341 9.81006 22.3454 9.81006H12.5V14.7328C17.4639 14.7328 22.3338 13.3579 22.5384 13.2995C22.8406 13.213 23.0487 12.9369 23.0487 12.623Z" fill="#FF9933"/>
        <path d="M17.0528 1.87767C16.9848 1.70256 16.8488 1.56107 16.6765 1.48619C15.3496 0.912065 13.9249 0.625 12.5002 0.625C11.0756 0.625 9.65087 0.912065 8.32403 1.48619C8.15165 1.56107 8.01569 1.70251 7.9477 1.87767C7.87972 2.05348 7.88521 2.24922 7.9628 2.4209L10.453 7.98934C10.6109 8.34303 11.0237 8.50098 11.3829 8.34097C11.7373 8.18166 11.8945 7.76548 11.7345 7.41109L9.54923 2.51842C10.499 2.19221 11.4997 2.0291 12.5002 2.0291C13.5008 2.0291 14.5015 2.19221 15.4512 2.51842L13.266 7.41109C13.106 7.76548 13.2632 8.18166 13.6176 8.34097C13.9715 8.50107 14.3889 8.34284 14.5475 7.98934L17.0377 2.4209C17.1153 2.24922 17.1208 2.05348 17.0528 1.87767Z" fill="#FFC34D"/>
        <path d="M13.2657 7.41109C13.1057 7.76548 13.263 8.18166 13.6174 8.34097C13.9712 8.50107 14.3887 8.34284 14.5472 7.98934L17.0374 2.4209C17.115 2.24922 17.1205 2.05348 17.0525 1.87767C16.9846 1.70256 16.8485 1.56107 16.6762 1.48619C15.3494 0.912065 13.9247 0.625 12.5 0.625V2.0291C13.5006 2.0291 14.5013 2.19221 15.451 2.51842L13.2657 7.41109Z" fill="#FF9933"/>
    </g>
    <defs>
        <clipPath id="clip0_301_32609">
            <rect width="24" height="24" fill="white" transform="translate(0.5 0.625)"/>
        </clipPath>
    </defs>
</svg>
