<svg width="24" height="25" viewBox="0 0 24 25" fill="none" xmlns="http://www.w3.org/2000/svg">
    <path d="M17.2719 24.625C13.0646 24.625 8.57166 23.079 5.05875 19.5662C1.5517 16.0591 0 11.5692 0 7.35311C0 3.63738 3.00619 0.625 6.72811 0.625C7.01564 0.625 7.27416 0.800031 7.38094 1.06698L10.3935 8.59825C10.5377 8.95881 10.3623 9.36798 10.0018 9.51222L6.69258 10.8359C6.92667 14.643 9.98264 17.6987 13.7891 17.9325L15.1128 14.6233C15.2567 14.2633 15.6658 14.0873 16.0268 14.2316L23.558 17.2441C23.8249 17.3508 24 17.6094 24 17.8969C24 21.6126 20.9938 24.625 17.2719 24.625Z" fill="#4588FF"/>
</svg>
