<svg width="24" height="25" viewBox="0 0 24 25" fill="none" xmlns="http://www.w3.org/2000/svg">
    <g clip-path="url(#clip0_301_32924)">
        <path d="M16.8651 7.45104L16.216 9.12816H9.73043V21.2835C9.73043 21.5153 9.61637 21.7327 9.42486 21.8636C9.3061 21.9458 9.16669 21.9875 9.02635 21.9875C8.94092 21.9875 8.85549 21.9721 8.77382 21.9406L0.451549 18.7398C0.276936 18.6727 0.136589 18.5394 0.060548 18.3686C-0.0150236 18.1982 -0.0201869 18.0043 0.0469357 17.8302L5.43881 3.81092C5.50593 3.63631 5.63924 3.49596 5.81009 3.41992C5.98048 3.34435 6.17434 3.33919 6.34848 3.40631L16.8651 7.45104Z" fill="#97DE3D"/>
        <path d="M8.77349 21.9407C8.85531 21.9722 8.94092 21.9877 9.02621 21.9877C9.1666 21.9877 9.30587 21.9457 9.42486 21.864C9.61609 21.7327 9.73034 21.5156 9.73034 21.2836V10.126L5.6582 20.7426L8.77349 21.9407Z" fill="#59C36A"/>
        <path d="M16.8654 7.45128L16.2163 9.12841H10.1133L11.5421 5.40381L16.8654 7.45128Z" fill="#59C36A"/>
        <path d="M9.02577 13.0871C8.9417 13.0871 8.85627 13.072 8.77314 13.04L6.93783 12.3341C6.5749 12.1945 6.39386 11.7871 6.53345 11.4241C6.67305 11.0612 7.08048 10.8802 7.44336 11.0198L9.27867 11.7257C9.64161 11.8653 9.82265 12.2727 9.68305 12.6356C9.57547 12.9155 9.30867 13.0871 9.02577 13.0871Z" fill="#59C36A"/>
        <path d="M9.02572 17.1097C8.94165 17.1097 8.85627 17.0946 8.77314 17.0627L5.59022 15.8385C5.22728 15.6989 5.04619 15.2915 5.18579 14.9286C5.32539 14.5656 5.73277 14.3846 6.0957 14.5242L9.27863 15.7483C9.64156 15.8879 9.82265 16.2953 9.68305 16.6582C9.57542 16.938 9.30862 17.1097 9.02572 17.1097Z" fill="#59C36A"/>
        <path d="M9.27927 15.7482L7.79337 15.1768L7.28906 16.4916L8.77379 17.0626C8.85692 17.0945 8.9423 17.1097 9.02637 17.1097C9.30922 17.1097 9.57607 16.9379 9.6837 16.6581C9.82329 16.2952 9.64225 15.8878 9.27927 15.7482Z" fill="#00A66C"/>
        <path d="M23.2958 7.43848H9.02635C8.63751 7.43848 8.32227 7.75372 8.32227 8.14256V23.163C8.32227 23.5518 8.63751 23.8671 9.02635 23.8671H23.2958C23.6846 23.8671 23.9999 23.5518 23.9999 23.163V8.14256C23.9999 7.75372 23.6846 7.43848 23.2958 7.43848Z" fill="#FED843"/>
        <path d="M23.2968 7.43848H16.1621V23.8671H23.2968C23.6857 23.8671 24.0009 23.5518 24.0009 23.163V8.14256C24.0009 7.75372 23.6857 7.43848 23.2968 7.43848Z" fill="#FF9100"/>
        <path d="M19.5414 15.559H12.7822C12.3934 15.559 12.0781 15.2438 12.0781 14.855C12.0781 14.4661 12.3934 14.1509 12.7822 14.1509H19.5414C19.9303 14.1509 20.2455 14.4661 20.2455 14.855C20.2455 15.2438 19.9303 15.559 19.5414 15.559Z" fill="#FF9100"/>
        <path d="M19.5417 14.1509H16.1621V15.559H19.5417C19.9306 15.559 20.2458 15.2438 20.2458 14.855C20.2458 14.4661 19.9306 14.1509 19.5417 14.1509Z" fill="#FF641A"/>
        <path d="M19.5414 19.3139H12.7822C12.3934 19.3139 12.0781 18.9987 12.0781 18.6098C12.0781 18.221 12.3934 17.9058 12.7822 17.9058H19.5414C19.9303 17.9058 20.2455 18.221 20.2455 18.6098C20.2455 18.9987 19.9303 19.3139 19.5414 19.3139Z" fill="#FF9100"/>
        <path d="M19.5417 17.9058H16.1621V19.3139H19.5417C19.9306 19.3139 20.2458 18.9987 20.2458 18.6098C20.2458 18.221 19.9306 17.9058 19.5417 17.9058Z" fill="#FF641A"/>
        <path d="M16.1611 11.0999C15.7723 11.0999 15.457 10.7847 15.457 10.3958V5.13865C15.457 4.74981 15.7723 4.43457 16.1611 4.43457C16.55 4.43457 16.8652 4.74981 16.8652 5.13865V10.3958C16.8652 10.7847 16.55 11.0999 16.1611 11.0999Z" fill="#EDF5FF"/>
        <path d="M16.1621 4.43457V11.0999C16.551 11.0999 16.8662 10.7847 16.8662 10.3958V5.13865C16.8662 4.74981 16.551 4.43457 16.1621 4.43457Z" fill="#D5E8FE"/>
        <path d="M16.1847 5.8425C17.416 5.8425 18.4143 4.84427 18.4143 3.6129C18.4143 2.38153 17.416 1.3833 16.1847 1.3833C14.9533 1.3833 13.9551 2.38153 13.9551 3.6129C13.9551 4.84427 14.9533 5.8425 16.1847 5.8425Z" fill="#5F55AF"/>
        <path d="M16.1856 1.3833C16.1777 1.3833 16.1699 1.38382 16.1621 1.38391V5.84193C16.1699 5.84203 16.1777 5.84254 16.1856 5.84254C17.415 5.84254 18.4152 4.84232 18.4152 3.61295C18.4152 2.38357 17.415 1.3833 16.1856 1.3833Z" fill="#453D83"/>
    </g>
    <defs>
        <clipPath id="clip0_301_32924">
            <rect width="24" height="24" fill="white" transform="translate(0 0.625)"/>
        </clipPath>
    </defs>
</svg>
