<svg width="25" height="25" viewBox="0 0 25 25" fill="none" xmlns="http://www.w3.org/2000/svg">
    <g clip-path="url(#clip0_301_32593)">
        <path d="M18.1099 6.40509C18.1099 7.99353 17.5403 9.36847 16.4166 10.4924C15.2928 11.6161 13.9177 12.1857 12.3293 12.1857H12.3265C10.7401 12.1852 9.36591 11.6155 8.24219 10.4924C7.11829 9.36847 6.54883 7.99353 6.54883 6.40509C6.54883 4.8172 7.11829 3.44208 8.24219 2.31836C9.36536 1.19501 10.7396 0.625549 12.3265 0.625H12.3293C13.9172 0.625 15.2923 1.19464 16.4166 2.31836C17.5403 3.44208 18.1099 4.8172 18.1099 6.40509Z" fill="#FFBB85"/>
        <path d="M22.4922 20.4976C22.4922 21.7507 22.0936 22.7653 21.3085 23.5126C20.5325 24.251 19.5062 24.6251 18.2583 24.6251H6.70215C5.45428 24.6251 4.42798 24.251 3.65253 23.5126C2.86682 22.7648 2.46875 21.7504 2.46875 20.4976C2.46875 20.0156 2.48468 19.5388 2.51654 19.0803C2.54895 18.6116 2.6145 18.1014 2.71118 17.5633C2.80859 17.0208 2.93384 16.5079 3.0838 16.0391C3.23944 15.5539 3.45001 15.0753 3.71057 14.6168C3.9812 14.1409 4.29907 13.7263 4.6554 13.385C5.02893 13.0278 5.4856 12.7408 6.01349 12.5317C6.53955 12.3237 7.12274 12.2183 7.74677 12.2183C7.99158 12.2183 8.2287 12.3184 8.68573 12.6161C8.97174 12.8027 9.30133 13.0151 9.66516 13.2477C9.97937 13.448 10.4049 13.6359 10.931 13.8056C11.3933 13.9552 11.8626 14.0387 12.3262 14.0532C12.3773 14.055 12.4284 14.0559 12.4795 14.0559C12.9944 14.0559 13.5151 13.9715 14.0286 13.8056C14.5546 13.6359 14.9807 13.448 15.2947 13.2477C15.6624 13.0128 15.992 12.8005 16.2738 12.6167C16.7312 12.3184 16.968 12.2183 17.2133 12.2183C17.8368 12.2183 18.42 12.3237 18.9464 12.5317C19.4743 12.7408 19.931 13.0283 20.3041 13.385C20.661 13.7263 20.9789 14.1409 21.2493 14.6168C21.5101 15.0756 21.721 15.5539 21.8761 16.0386C22.0262 16.5079 22.1519 17.0208 22.2493 17.5637C22.3454 18.1024 22.4111 18.6125 22.4434 19.08C22.4758 19.537 22.4917 20.0138 22.4922 20.4976Z" fill="#6AA9FF"/>
        <path d="M12.3289 12.1857H12.3262V0.625H12.3289C13.9168 0.625 15.2919 1.19464 16.4162 2.31836C17.5399 3.44208 18.1096 4.8172 18.1096 6.40509C18.1096 7.99353 17.5399 9.36847 16.4162 10.4924C15.2925 11.6161 13.9174 12.1857 12.3289 12.1857Z" fill="#F5A86C"/>
        <path d="M22.4922 20.4976C22.4922 21.7507 22.0936 22.7653 21.3084 23.5126C20.5324 24.251 19.5061 24.6251 18.2582 24.6251H12.3262V14.0532C12.3773 14.055 12.4283 14.0559 12.4794 14.0559C12.9943 14.0559 13.5151 13.9715 14.0285 13.8056C14.5546 13.6359 14.9807 13.448 15.2947 13.2477C15.6624 13.0128 15.9919 12.8005 16.2737 12.6167C16.7311 12.3184 16.9679 12.2183 17.2133 12.2183C17.8367 12.2183 18.4199 12.3237 18.9464 12.5317C19.4742 12.7408 19.9309 13.0283 20.3041 13.385C20.6609 13.7263 20.9788 14.1409 21.2493 14.6168C21.51 15.0756 21.7209 15.5539 21.876 16.0386C22.0262 16.5079 22.1518 17.0208 22.2492 17.5637C22.3453 18.1024 22.4111 18.6125 22.4433 19.08C22.4757 19.537 22.4916 20.0138 22.4922 20.4976Z" fill="#2682FF"/>
    </g>
    <defs>
        <clipPath id="clip0_301_32593">
            <rect width="24" height="24" fill="white" transform="translate(0.5 0.625)"/>
        </clipPath>
    </defs>
</svg>
