<svg width="68" height="68" viewBox="0 0 68 68" fill="none" xmlns="http://www.w3.org/2000/svg">
    <rect width="68" height="68" rx="8" fill="white"/>
    <g clip-path="url(#clip0_301_31819)">
        <path d="M43.6326 26.9061C42.7458 24.1278 39.6901 19.875 34.0074 19.875C28.3083 19.875 25.263 24.1468 24.3822 26.9061C24.2246 27.3994 23.697 27.6713 23.2039 27.5142C22.7107 27.3567 22.4385 26.8292 22.5959 26.3359C23.6565 23.0139 27.2899 18 34.0074 18C40.7621 18 44.3724 23.0579 45.4188 26.3359C45.5763 26.8293 45.304 27.3567 44.8108 27.5142C44.3014 27.6765 43.7849 27.3833 43.6326 26.9061Z" fill="#013772"/>
        <path d="M43.6325 26.9061C42.7457 24.1278 39.69 19.875 34.0073 19.875V18C40.7621 18 44.3724 23.0579 45.4188 26.3359C45.5762 26.8293 45.304 27.3567 44.8107 27.5142C44.3013 27.6765 43.7849 27.3833 43.6325 26.9061Z" fill="#010043"/>
        <path d="M28.3885 34.9269H24.9761C23.3526 34.9269 22.0317 33.6061 22.0317 31.9826V27.9687C22.0317 26.3451 23.3526 25.0243 24.9761 25.0243H28.3885C28.7378 25.0243 29.0581 25.2184 29.2197 25.5281C29.3812 25.8378 29.3572 26.2117 29.1574 26.4982C28.4431 27.5219 28.0656 28.7244 28.0656 29.9756C28.0656 31.2269 28.4431 32.4294 29.1574 33.4531C29.3572 33.7396 29.3812 34.1134 29.2197 34.4231C29.0581 34.7329 28.7378 34.9269 28.3885 34.9269Z" fill="#016EA1"/>
        <path d="M43.0388 34.9269H39.6265C39.2772 34.9269 38.9568 34.7328 38.7953 34.4231C38.6337 34.1134 38.6577 33.7395 38.8576 33.453C39.5718 32.4293 39.9493 31.2268 39.9493 29.9756C39.9493 28.7243 39.5718 27.5218 38.8576 26.4981C38.6577 26.2116 38.6337 25.8378 38.7953 25.5281C38.9568 25.2184 39.2772 25.0242 39.6265 25.0242H43.0388C44.6624 25.0242 45.9832 26.3451 45.9832 27.9686V31.9825C45.9833 33.6061 44.6624 34.9269 43.0388 34.9269Z" fill="#013772"/>
        <path d="M39.3018 35.2736C42.2276 32.3478 42.2276 27.6042 39.3018 24.6785C36.3761 21.7527 31.6325 21.7527 28.7067 24.6785C25.781 27.6042 25.781 32.3478 28.7067 35.2736C31.6325 38.1993 36.3761 38.1993 39.3018 35.2736Z" fill="#FFDCD7"/>
        <path d="M34.0073 22.4826C38.139 22.4826 41.5004 25.8439 41.5004 29.9756C41.5004 34.1073 38.139 37.4687 34.0073 37.4687V22.4826Z" fill="#FFB9BC"/>
        <path d="M23.8593 50C22.4692 50 21.426 48.7228 21.7085 47.3577C21.7093 47.3541 21.7101 47.3504 21.7109 47.3468C22.8489 42.1951 27.5133 37.4686 34.0066 37.4686C40.7713 37.4686 45.2261 42.4797 46.2897 47.3519C46.2904 47.355 46.291 47.358 46.2917 47.3611C46.5718 48.7162 45.5377 49.9864 44.1539 49.9864C39.9076 50 28.2485 50 23.8593 50Z" fill="#00DCFF"/>
        <path d="M41.2084 33.9235H36.0142C35.4964 33.9235 35.0767 33.5038 35.0767 32.986C35.0767 32.4683 35.4964 32.0485 36.0142 32.0485H41.2084C41.7262 32.0485 42.1459 32.4683 42.1459 32.986C42.1459 33.5038 41.7262 33.9235 41.2084 33.9235Z" fill="#010043"/>
        <path d="M46.2897 47.3519C45.2261 42.4799 40.7716 37.469 34.0073 37.4686V49.9983C38.0193 49.9966 42.0213 49.9933 44.1539 49.9864C45.5376 49.9864 46.5718 48.7163 46.2916 47.3611C46.2909 47.3581 46.2904 47.3551 46.2897 47.3519Z" fill="#00A8FF"/>
    </g>
    <defs>
        <clipPath id="clip0_301_31819">
            <rect width="32" height="32" fill="white" transform="translate(18 18)"/>
        </clipPath>
    </defs>
</svg>
