<svg width="24" height="25" viewBox="0 0 24 25" fill="none" xmlns="http://www.w3.org/2000/svg">
    <g clip-path="url(#clip0_301_32908)">
        <path d="M24.0006 13.051V17.7962C24.0006 18.1847 23.6856 18.4993 23.2975 18.4993H15.9845C15.5969 18.4993 15.2823 18.1857 15.2814 17.798L15.2617 8.88428C15.2617 8.49615 15.5763 8.18115 15.9648 8.18115H19.2644C19.4552 8.18115 19.6375 8.2585 19.7697 8.39537L23.8028 12.5621C23.9298 12.6933 24.0006 12.8687 24.0006 13.051Z" fill="#F3EDEA"/>
        <path d="M15.2695 13.0508L15.28 17.7976C15.281 18.1853 15.5955 18.4989 15.9832 18.4989H23.2961C23.6843 18.4989 23.9993 18.1843 23.9993 17.7958V13.0508H15.2695Z" fill="#007FFC"/>
        <path d="M24.0006 13.051C24.0006 12.8687 23.9298 12.6933 23.8028 12.5621L19.7697 8.39537C19.6375 8.2585 19.4552 8.18115 19.2644 8.18115H15.9648C15.5763 8.18115 15.2617 8.49615 15.2617 8.88428L15.2709 13.0512H24.0006V13.051Z" fill="#F3EDEA"/>
        <path d="M16.1702 5.14062V18.4991H15.9827L2.92188 18.6359C2.73672 18.6359 2.55859 18.5628 2.42734 18.432C2.29375 18.3003 2.21875 18.1203 2.21875 17.9328V5.14062C2.21875 4.7525 2.53375 4.4375 2.92188 4.4375H15.467C15.8552 4.4375 16.1702 4.7525 16.1702 5.14062Z" fill="#FFD900"/>
        <path d="M7.20083 20.8127C6.42514 20.8127 5.69591 20.5107 5.14742 19.9622C4.59894 19.4138 4.29688 18.6845 4.29688 17.9088C4.29692 16.3076 5.59963 15.0049 7.20078 15.0049H7.20083C7.97647 15.0049 8.7057 15.3069 9.25419 15.8554C9.80267 16.4038 10.1047 17.1331 10.1047 17.9087C10.1047 19.5099 8.80198 20.8126 7.20083 20.8127Z" fill="#003165"/>
        <path d="M7.20087 16.4111C6.37503 16.4111 5.70317 17.083 5.70312 17.9089C5.70312 18.3089 5.85889 18.685 6.14173 18.9678C6.42458 19.2507 6.8007 19.4064 7.20073 19.4064C8.02653 19.4064 8.69839 18.7345 8.69844 17.9087C8.69844 17.5087 8.54267 17.1326 8.25983 16.8497C7.97694 16.5669 7.60086 16.4111 7.20087 16.4111Z" fill="#F3EDEA"/>
        <path d="M19.4704 20.8127C18.6947 20.8127 17.9654 20.5107 17.417 19.9622C16.8685 19.4138 16.5664 18.6845 16.5664 17.9088C16.5665 16.3076 17.8692 15.0049 19.4703 15.0049H19.4704C20.246 15.0049 20.9752 15.3069 21.5237 15.8554C22.0722 16.4038 22.3743 17.1331 22.3743 17.9087C22.3742 19.5099 21.0715 20.8126 19.4704 20.8127Z" fill="#020B37"/>
        <path d="M19.4704 16.4111C18.6446 16.4111 17.9727 17.083 17.9727 17.9089C17.9727 18.3089 18.1284 18.685 18.4113 18.9678C18.6941 19.2507 19.0702 19.4064 19.4703 19.4064C20.2961 19.4064 20.9679 18.7345 20.968 17.9087C20.968 17.5087 20.8122 17.1326 20.5294 16.8497C20.2465 16.5669 19.8704 16.4111 19.4704 16.4111Z" fill="#E3DCDA"/>
        <path d="M7.80145 8.63818H1.6875C1.29919 8.63818 0.984375 8.32337 0.984375 7.93506C0.984375 7.54675 1.29919 7.23193 1.6875 7.23193H7.80145C8.18977 7.23193 8.50458 7.54675 8.50458 7.93506C8.50458 8.32337 8.18977 8.63818 7.80145 8.63818Z" fill="#FFC200"/>
        <path d="M7.28592 11.4512H0.703125C0.314812 11.4512 0 11.1364 0 10.748C0 10.3597 0.314812 10.0449 0.703125 10.0449H7.28592C7.67423 10.0449 7.98905 10.3597 7.98905 10.748C7.98905 11.1364 7.67423 11.4512 7.28592 11.4512Z" fill="#FE9900"/>
        <path d="M15.4683 4.4375H12V18.5408L15.9839 18.4991H16.1714V5.14062C16.1714 4.7525 15.8564 4.4375 15.4683 4.4375Z" fill="#FFC200"/>
    </g>
    <defs>
        <clipPath id="clip0_301_32908">
            <rect width="24" height="24" fill="white" transform="translate(0 0.625)"/>
        </clipPath>
    </defs>
</svg>
