<svg width="24" height="25" viewBox="0 0 24 25" fill="none" xmlns="http://www.w3.org/2000/svg">
    <g clip-path="url(#clip0_301_32667)">
        <path d="M22.4963 8.36523H1.44922V22.8979H22.4963V8.36523Z" fill="#FFCE54"/>
        <path d="M19.6013 13.3252H15.2197V22.5327H19.6013V13.3252Z" fill="#4FC2E9"/>
        <path d="M22.2545 2.35205H1.66406V5.39016H22.2545V2.35205Z" fill="#E6E9ED"/>
        <path d="M12.9755 13.3765H3.95508V19.3902H12.9755V13.3765Z" fill="#4FC2E9"/>
        <path d="M3.4541 12.8755V19.8913H13.4766V12.8755H3.4541ZM12.4739 18.8887H4.45609V13.8774H12.4739V18.8887Z" fill="#F5F7FA"/>
        <path d="M14.4785 12.8755V22.898H20.4917V12.8755H14.4785ZM19.4898 21.896H15.4805V13.8774H19.4898V21.896Z" fill="#F5F7FA"/>
        <path d="M11.4685 16.3833C11.3293 16.3833 11.2048 16.4397 11.114 16.5305L10.1121 17.5324C10.0212 17.6233 9.96484 17.7485 9.96484 17.8869C9.96484 18.1638 10.1897 18.3879 10.4666 18.3879C10.6043 18.3879 10.7295 18.3322 10.8203 18.2414L11.823 17.2388C11.9131 17.1487 11.9695 17.0227 11.9695 16.885C11.9695 16.6081 11.7454 16.3833 11.4685 16.3833Z" fill="#3BAFDA"/>
        <path d="M11.8228 15.2348C11.9129 15.144 11.9693 15.0188 11.9693 14.8804C11.9693 14.6035 11.7452 14.3794 11.4683 14.3794C11.3291 14.3794 11.2046 14.4351 11.1138 14.5259L8.1072 17.5324C8.01635 17.6233 7.95996 17.7485 7.95996 17.8869C7.95996 18.1638 8.18408 18.3879 8.46098 18.3879C8.60015 18.3879 8.72466 18.3323 8.81546 18.2415L11.8228 15.2348Z" fill="#3BAFDA"/>
        <path d="M19.6011 17.3857H14.9795C14.7027 17.3857 14.4785 17.6098 14.4785 17.8867C14.4785 18.1636 14.7026 18.3877 14.9795 18.3877H19.6011C19.878 18.3877 20.1021 18.1636 20.1021 17.8867C20.1021 17.6098 19.878 17.3857 19.6011 17.3857Z" fill="#F5F7FA"/>
        <path d="M21.1362 11.8733C22.7175 11.8733 24 10.5909 24 9.00954C24 8.8572 23.9875 8.70775 23.9648 8.56206L23.9487 8.47196C23.9458 8.45804 23.9436 8.44412 23.9414 8.4302L22.2817 4.35645H18.1582L18.8452 10.7278L18.9418 10.8494C19.4678 11.4749 20.2551 11.8733 21.1362 11.8733Z" fill="#DA4453"/>
        <path d="M14.0352 4.35645L14.2636 10.7278C14.7866 11.4229 15.6186 11.8733 16.5547 11.8733C17.4922 11.8733 18.3227 11.4229 18.8457 10.7278L18.1587 4.35645H14.0352Z" fill="#E6E9ED"/>
        <path d="M2.86303 11.8733C1.28174 11.8733 0 10.5909 0 9.00954C0 8.8572 0.0116722 8.70775 0.0351105 8.56206H0.0343604L0.0511891 8.47196C0.0533923 8.45804 0.0555955 8.44412 0.0585018 8.4302L1.71816 4.35645H5.84099L5.15322 10.7278L5.05727 10.8494C4.5322 11.4749 3.74412 11.8733 2.86303 11.8733Z" fill="#DA4453"/>
        <path d="M9.96463 4.35645L9.73535 10.7278C9.21315 11.4229 8.38184 11.8733 7.44436 11.8733C6.50828 11.8733 5.67627 11.4229 5.15332 10.7278L5.84109 4.35645H9.96463Z" fill="#E6E9ED"/>
        <path d="M9.91114 4.35645L9.68262 10.7278C10.2041 11.4229 11.0362 11.8733 11.9729 11.8733C12.9096 11.8733 13.7417 11.4229 14.2632 10.7278L14.0347 4.35645H9.91114Z" fill="#DA4453"/>
        <path d="M0.0555955 8.44585C0.0541423 8.45466 0.0526891 8.46343 0.0511891 8.47219L0.0343604 8.56229H0.0351105C0.0116722 8.70803 0 8.85742 0 9.00977C0 10.5911 1.28174 11.8735 2.86303 11.8735C3.74412 11.8735 4.5322 11.4751 5.05736 10.8496L5.15332 10.728L5.40017 8.4458H0.0555955V8.44585Z" fill="#ED5564"/>
        <path d="M5.40017 8.4458L5.15332 10.728C5.67627 11.4231 6.50828 11.8735 7.44436 11.8735C8.38184 11.8735 9.21315 11.4231 9.73535 10.728L9.81739 8.4458H5.40017Z" fill="#F5F7FA"/>
        <path d="M9.76465 8.4458L9.68262 10.728C10.2041 11.4231 11.0362 11.8735 11.9729 11.8735C12.9096 11.8735 13.7417 11.4231 14.2632 10.728L14.1812 8.4458H9.76465Z" fill="#ED5564"/>
        <path d="M14.1816 8.4458L14.2636 10.728C14.7866 11.4231 15.6186 11.8735 16.5547 11.8735C17.4921 11.8735 18.3227 11.4231 18.8457 10.728L18.5996 8.4458H14.1816Z" fill="#F5F7FA"/>
        <path d="M23.9644 8.56224L23.9483 8.47215C23.9468 8.46333 23.9446 8.45457 23.9432 8.4458H18.5986L18.8447 10.728L18.9414 10.8496C19.4673 11.4751 20.2547 11.8735 21.1358 11.8735C22.7171 11.8735 23.9996 10.5911 23.9996 9.00977C23.9996 8.85738 23.9871 8.70793 23.9644 8.56224Z" fill="#ED5564"/>
    </g>
    <defs>
        <clipPath id="clip0_301_32667">
            <rect width="24" height="24" fill="white" transform="translate(0 0.625)"/>
        </clipPath>
    </defs>
</svg>
