<svg width="24" height="25" viewBox="0 0 24 25" fill="none" xmlns="http://www.w3.org/2000/svg">
    <g clip-path="url(#clip0_301_32639)">
        <path d="M23.425 8.29406L12.225 0.694029C12.0894 0.602014 11.9114 0.601967 11.7758 0.694029L0.575797 8.29406C0.466109 8.36845 0.400391 8.49239 0.400391 8.625V24.225C0.400391 24.4459 0.5795 24.625 0.800375 24.625H23.2004C23.4213 24.625 23.6004 24.4459 23.6004 24.225V8.625C23.6004 8.49239 23.5347 8.36845 23.425 8.29406Z" fill="#F07B52"/>
        <path d="M1.60044 24.225V8.62505C1.60044 8.49244 1.66616 8.3685 1.77584 8.29406L12.6004 0.948795L12.225 0.694029C12.0894 0.602014 11.9114 0.601967 11.7758 0.694029L0.575797 8.29406C0.466109 8.3685 0.400391 8.49248 0.400391 8.62505V24.225C0.400391 24.446 0.5795 24.625 0.800375 24.625H2.00038C1.7795 24.625 1.60044 24.446 1.60044 24.225Z" fill="#E5563C"/>
        <path d="M19.2004 10.2251H4.80038C4.57945 10.2251 4.40039 10.4042 4.40039 10.6251V24.2251C4.40039 24.446 4.5795 24.625 4.80038 24.625H19.2004C19.4213 24.625 19.6004 24.4459 19.6004 24.2251V10.6251C19.6004 10.4042 19.4213 10.2251 19.2004 10.2251Z" fill="#74757B"/>
        <path d="M4.80038 10.2251C4.57945 10.2251 4.40039 10.4042 4.40039 10.6251V24.2251C4.40039 24.446 4.5795 24.625 4.80038 24.625H5.60039V10.2251H4.80038Z" fill="#606268"/>
        <path d="M19.9996 8.625H3.99959C3.77867 8.625 3.59961 8.80411 3.59961 9.02498V10.625C3.59961 10.8459 3.77872 11.025 3.99959 11.025H19.9996C20.2205 11.025 20.3996 10.8458 20.3996 10.625V9.02498C20.3996 8.80411 20.2205 8.625 19.9996 8.625Z" fill="#C3C4C6"/>
        <path d="M19.9996 10.2252H3.99959C3.77867 10.2252 3.59961 10.0461 3.59961 9.8252V10.6252C3.59961 10.8461 3.77872 11.0252 3.99959 11.0252H19.9996C20.2205 11.0252 20.3996 10.8461 20.3996 10.6252V9.8252C20.3996 10.0462 20.2205 10.2252 19.9996 10.2252Z" fill="#AFB0B4"/>
        <path d="M13.6 4.22477H10.4C10.1791 4.22477 10 4.04566 10 3.82479C10 3.60387 10.1791 3.4248 10.4 3.4248H13.6C13.8209 3.4248 14 3.60391 14 3.82479C14 4.04571 13.8209 4.22477 13.6 4.22477Z" fill="#E5563C"/>
        <path d="M13.6 5.82487H10.4C10.1791 5.82487 10 5.64576 10 5.42489C10 5.20401 10.1791 5.0249 10.4 5.0249H13.6C13.8209 5.0249 14 5.20401 14 5.42489C14 5.64576 13.8209 5.82487 13.6 5.82487Z" fill="#E5563C"/>
        <path d="M13.6 7.42497H10.4C10.1791 7.42497 10 7.24586 10 7.02498C10 6.80406 10.1791 6.625 10.4 6.625H13.6C13.8209 6.625 14 6.80411 14 7.02498C14 7.24586 13.8209 7.42497 13.6 7.42497Z" fill="#E5563C"/>
        <path d="M9.60038 13.4248H4.80038C4.57945 13.4248 4.40039 13.6039 4.40039 13.8248V18.6248C4.40039 18.8457 4.5795 19.0248 4.80038 19.0248L7.20038 19.4248L9.60038 19.0248C9.8213 19.0248 10.0004 18.8457 10.0004 18.6248V13.8248C10.0004 13.6039 9.82134 13.4248 9.60038 13.4248Z" fill="#FDDD85"/>
        <path d="M9.60038 19.0249H4.80038C4.57945 19.0249 4.40039 19.204 4.40039 19.4249V24.2249C4.40039 24.4458 4.5795 24.6249 4.80038 24.6249H9.60038C9.8213 24.6249 10.0004 24.4458 10.0004 24.2249V19.4249C10.0004 19.204 9.82134 19.0249 9.60038 19.0249Z" fill="#FDDD85"/>
        <path d="M5.20041 24.2249V19.4249C5.20041 19.204 5.37952 19.0249 5.60039 19.0249H4.80038C4.57945 19.0249 4.40039 19.204 4.40039 19.4249V24.2249C4.40039 24.4458 4.5795 24.6249 4.80038 24.6249H5.60039C5.37947 24.6249 5.20041 24.4459 5.20041 24.2249Z" fill="#FDD042"/>
        <path d="M8.00038 19.0249H6.40039V21.0249C6.40039 21.2458 6.5795 21.4249 6.80038 21.4249H7.60039C7.82131 21.4249 8.00038 21.2457 8.00038 21.0249V19.0249Z" fill="#F2C127"/>
        <path d="M7.99997 23.8249H6.39998C6.17906 23.8249 6 23.6458 6 23.4249C6 23.204 6.17911 23.0249 6.39998 23.0249H7.99997C8.22089 23.0249 8.39995 23.204 8.39995 23.4249C8.39995 23.6458 8.22089 23.8249 7.99997 23.8249Z" fill="#74757B"/>
        <path d="M5.20041 18.6248V13.8248C5.20041 13.6039 5.37952 13.4248 5.60039 13.4248H4.80038C4.57945 13.4248 4.40039 13.6039 4.40039 13.8248V18.6248C4.40039 18.8457 4.5795 19.0248 4.80038 19.0248H5.60039C5.37947 19.0248 5.20041 18.8458 5.20041 18.6248Z" fill="#FDD042"/>
        <path d="M8.00038 13.4248H6.40039V15.4248C6.40039 15.6457 6.5795 15.8248 6.80038 15.8248H7.60039C7.82131 15.8248 8.00038 15.6457 8.00038 15.4248V13.4248Z" fill="#F2C127"/>
        <path d="M7.99997 18.2248H6.39998C6.17906 18.2248 6 18.0457 6 17.8248C6 17.6039 6.17911 17.4248 6.39998 17.4248H7.99997C8.22089 17.4248 8.39995 17.6039 8.39995 17.8248C8.39995 18.0457 8.22089 18.2248 7.99997 18.2248Z" fill="#74757B"/>
        <path d="M15.2 19.0249H10.4C10.1791 19.0249 10 19.204 10 19.4249V24.2249C10 24.4458 10.1791 24.6249 10.4 24.6249H15.2C15.4209 24.6249 15.6 24.4458 15.6 24.2249V19.4249C15.6 19.204 15.4209 19.0249 15.2 19.0249Z" fill="#FDDD85"/>
        <path d="M10.8 24.2249V19.4249C10.8 19.204 10.9791 19.0249 11.2 19.0249H10.4C10.1791 19.0249 10 19.204 10 19.4249V24.2249C10 24.4458 10.1791 24.6249 10.4 24.6249H11.2C10.9791 24.6249 10.8 24.4459 10.8 24.2249Z" fill="#FDD042"/>
        <path d="M13.6 19.0249H12V21.0249C12 21.2458 12.1791 21.4249 12.4 21.4249H13.2C13.4209 21.4249 13.6 21.2457 13.6 21.0249V19.0249H13.6Z" fill="#F2C127"/>
        <path d="M13.5996 23.8249H11.9996C11.7787 23.8249 11.5996 23.6458 11.5996 23.4249C11.5996 23.204 11.7787 23.0249 11.9996 23.0249H13.5996C13.8205 23.0249 13.9996 23.204 13.9996 23.4249C13.9996 23.6458 13.8205 23.8249 13.5996 23.8249Z" fill="#74757B"/>
    </g>
    <defs>
        <clipPath id="clip0_301_32639">
            <rect width="24" height="24" fill="white" transform="translate(0 0.625)"/>
        </clipPath>
    </defs>
</svg>
