<svg width="24" height="25" viewBox="0 0 24 25" fill="none" xmlns="http://www.w3.org/2000/svg">
    <g clip-path="url(#clip0_301_32627)">
        <path d="M23.2969 24.625H6.42188C6.03351 24.625 5.71875 24.3103 5.71875 23.9219V13.6094C5.71875 13.3924 5.81891 13.1877 5.99011 13.0544L14.4276 6.49193C14.6816 6.29436 15.0372 6.29436 15.2911 6.49193L23.7286 13.0544C23.8998 13.1877 24 13.3924 24 13.6094V23.9219C24 24.3103 23.6852 24.625 23.2969 24.625Z" fill="#FFCD00"/>
        <path d="M23.7286 13.0544L15.2911 6.49188C15.1641 6.39319 15.0117 6.34375 14.8594 6.34375V24.625H23.2969C23.6852 24.625 24 24.3102 24 23.9219V13.6094C24 13.3924 23.8998 13.1877 23.7286 13.0544Z" fill="#FAAA00"/>
        <path d="M23.2969 0.625H6.42188C6.03351 0.625 5.71875 0.939758 5.71875 1.32812V3.20312C5.71875 3.59149 6.03351 3.90625 6.42188 3.90625C6.81024 3.90625 7.125 3.59149 7.125 3.20312V2.03125H8.53125V4.14062C8.53125 4.52899 8.84601 4.84375 9.23438 4.84375C9.62274 4.84375 9.9375 4.52899 9.9375 4.14062V2.03125H11.3438V3.20312C11.3438 3.59149 11.6585 3.90625 12.0469 3.90625C12.4352 3.90625 12.75 3.59149 12.75 3.20312V2.03125H14.1562V4.14062C14.1562 4.52899 14.471 4.84375 14.8594 4.84375C15.2477 4.84375 15.5625 4.52899 15.5625 4.14062V2.03125H16.9688V3.20312C16.9688 3.59149 17.2835 3.90625 17.6719 3.90625C18.0602 3.90625 18.375 3.59149 18.375 3.20312V2.03125H19.7812V4.14062C19.7812 4.52899 20.096 4.84375 20.4844 4.84375C20.8727 4.84375 21.1875 4.52899 21.1875 4.14062V2.03125H22.5938V3.20312C22.5938 3.59149 22.9085 3.90625 23.2969 3.90625C23.6852 3.90625 24 3.59149 24 3.20312V1.32812C24 0.939758 23.6852 0.625 23.2969 0.625Z" fill="#575757"/>
        <path d="M23.2969 0.625H14.8594V4.84375C15.2477 4.84375 15.5625 4.52899 15.5625 4.14062V2.03125H16.9688V3.20312C16.9688 3.59149 17.2835 3.90625 17.6719 3.90625C18.0602 3.90625 18.375 3.59149 18.375 3.20312V2.03125H19.7812V4.14062C19.7812 4.52899 20.096 4.84375 20.4844 4.84375C20.8727 4.84375 21.1875 4.52899 21.1875 4.14062V2.03125H22.5938V3.20312C22.5938 3.59149 22.9085 3.90625 23.2969 3.90625C23.6852 3.90625 24 3.59149 24 3.20312V1.32812C24 0.939758 23.6852 0.625 23.2969 0.625Z" fill="#3F3F3F"/>
        <path d="M18.375 24.625H11.3438V16.4219C11.3438 16.0335 11.6585 15.7188 12.0469 15.7188H17.6719C18.0602 15.7188 18.375 16.0335 18.375 16.4219V24.625Z" fill="#FF5A5A"/>
        <path d="M3.51562 16.1875C3.90399 16.1875 4.21875 15.8727 4.21875 15.4844C4.21875 15.096 3.90399 14.7812 3.51562 14.7812H1.40625V13.375H2.57812C2.96649 13.375 3.28125 13.0602 3.28125 12.6719C3.28125 12.2835 2.96649 11.9688 2.57812 11.9688H1.40625V10.5625H3.51562C3.90399 10.5625 4.21875 10.2477 4.21875 9.85938C4.21875 9.47101 3.90399 9.15625 3.51562 9.15625H1.40625V7.75H2.57812C2.96649 7.75 3.28125 7.43524 3.28125 7.04688C3.28125 6.65851 2.96649 6.34375 2.57812 6.34375H0.703125C0.314758 6.34375 0 6.65851 0 7.04688V23.9219C0 24.3102 0.314758 24.625 0.703125 24.625H2.57812C2.96649 24.625 3.28125 24.3102 3.28125 23.9219C3.28125 23.5335 2.96649 23.2188 2.57812 23.2188H1.40625V21.8125H3.51562C3.90399 21.8125 4.21875 21.4977 4.21875 21.1094C4.21875 20.721 3.90399 20.4062 3.51562 20.4062H1.40625V19H2.57812C2.96649 19 3.28125 18.6852 3.28125 18.2969C3.28125 17.9085 2.96649 17.5938 2.57812 17.5938H1.40625V16.1875H3.51562Z" fill="#575757"/>
        <path d="M14.8594 24.625H18.375V16.4219C18.375 16.0335 18.0602 15.7188 17.6719 15.7188H14.8594V24.625Z" fill="#FA1E1E"/>
    </g>
    <defs>
        <clipPath id="clip0_301_32627">
            <rect width="24" height="24" fill="white" transform="translate(0 0.625)"/>
        </clipPath>
    </defs>
</svg>
